G04 #@! TF.GenerationSoftware,KiCad,Pcbnew,6.0.10-86aedd382b~118~ubuntu22.04.1*
G04 #@! TF.CreationDate,2023-04-18T16:49:58-04:00*
G04 #@! TF.ProjectId,firstfpga-clock,66697273-7466-4706-9761-2d636c6f636b,rev?*
G04 #@! TF.SameCoordinates,Original*
G04 #@! TF.FileFunction,Paste,Top*
G04 #@! TF.FilePolarity,Positive*
%FSLAX46Y46*%
G04 Gerber Fmt 4.6, Leading zero omitted, Abs format (unit mm)*
G04 Created by KiCad (PCBNEW 6.0.10-86aedd382b~118~ubuntu22.04.1) date 2023-04-18 16:49:58*
%MOMM*%
%LPD*%
G01*
G04 APERTURE LIST*
G04 Aperture macros list*
%AMRoundRect*
0 Rectangle with rounded corners*
0 $1 Rounding radius*
0 $2 $3 $4 $5 $6 $7 $8 $9 X,Y pos of 4 corners*
0 Add a 4 corners polygon primitive as box body*
4,1,4,$2,$3,$4,$5,$6,$7,$8,$9,$2,$3,0*
0 Add four circle primitives for the rounded corners*
1,1,$1+$1,$2,$3*
1,1,$1+$1,$4,$5*
1,1,$1+$1,$6,$7*
1,1,$1+$1,$8,$9*
0 Add four rect primitives between the rounded corners*
20,1,$1+$1,$2,$3,$4,$5,0*
20,1,$1+$1,$4,$5,$6,$7,0*
20,1,$1+$1,$6,$7,$8,$9,0*
20,1,$1+$1,$8,$9,$2,$3,0*%
G04 Aperture macros list end*
%ADD10RoundRect,0.237500X0.250000X0.237500X-0.250000X0.237500X-0.250000X-0.237500X0.250000X-0.237500X0*%
%ADD11RoundRect,0.150000X-0.150000X0.587500X-0.150000X-0.587500X0.150000X-0.587500X0.150000X0.587500X0*%
%ADD12RoundRect,0.237500X-0.237500X0.300000X-0.237500X-0.300000X0.237500X-0.300000X0.237500X0.300000X0*%
%ADD13RoundRect,0.237500X-0.250000X-0.237500X0.250000X-0.237500X0.250000X0.237500X-0.250000X0.237500X0*%
%ADD14RoundRect,0.150000X-0.825000X-0.150000X0.825000X-0.150000X0.825000X0.150000X-0.825000X0.150000X0*%
%ADD15RoundRect,0.237500X0.237500X-0.250000X0.237500X0.250000X-0.237500X0.250000X-0.237500X-0.250000X0*%
%ADD16RoundRect,0.237500X-0.300000X-0.237500X0.300000X-0.237500X0.300000X0.237500X-0.300000X0.237500X0*%
%ADD17R,2.750000X3.050000*%
%ADD18R,1.200000X2.200000*%
%ADD19RoundRect,0.250000X0.337500X0.475000X-0.337500X0.475000X-0.337500X-0.475000X0.337500X-0.475000X0*%
%ADD20RoundRect,0.250001X-0.924999X0.499999X-0.924999X-0.499999X0.924999X-0.499999X0.924999X0.499999X0*%
%ADD21RoundRect,0.237500X-0.237500X0.250000X-0.237500X-0.250000X0.237500X-0.250000X0.237500X0.250000X0*%
%ADD22R,0.400000X0.650000*%
%ADD23RoundRect,0.250000X0.475000X-0.337500X0.475000X0.337500X-0.475000X0.337500X-0.475000X-0.337500X0*%
%ADD24R,0.700000X1.925000*%
%ADD25R,1.925000X0.700000*%
%ADD26RoundRect,0.150000X-0.587500X-0.150000X0.587500X-0.150000X0.587500X0.150000X-0.587500X0.150000X0*%
%ADD27R,0.670000X0.300000*%
%ADD28RoundRect,0.237500X0.300000X0.237500X-0.300000X0.237500X-0.300000X-0.237500X0.300000X-0.237500X0*%
%ADD29RoundRect,0.250000X-0.650000X0.412500X-0.650000X-0.412500X0.650000X-0.412500X0.650000X0.412500X0*%
%ADD30R,0.900000X0.700000*%
%ADD31R,0.900000X0.400000*%
%ADD32R,0.700000X0.600000*%
G04 APERTURE END LIST*
D10*
X216650000Y-91400000D03*
X214825000Y-91400000D03*
D11*
X224300000Y-43037500D03*
X222400000Y-43037500D03*
X223350000Y-44912500D03*
D12*
X213950000Y-85487500D03*
X213950000Y-87212500D03*
D13*
X165687500Y-88825000D03*
X167512500Y-88825000D03*
D14*
X217525000Y-78470000D03*
X217525000Y-79740000D03*
X217525000Y-81010000D03*
X217525000Y-82280000D03*
X222475000Y-82280000D03*
X222475000Y-81010000D03*
X222475000Y-79740000D03*
X222475000Y-78470000D03*
D15*
X161950000Y-101512500D03*
X161950000Y-99687500D03*
D11*
X224275000Y-48212500D03*
X222375000Y-48212500D03*
X223325000Y-50087500D03*
D10*
X167162500Y-54100000D03*
X165337500Y-54100000D03*
X167162500Y-43900000D03*
X165337500Y-43900000D03*
D15*
X219450000Y-89662500D03*
X219450000Y-87837500D03*
D16*
X217500000Y-76750000D03*
X219225000Y-76750000D03*
D17*
X172100000Y-98925000D03*
X169050000Y-102275000D03*
X169050000Y-98925000D03*
X172100000Y-102275000D03*
D18*
X172855000Y-94300000D03*
X168295000Y-94300000D03*
D10*
X167162500Y-57500000D03*
X165337500Y-57500000D03*
D12*
X177800000Y-82217500D03*
X177800000Y-83942500D03*
D19*
X165837500Y-81925000D03*
X163762500Y-81925000D03*
D12*
X212812500Y-91462500D03*
X212812500Y-93187500D03*
D10*
X167162500Y-49000000D03*
X165337500Y-49000000D03*
D20*
X165350000Y-94075000D03*
X165350000Y-97325000D03*
D16*
X222462500Y-98300000D03*
X224187500Y-98300000D03*
D21*
X214550000Y-70687500D03*
X214550000Y-72512500D03*
D15*
X222725000Y-72512500D03*
X222725000Y-70687500D03*
D16*
X217500000Y-75250000D03*
X219225000Y-75250000D03*
D22*
X158600000Y-76625000D03*
X157950000Y-76625000D03*
X157300000Y-76625000D03*
X157300000Y-78525000D03*
X158600000Y-78525000D03*
D15*
X216650000Y-89562500D03*
X216650000Y-87737500D03*
D21*
X224325000Y-86187500D03*
X224325000Y-88012500D03*
D16*
X222562500Y-89700000D03*
X224287500Y-89700000D03*
D21*
X222425000Y-94762500D03*
X222425000Y-96587500D03*
D15*
X160550000Y-87012500D03*
X160550000Y-85187500D03*
X226150000Y-72512500D03*
X226150000Y-70687500D03*
D23*
X169500000Y-84537500D03*
X169500000Y-82462500D03*
D15*
X162600000Y-78650000D03*
X162600000Y-76825000D03*
D11*
X224300000Y-53412500D03*
X222400000Y-53412500D03*
X223350000Y-55287500D03*
D12*
X176090000Y-82217500D03*
X176090000Y-83942500D03*
D21*
X217750000Y-70687500D03*
X217750000Y-72512500D03*
D24*
X195000000Y-73827500D03*
X193730000Y-73827500D03*
X192460000Y-73827500D03*
X191190000Y-73827500D03*
X189920000Y-73827500D03*
X188650000Y-73827500D03*
X187380000Y-73827500D03*
X186110000Y-73827500D03*
X184840000Y-73827500D03*
D25*
X183327500Y-75340000D03*
X183327500Y-76610000D03*
X183327500Y-77880000D03*
X183327500Y-79150000D03*
X183327500Y-80420000D03*
X183327500Y-81690000D03*
X183327500Y-82960000D03*
X183327500Y-84230000D03*
X183327500Y-85500000D03*
X183327500Y-86770000D03*
X183327500Y-88040000D03*
X183327500Y-89310000D03*
X183327500Y-90580000D03*
X183327500Y-91850000D03*
X183327500Y-93120000D03*
X183327500Y-94390000D03*
X183327500Y-95660000D03*
D24*
X184840000Y-97172500D03*
X186110000Y-97172500D03*
X187380000Y-97172500D03*
X188650000Y-97172500D03*
X189920000Y-97172500D03*
X191190000Y-97172500D03*
X192460000Y-97172500D03*
X193730000Y-97172500D03*
X195000000Y-97172500D03*
X196270000Y-97172500D03*
X197540000Y-97172500D03*
X198810000Y-97172500D03*
X200080000Y-97172500D03*
X201350000Y-97172500D03*
X202620000Y-97172500D03*
X203890000Y-97172500D03*
X205160000Y-97172500D03*
D25*
X206672500Y-95660000D03*
X206672500Y-94390000D03*
X206672500Y-93120000D03*
X206672500Y-91850000D03*
X206672500Y-90580000D03*
X206672500Y-89310000D03*
X206672500Y-88040000D03*
X206672500Y-86770000D03*
X206672500Y-85500000D03*
X206672500Y-84230000D03*
X206672500Y-82960000D03*
X206672500Y-81690000D03*
X206672500Y-80420000D03*
X206672500Y-79150000D03*
X206672500Y-77880000D03*
X206672500Y-76610000D03*
X206672500Y-75340000D03*
D24*
X205160000Y-73827500D03*
X203890000Y-73827500D03*
X202620000Y-73827500D03*
X201350000Y-73827500D03*
X200080000Y-73827500D03*
X198810000Y-73827500D03*
X197540000Y-73827500D03*
X196270000Y-73827500D03*
D21*
X212950000Y-70687500D03*
X212950000Y-72512500D03*
X224200000Y-94762500D03*
X224200000Y-96587500D03*
D10*
X167512500Y-87300000D03*
X165687500Y-87300000D03*
D15*
X221050000Y-72512500D03*
X221050000Y-70687500D03*
D10*
X167162500Y-55800000D03*
X165337500Y-55800000D03*
D26*
X171862500Y-82350000D03*
X171862500Y-84250000D03*
X173737500Y-83300000D03*
D13*
X165337500Y-45600000D03*
X167162500Y-45600000D03*
D27*
X165207500Y-84200000D03*
X165207500Y-84700000D03*
X165207500Y-85200000D03*
X165207500Y-85700000D03*
X166687500Y-85700000D03*
X166687500Y-85200000D03*
X166687500Y-84700000D03*
X166687500Y-84200000D03*
D10*
X167162500Y-47300000D03*
X165337500Y-47300000D03*
X161912500Y-66967400D03*
X160087500Y-66967400D03*
D28*
X167462500Y-78550000D03*
X165737500Y-78550000D03*
D21*
X222550000Y-86187500D03*
X222550000Y-88012500D03*
D29*
X175325000Y-94312500D03*
X175325000Y-97437500D03*
D21*
X216150000Y-70687500D03*
X216150000Y-72512500D03*
D12*
X212275000Y-85487500D03*
X212275000Y-87212500D03*
D10*
X161912500Y-72450000D03*
X160087500Y-72450000D03*
D21*
X176875000Y-86887500D03*
X176875000Y-88712500D03*
D15*
X219350000Y-72512500D03*
X219350000Y-70687500D03*
D30*
X167600000Y-77162500D03*
D31*
X167600000Y-76312500D03*
X167600000Y-75612500D03*
X167600000Y-74912500D03*
D30*
X167600000Y-74062500D03*
X165600000Y-74062500D03*
D31*
X165600000Y-74912500D03*
X165600000Y-75612500D03*
X165600000Y-76312500D03*
D30*
X165600000Y-77162500D03*
D10*
X158662500Y-81900000D03*
X156837500Y-81900000D03*
X167162500Y-50700000D03*
X165337500Y-50700000D03*
D32*
X161950000Y-96750000D03*
X161950000Y-95350000D03*
D10*
X167162500Y-52400000D03*
X165337500Y-52400000D03*
D13*
X173087500Y-90100000D03*
X174912500Y-90100000D03*
D32*
X226160000Y-83040000D03*
X226160000Y-84440000D03*
D13*
X156837500Y-83550000D03*
X158662500Y-83550000D03*
D15*
X160950000Y-78662500D03*
X160950000Y-76837500D03*
X224400000Y-72512500D03*
X224400000Y-70687500D03*
D22*
X225800000Y-60400000D03*
X226450000Y-60400000D03*
X227100000Y-60400000D03*
X227100000Y-58500000D03*
X225800000Y-58500000D03*
D11*
X224300000Y-37887500D03*
X222400000Y-37887500D03*
X223350000Y-39762500D03*
D32*
X226225000Y-94575000D03*
X226225000Y-95975000D03*
M02*
