G04 #@! TF.GenerationSoftware,KiCad,Pcbnew,6.0.10-86aedd382b~118~ubuntu22.04.1*
G04 #@! TF.CreationDate,2023-04-18T16:49:58-04:00*
G04 #@! TF.ProjectId,firstfpga-clock,66697273-7466-4706-9761-2d636c6f636b,rev?*
G04 #@! TF.SameCoordinates,Original*
G04 #@! TF.FileFunction,Copper,L1,Top*
G04 #@! TF.FilePolarity,Positive*
%FSLAX46Y46*%
G04 Gerber Fmt 4.6, Leading zero omitted, Abs format (unit mm)*
G04 Created by KiCad (PCBNEW 6.0.10-86aedd382b~118~ubuntu22.04.1) date 2023-04-18 16:49:58*
%MOMM*%
%LPD*%
G01*
G04 APERTURE LIST*
G04 Aperture macros list*
%AMRoundRect*
0 Rectangle with rounded corners*
0 $1 Rounding radius*
0 $2 $3 $4 $5 $6 $7 $8 $9 X,Y pos of 4 corners*
0 Add a 4 corners polygon primitive as box body*
4,1,4,$2,$3,$4,$5,$6,$7,$8,$9,$2,$3,0*
0 Add four circle primitives for the rounded corners*
1,1,$1+$1,$2,$3*
1,1,$1+$1,$4,$5*
1,1,$1+$1,$6,$7*
1,1,$1+$1,$8,$9*
0 Add four rect primitives between the rounded corners*
20,1,$1+$1,$2,$3,$4,$5,0*
20,1,$1+$1,$4,$5,$6,$7,0*
20,1,$1+$1,$6,$7,$8,$9,0*
20,1,$1+$1,$8,$9,$2,$3,0*%
G04 Aperture macros list end*
G04 #@! TA.AperFunction,SMDPad,CuDef*
%ADD10RoundRect,0.237500X0.250000X0.237500X-0.250000X0.237500X-0.250000X-0.237500X0.250000X-0.237500X0*%
G04 #@! TD*
G04 #@! TA.AperFunction,ComponentPad*
%ADD11C,6.000000*%
G04 #@! TD*
G04 #@! TA.AperFunction,SMDPad,CuDef*
%ADD12RoundRect,0.150000X-0.150000X0.587500X-0.150000X-0.587500X0.150000X-0.587500X0.150000X0.587500X0*%
G04 #@! TD*
G04 #@! TA.AperFunction,SMDPad,CuDef*
%ADD13RoundRect,0.237500X-0.237500X0.300000X-0.237500X-0.300000X0.237500X-0.300000X0.237500X0.300000X0*%
G04 #@! TD*
G04 #@! TA.AperFunction,SMDPad,CuDef*
%ADD14RoundRect,0.237500X-0.250000X-0.237500X0.250000X-0.237500X0.250000X0.237500X-0.250000X0.237500X0*%
G04 #@! TD*
G04 #@! TA.AperFunction,SMDPad,CuDef*
%ADD15RoundRect,0.150000X-0.825000X-0.150000X0.825000X-0.150000X0.825000X0.150000X-0.825000X0.150000X0*%
G04 #@! TD*
G04 #@! TA.AperFunction,SMDPad,CuDef*
%ADD16RoundRect,0.237500X0.237500X-0.250000X0.237500X0.250000X-0.237500X0.250000X-0.237500X-0.250000X0*%
G04 #@! TD*
G04 #@! TA.AperFunction,SMDPad,CuDef*
%ADD17RoundRect,0.237500X-0.300000X-0.237500X0.300000X-0.237500X0.300000X0.237500X-0.300000X0.237500X0*%
G04 #@! TD*
G04 #@! TA.AperFunction,SMDPad,CuDef*
%ADD18R,1.200000X2.200000*%
G04 #@! TD*
G04 #@! TA.AperFunction,SMDPad,CuDef*
%ADD19R,5.800000X6.400000*%
G04 #@! TD*
G04 #@! TA.AperFunction,SMDPad,CuDef*
%ADD20RoundRect,0.250000X0.337500X0.475000X-0.337500X0.475000X-0.337500X-0.475000X0.337500X-0.475000X0*%
G04 #@! TD*
G04 #@! TA.AperFunction,SMDPad,CuDef*
%ADD21RoundRect,0.250001X-0.924999X0.499999X-0.924999X-0.499999X0.924999X-0.499999X0.924999X0.499999X0*%
G04 #@! TD*
G04 #@! TA.AperFunction,SMDPad,CuDef*
%ADD22RoundRect,0.237500X-0.237500X0.250000X-0.237500X-0.250000X0.237500X-0.250000X0.237500X0.250000X0*%
G04 #@! TD*
G04 #@! TA.AperFunction,SMDPad,CuDef*
%ADD23R,0.400000X0.650000*%
G04 #@! TD*
G04 #@! TA.AperFunction,SMDPad,CuDef*
%ADD24RoundRect,0.250000X0.475000X-0.337500X0.475000X0.337500X-0.475000X0.337500X-0.475000X-0.337500X0*%
G04 #@! TD*
G04 #@! TA.AperFunction,ComponentPad*
%ADD25C,2.100000*%
G04 #@! TD*
G04 #@! TA.AperFunction,ComponentPad*
%ADD26C,1.750000*%
G04 #@! TD*
G04 #@! TA.AperFunction,SMDPad,CuDef*
%ADD27R,0.700000X1.925000*%
G04 #@! TD*
G04 #@! TA.AperFunction,SMDPad,CuDef*
%ADD28R,1.925000X0.700000*%
G04 #@! TD*
G04 #@! TA.AperFunction,ComponentPad*
%ADD29O,1.300000X2.000000*%
G04 #@! TD*
G04 #@! TA.AperFunction,SMDPad,CuDef*
%ADD30RoundRect,0.150000X-0.587500X-0.150000X0.587500X-0.150000X0.587500X0.150000X-0.587500X0.150000X0*%
G04 #@! TD*
G04 #@! TA.AperFunction,SMDPad,CuDef*
%ADD31R,0.670000X0.300000*%
G04 #@! TD*
G04 #@! TA.AperFunction,ComponentPad*
%ADD32O,3.500000X2.200000*%
G04 #@! TD*
G04 #@! TA.AperFunction,ComponentPad*
%ADD33R,2.500000X1.500000*%
G04 #@! TD*
G04 #@! TA.AperFunction,ComponentPad*
%ADD34O,2.500000X1.500000*%
G04 #@! TD*
G04 #@! TA.AperFunction,SMDPad,CuDef*
%ADD35RoundRect,0.237500X0.300000X0.237500X-0.300000X0.237500X-0.300000X-0.237500X0.300000X-0.237500X0*%
G04 #@! TD*
G04 #@! TA.AperFunction,SMDPad,CuDef*
%ADD36RoundRect,0.250000X-0.650000X0.412500X-0.650000X-0.412500X0.650000X-0.412500X0.650000X0.412500X0*%
G04 #@! TD*
G04 #@! TA.AperFunction,ComponentPad*
%ADD37R,1.700000X1.700000*%
G04 #@! TD*
G04 #@! TA.AperFunction,ComponentPad*
%ADD38O,1.700000X1.700000*%
G04 #@! TD*
G04 #@! TA.AperFunction,SMDPad,CuDef*
%ADD39R,0.900000X0.700000*%
G04 #@! TD*
G04 #@! TA.AperFunction,SMDPad,CuDef*
%ADD40R,0.900000X0.400000*%
G04 #@! TD*
G04 #@! TA.AperFunction,SMDPad,CuDef*
%ADD41R,0.700000X0.600000*%
G04 #@! TD*
G04 #@! TA.AperFunction,ComponentPad*
%ADD42R,2.600000X2.600000*%
G04 #@! TD*
G04 #@! TA.AperFunction,ComponentPad*
%ADD43C,2.600000*%
G04 #@! TD*
G04 #@! TA.AperFunction,ViaPad*
%ADD44C,0.600000*%
G04 #@! TD*
G04 #@! TA.AperFunction,ViaPad*
%ADD45C,0.800000*%
G04 #@! TD*
G04 #@! TA.AperFunction,Conductor*
%ADD46C,0.250000*%
G04 #@! TD*
G04 #@! TA.AperFunction,Conductor*
%ADD47C,0.203200*%
G04 #@! TD*
G04 #@! TA.AperFunction,Conductor*
%ADD48C,0.254000*%
G04 #@! TD*
G04 #@! TA.AperFunction,Conductor*
%ADD49C,0.381000*%
G04 #@! TD*
G04 #@! TA.AperFunction,Conductor*
%ADD50C,0.762000*%
G04 #@! TD*
G04 #@! TA.AperFunction,Conductor*
%ADD51C,0.508000*%
G04 #@! TD*
G04 #@! TA.AperFunction,Conductor*
%ADD52C,1.016000*%
G04 #@! TD*
G04 #@! TA.AperFunction,Conductor*
%ADD53C,1.270000*%
G04 #@! TD*
G04 APERTURE END LIST*
D10*
X216650000Y-91400000D03*
X214825000Y-91400000D03*
D11*
X230000000Y-110000000D03*
D12*
X224300000Y-43037500D03*
X222400000Y-43037500D03*
X223350000Y-44912500D03*
D13*
X213950000Y-85487500D03*
X213950000Y-87212500D03*
D14*
X165687500Y-88825000D03*
X167512500Y-88825000D03*
D11*
X160000000Y-40000000D03*
D15*
X217525000Y-78470000D03*
X217525000Y-79740000D03*
X217525000Y-81010000D03*
X217525000Y-82280000D03*
X222475000Y-82280000D03*
X222475000Y-81010000D03*
X222475000Y-79740000D03*
X222475000Y-78470000D03*
D16*
X161950000Y-101512500D03*
X161950000Y-99687500D03*
D12*
X224275000Y-48212500D03*
X222375000Y-48212500D03*
X223325000Y-50087500D03*
D10*
X167162500Y-54100000D03*
X165337500Y-54100000D03*
X167162500Y-43900000D03*
X165337500Y-43900000D03*
D16*
X219450000Y-89662500D03*
X219450000Y-87837500D03*
D17*
X217500000Y-76750000D03*
X219225000Y-76750000D03*
D18*
X172855000Y-94300000D03*
D19*
X170575000Y-100600000D03*
D18*
X168295000Y-94300000D03*
D10*
X167162500Y-57500000D03*
X165337500Y-57500000D03*
D13*
X177800000Y-82217500D03*
X177800000Y-83942500D03*
D20*
X165837500Y-81925000D03*
X163762500Y-81925000D03*
D13*
X212812500Y-91462500D03*
X212812500Y-93187500D03*
D10*
X167162500Y-49000000D03*
X165337500Y-49000000D03*
D11*
X230000000Y-40000000D03*
D21*
X165350000Y-94075000D03*
X165350000Y-97325000D03*
D17*
X222462500Y-98300000D03*
X224187500Y-98300000D03*
D22*
X214550000Y-70687500D03*
X214550000Y-72512500D03*
D16*
X222725000Y-72512500D03*
X222725000Y-70687500D03*
D17*
X217500000Y-75250000D03*
X219225000Y-75250000D03*
D23*
X158600000Y-76625000D03*
X157950000Y-76625000D03*
X157300000Y-76625000D03*
X157300000Y-78525000D03*
X158600000Y-78525000D03*
D11*
X160000000Y-110000000D03*
D16*
X216650000Y-89562500D03*
X216650000Y-87737500D03*
D22*
X224325000Y-86187500D03*
X224325000Y-88012500D03*
D17*
X222562500Y-89700000D03*
X224287500Y-89700000D03*
D22*
X222425000Y-94762500D03*
X222425000Y-96587500D03*
D16*
X160550000Y-87012500D03*
X160550000Y-85187500D03*
X226150000Y-72512500D03*
X226150000Y-70687500D03*
D24*
X169500000Y-84537500D03*
X169500000Y-82462500D03*
D16*
X162600000Y-78650000D03*
X162600000Y-76825000D03*
D12*
X224300000Y-53412500D03*
X222400000Y-53412500D03*
X223350000Y-55287500D03*
D13*
X176090000Y-82217500D03*
X176090000Y-83942500D03*
D25*
X229447500Y-77900000D03*
X229447500Y-84910000D03*
D26*
X231937500Y-79150000D03*
X231937500Y-83650000D03*
D22*
X217750000Y-70687500D03*
X217750000Y-72512500D03*
D27*
X195000000Y-73827500D03*
X193730000Y-73827500D03*
X192460000Y-73827500D03*
X191190000Y-73827500D03*
X189920000Y-73827500D03*
X188650000Y-73827500D03*
X187380000Y-73827500D03*
X186110000Y-73827500D03*
X184840000Y-73827500D03*
D28*
X183327500Y-75340000D03*
X183327500Y-76610000D03*
X183327500Y-77880000D03*
X183327500Y-79150000D03*
X183327500Y-80420000D03*
X183327500Y-81690000D03*
X183327500Y-82960000D03*
X183327500Y-84230000D03*
X183327500Y-85500000D03*
X183327500Y-86770000D03*
X183327500Y-88040000D03*
X183327500Y-89310000D03*
X183327500Y-90580000D03*
X183327500Y-91850000D03*
X183327500Y-93120000D03*
X183327500Y-94390000D03*
X183327500Y-95660000D03*
D27*
X184840000Y-97172500D03*
X186110000Y-97172500D03*
X187380000Y-97172500D03*
X188650000Y-97172500D03*
X189920000Y-97172500D03*
X191190000Y-97172500D03*
X192460000Y-97172500D03*
X193730000Y-97172500D03*
X195000000Y-97172500D03*
X196270000Y-97172500D03*
X197540000Y-97172500D03*
X198810000Y-97172500D03*
X200080000Y-97172500D03*
X201350000Y-97172500D03*
X202620000Y-97172500D03*
X203890000Y-97172500D03*
X205160000Y-97172500D03*
D28*
X206672500Y-95660000D03*
X206672500Y-94390000D03*
X206672500Y-93120000D03*
X206672500Y-91850000D03*
X206672500Y-90580000D03*
X206672500Y-89310000D03*
X206672500Y-88040000D03*
X206672500Y-86770000D03*
X206672500Y-85500000D03*
X206672500Y-84230000D03*
X206672500Y-82960000D03*
X206672500Y-81690000D03*
X206672500Y-80420000D03*
X206672500Y-79150000D03*
X206672500Y-77880000D03*
X206672500Y-76610000D03*
X206672500Y-75340000D03*
D27*
X205160000Y-73827500D03*
X203890000Y-73827500D03*
X202620000Y-73827500D03*
X201350000Y-73827500D03*
X200080000Y-73827500D03*
X198810000Y-73827500D03*
X197540000Y-73827500D03*
X196270000Y-73827500D03*
D22*
X212950000Y-70687500D03*
X212950000Y-72512500D03*
X224200000Y-94762500D03*
X224200000Y-96587500D03*
D10*
X167512500Y-87300000D03*
X165687500Y-87300000D03*
D29*
X202620000Y-38780000D03*
X200080000Y-38780000D03*
X197540000Y-38780000D03*
X195000000Y-38780000D03*
X192460000Y-38780000D03*
X189920000Y-38780000D03*
X187380000Y-38780000D03*
X187380000Y-54020000D03*
X189920000Y-54020000D03*
X192460000Y-54020000D03*
X195000000Y-54020000D03*
X197540000Y-54020000D03*
X200080000Y-54020000D03*
X202620000Y-54020000D03*
D16*
X221050000Y-72512500D03*
X221050000Y-70687500D03*
D10*
X167162500Y-55800000D03*
X165337500Y-55800000D03*
D30*
X171862500Y-82350000D03*
X171862500Y-84250000D03*
X173737500Y-83300000D03*
D14*
X165337500Y-45600000D03*
X167162500Y-45600000D03*
D31*
X165207500Y-84200000D03*
X165207500Y-84700000D03*
X165207500Y-85200000D03*
X165207500Y-85700000D03*
X166687500Y-85700000D03*
X166687500Y-85200000D03*
X166687500Y-84700000D03*
X166687500Y-84200000D03*
D10*
X167162500Y-47300000D03*
X165337500Y-47300000D03*
X161912500Y-66967400D03*
X160087500Y-66967400D03*
D32*
X157850000Y-92650000D03*
X157850000Y-100850000D03*
D33*
X157850000Y-94750000D03*
D34*
X157850000Y-96750000D03*
X157850000Y-98750000D03*
D35*
X167462500Y-78550000D03*
X165737500Y-78550000D03*
D22*
X222550000Y-86187500D03*
X222550000Y-88012500D03*
D36*
X175325000Y-94312500D03*
X175325000Y-97437500D03*
D37*
X230700000Y-66875000D03*
D38*
X230700000Y-64335000D03*
X230700000Y-61795000D03*
X230700000Y-59255000D03*
X230700000Y-56715000D03*
X230700000Y-54175000D03*
X230700000Y-51635000D03*
X230700000Y-49095000D03*
D22*
X216150000Y-70687500D03*
X216150000Y-72512500D03*
D13*
X212275000Y-85487500D03*
X212275000Y-87212500D03*
D10*
X161912500Y-72450000D03*
X160087500Y-72450000D03*
D22*
X176875000Y-86887500D03*
X176875000Y-88712500D03*
D16*
X219350000Y-72512500D03*
X219350000Y-70687500D03*
D39*
X167600000Y-77162500D03*
D40*
X167600000Y-76312500D03*
X167600000Y-75612500D03*
X167600000Y-74912500D03*
D39*
X167600000Y-74062500D03*
X165600000Y-74062500D03*
D40*
X165600000Y-74912500D03*
X165600000Y-75612500D03*
X165600000Y-76312500D03*
D39*
X165600000Y-77162500D03*
D10*
X158662500Y-81900000D03*
X156837500Y-81900000D03*
X167162500Y-50700000D03*
X165337500Y-50700000D03*
D25*
X229397500Y-93025000D03*
X229397500Y-100035000D03*
D26*
X231887500Y-94275000D03*
X231887500Y-98775000D03*
D41*
X161950000Y-96750000D03*
X161950000Y-95350000D03*
D10*
X167162500Y-52400000D03*
X165337500Y-52400000D03*
D14*
X173087500Y-90100000D03*
X174912500Y-90100000D03*
D41*
X226160000Y-83040000D03*
X226160000Y-84440000D03*
D14*
X156837500Y-83550000D03*
X158662500Y-83550000D03*
D16*
X160950000Y-78662500D03*
X160950000Y-76837500D03*
X224400000Y-72512500D03*
X224400000Y-70687500D03*
D23*
X225800000Y-60400000D03*
X226450000Y-60400000D03*
X227100000Y-60400000D03*
X227100000Y-58500000D03*
X225800000Y-58500000D03*
D12*
X224300000Y-37887500D03*
X222400000Y-37887500D03*
X223350000Y-39762500D03*
D41*
X226225000Y-94575000D03*
X226225000Y-95975000D03*
D42*
X171280000Y-87000000D03*
D43*
X171280000Y-74300000D03*
D44*
X169150000Y-81375000D03*
X226450000Y-61200000D03*
D45*
X222400000Y-41575000D03*
X220387500Y-75250000D03*
X177800000Y-85110000D03*
D44*
X226160000Y-85340000D03*
X164500000Y-76312500D03*
D45*
X222400000Y-36475000D03*
X164775000Y-98900000D03*
X195000000Y-95000000D03*
X222500000Y-77550000D03*
D44*
X162600000Y-81500000D03*
D45*
X168775000Y-99900000D03*
X170575000Y-101300000D03*
D44*
X226225000Y-96850000D03*
X169850000Y-81375000D03*
D45*
X170575000Y-99900000D03*
X195000000Y-75800000D03*
X212275000Y-88400000D03*
X175850000Y-98810000D03*
X172375000Y-98500000D03*
D44*
X225350000Y-98300000D03*
D45*
X168775000Y-101300000D03*
D44*
X225400000Y-89675000D03*
D45*
X168775000Y-102700000D03*
X172375000Y-99900000D03*
D44*
X162600000Y-82300000D03*
X157950000Y-75650000D03*
D45*
X168775000Y-98500000D03*
X174850000Y-98810000D03*
D44*
X161950000Y-94450000D03*
X164051100Y-84200000D03*
D45*
X222375000Y-46800000D03*
X170575000Y-98500000D03*
X220412500Y-76750000D03*
X222400000Y-51950000D03*
X176090000Y-85140000D03*
D44*
X159875000Y-78675000D03*
D45*
X165975000Y-98900000D03*
D44*
X168500000Y-88800000D03*
X159481250Y-84368750D03*
X171850000Y-81326100D03*
X164625000Y-78525000D03*
D45*
X213950000Y-88350000D03*
X170575000Y-102700000D03*
X172375000Y-101300000D03*
X172375000Y-102700000D03*
X211650000Y-93187500D03*
X216150000Y-93650000D03*
D44*
X163832606Y-80417478D03*
X162705127Y-79694789D03*
D45*
X216150000Y-96350000D03*
X212950000Y-67450000D03*
X222550000Y-56950000D03*
X224400000Y-49950000D03*
X214500000Y-67450000D03*
X225550000Y-50450000D03*
X216150000Y-67450000D03*
X225750000Y-45500000D03*
X217750000Y-67450000D03*
D44*
X188299958Y-47749958D03*
X189100000Y-49025000D03*
D45*
X224779601Y-75545400D03*
X226150000Y-74183494D03*
X209870000Y-77920000D03*
X213950000Y-78500000D03*
D44*
X182100000Y-99500000D03*
X183300042Y-98749958D03*
D45*
X214000000Y-77100000D03*
X209877748Y-76700000D03*
X177900000Y-96000000D03*
X177900000Y-94800000D03*
X177900000Y-93600000D03*
D44*
X162500000Y-84250000D03*
X159300042Y-80849958D03*
D45*
X187050000Y-75600000D03*
X183200000Y-73600000D03*
D44*
X168175000Y-83450000D03*
X164875000Y-83075000D03*
X200080000Y-41310000D03*
X195000000Y-42600000D03*
X183280000Y-55350000D03*
X197540000Y-42160000D03*
X183290000Y-53510000D03*
X181600000Y-98825000D03*
X159912853Y-81637147D03*
X161900000Y-85000000D03*
X182850000Y-97950000D03*
D45*
X214800000Y-92600000D03*
X218700000Y-92550000D03*
D44*
X209200000Y-93838900D03*
X209200000Y-95075000D03*
X160650000Y-96000000D03*
D46*
X222400000Y-41575000D02*
X222400000Y-43037500D01*
D47*
X224200000Y-96587500D02*
X224200000Y-98287500D01*
D48*
X166837500Y-74062500D02*
X167600000Y-74062500D01*
D49*
X226160000Y-85340000D02*
X226160000Y-84440000D01*
D48*
X168475000Y-88825000D02*
X168500000Y-88800000D01*
D50*
X164775000Y-98900000D02*
X164775000Y-97925000D01*
D47*
X224325000Y-88012500D02*
X224325000Y-89662500D01*
X163337500Y-81500000D02*
X163762500Y-81925000D01*
D51*
X176090000Y-83942500D02*
X176090000Y-85140000D01*
D47*
X224050000Y-89650000D02*
X224012500Y-89687500D01*
X165712500Y-78525000D02*
X165737500Y-78550000D01*
D51*
X171862500Y-82350000D02*
X169537500Y-82350000D01*
X175850000Y-98810000D02*
X175850000Y-97962500D01*
D46*
X222400000Y-36475000D02*
X222400000Y-37887500D01*
D51*
X220387500Y-75250000D02*
X219200000Y-75250000D01*
X171862500Y-81338600D02*
X171862500Y-82350000D01*
X169850000Y-82112500D02*
X169500000Y-82462500D01*
X177800000Y-83942500D02*
X177800000Y-85110000D01*
X212812500Y-93187500D02*
X211650000Y-93187500D01*
X222475000Y-77575000D02*
X222475000Y-78470000D01*
D48*
X167512500Y-88825000D02*
X168475000Y-88825000D01*
D51*
X169150000Y-82112500D02*
X169500000Y-82462500D01*
D47*
X160950000Y-78662500D02*
X159887500Y-78662500D01*
D51*
X174850000Y-98810000D02*
X174850000Y-97912500D01*
D48*
X166400000Y-74912500D02*
X166600000Y-74712500D01*
X166600000Y-74300000D02*
X166837500Y-74062500D01*
D47*
X159887500Y-78662500D02*
X159875000Y-78675000D01*
D51*
X195000000Y-97222500D02*
X195000000Y-95000000D01*
D48*
X165600000Y-74912500D02*
X166400000Y-74912500D01*
D46*
X159481250Y-84368750D02*
X158662500Y-83550000D01*
D51*
X162600000Y-81500000D02*
X163337500Y-81500000D01*
X169150000Y-81375000D02*
X169150000Y-82112500D01*
D50*
X164775000Y-97925000D02*
X165375000Y-97325000D01*
D51*
X220412500Y-76750000D02*
X219225000Y-76750000D01*
D49*
X224287500Y-89700000D02*
X225375000Y-89700000D01*
D51*
X175850000Y-97962500D02*
X175325000Y-97437500D01*
D48*
X165600000Y-76312500D02*
X164500000Y-76312500D01*
D47*
X163387500Y-82300000D02*
X163762500Y-81925000D01*
D51*
X212275000Y-87062500D02*
X212275000Y-88400000D01*
D50*
X165975000Y-98900000D02*
X165975000Y-97925000D01*
D51*
X171850000Y-81326100D02*
X171862500Y-81338600D01*
X174850000Y-97912500D02*
X175325000Y-97437500D01*
D47*
X224200000Y-98287500D02*
X224187500Y-98300000D01*
D49*
X226225000Y-96850000D02*
X226225000Y-95975000D01*
D51*
X222500000Y-77550000D02*
X222475000Y-77575000D01*
X162600000Y-82300000D02*
X163387500Y-82300000D01*
X169537500Y-82350000D02*
X169500000Y-82312500D01*
D48*
X166600000Y-74712500D02*
X166600000Y-74300000D01*
D51*
X169850000Y-81375000D02*
X169850000Y-82112500D01*
D46*
X164051100Y-84200000D02*
X165207500Y-84200000D01*
D50*
X165975000Y-97925000D02*
X165375000Y-97325000D01*
D46*
X222400000Y-51950000D02*
X222400000Y-53412500D01*
D51*
X164625000Y-78525000D02*
X165712500Y-78525000D01*
D48*
X165600000Y-74912500D02*
X165600000Y-76312500D01*
D49*
X161950000Y-95350000D02*
X161950000Y-94450000D01*
D47*
X226450000Y-61200000D02*
X226450000Y-60400000D01*
D46*
X222375000Y-46800000D02*
X222375000Y-48212500D01*
D47*
X224037500Y-89662500D02*
X224012500Y-89687500D01*
D49*
X225375000Y-89700000D02*
X225400000Y-89675000D01*
D51*
X195000000Y-73877500D02*
X195000000Y-75800000D01*
D46*
X157950000Y-76625000D02*
X157950000Y-75650000D01*
D49*
X225350000Y-98300000D02*
X224187500Y-98300000D01*
D51*
X213950000Y-87062500D02*
X213950000Y-88350000D01*
D47*
X213050000Y-96550000D02*
X209100000Y-96550000D01*
X222562500Y-89962500D02*
X222562500Y-90837500D01*
X208477500Y-97172500D02*
X205160000Y-97172500D01*
X214600000Y-95000000D02*
X213050000Y-96550000D01*
X222550000Y-88012500D02*
X222550000Y-89687500D01*
X209100000Y-96550000D02*
X208477500Y-97172500D01*
X222562500Y-90837500D02*
X218400000Y-95000000D01*
X218400000Y-95000000D02*
X214600000Y-95000000D01*
X207350000Y-97900000D02*
X206125000Y-99125000D01*
X213120210Y-97900000D02*
X207350000Y-97900000D01*
X218187500Y-96587500D02*
X217150000Y-95550000D01*
X206125000Y-99125000D02*
X204475000Y-99125000D01*
X222425000Y-98262500D02*
X222462500Y-98300000D01*
X204475000Y-99125000D02*
X203890000Y-98540000D01*
X222425000Y-96587500D02*
X222425000Y-98262500D01*
X203890000Y-98540000D02*
X203890000Y-97172500D01*
X217150000Y-95550000D02*
X215470210Y-95550000D01*
X215470210Y-95550000D02*
X213120210Y-97900000D01*
X222425000Y-96587500D02*
X218187500Y-96587500D01*
D51*
X213400000Y-75800000D02*
X215900000Y-75800000D01*
D52*
X186300000Y-85540000D02*
X204480000Y-85540000D01*
D51*
X213150000Y-84200000D02*
X213100000Y-84150000D01*
D47*
X165925000Y-84700000D02*
X166687500Y-84700000D01*
D51*
X167600000Y-77162500D02*
X167600000Y-78275000D01*
D47*
X178527100Y-86887500D02*
X176875000Y-86887500D01*
X162071810Y-83598400D02*
X160482710Y-85187500D01*
D48*
X167600000Y-75612500D02*
X167600000Y-77162500D01*
D52*
X167350000Y-79775000D02*
X166675000Y-80450000D01*
D46*
X183327500Y-94390000D02*
X185645000Y-94390000D01*
D51*
X177800000Y-82217500D02*
X176090000Y-82217500D01*
D47*
X216637500Y-91387500D02*
X216650000Y-91400000D01*
D49*
X233550000Y-97112500D02*
X231887500Y-98775000D01*
X228020000Y-97700000D02*
X230812500Y-97700000D01*
D51*
X213100000Y-84150000D02*
X213100000Y-79600000D01*
D47*
X186300000Y-77170000D02*
X186300000Y-85540000D01*
D49*
X233550000Y-85262500D02*
X233550000Y-97112500D01*
D51*
X167600000Y-78275000D02*
X167462500Y-78412500D01*
X217500000Y-76750000D02*
X217500000Y-75150000D01*
D52*
X208850000Y-85500000D02*
X210300000Y-85500000D01*
D51*
X217525000Y-76775000D02*
X217500000Y-76750000D01*
D46*
X186300000Y-93735000D02*
X186300000Y-85540000D01*
D49*
X230700000Y-61795000D02*
X232145000Y-61795000D01*
D52*
X175325000Y-79775000D02*
X176100000Y-80550000D01*
D49*
X215325000Y-85975000D02*
X215325000Y-88325000D01*
X216650000Y-89650000D02*
X216650000Y-93150000D01*
D47*
X163832606Y-80417478D02*
X166417478Y-80417478D01*
D51*
X215900000Y-75800000D02*
X216450000Y-75250000D01*
D46*
X185645000Y-94390000D02*
X186300000Y-93735000D01*
D51*
X217525000Y-78470000D02*
X217525000Y-76775000D01*
D49*
X216650000Y-93150000D02*
X216150000Y-93650000D01*
D51*
X213100000Y-79600000D02*
X212800000Y-79300000D01*
D49*
X232145000Y-61795000D02*
X233700000Y-63350000D01*
X230812500Y-97700000D02*
X231887500Y-98775000D01*
X216150000Y-96350000D02*
X220450000Y-100650000D01*
D52*
X180432300Y-84982300D02*
X180900000Y-85450000D01*
D49*
X215325000Y-88325000D02*
X216650000Y-89650000D01*
D52*
X180432300Y-84972300D02*
X179700000Y-84240000D01*
D47*
X164300291Y-83598400D02*
X162071810Y-83598400D01*
X165207500Y-84700000D02*
X165925000Y-84700000D01*
D46*
X183327500Y-95660000D02*
X183327500Y-94390000D01*
D47*
X166417478Y-80417478D02*
X166425000Y-80425000D01*
D51*
X212800000Y-76400000D02*
X213400000Y-75800000D01*
X212800000Y-79300000D02*
X212800000Y-76400000D01*
D52*
X185440000Y-85540000D02*
X186300000Y-85540000D01*
D49*
X214837500Y-85487500D02*
X215325000Y-85975000D01*
D47*
X162600000Y-79589662D02*
X162600000Y-78650000D01*
X165850000Y-83700000D02*
X164401891Y-83700000D01*
D49*
X233700000Y-63350000D02*
X233700000Y-81887500D01*
D51*
X178617500Y-82217500D02*
X177800000Y-82217500D01*
D52*
X167350000Y-79775000D02*
X175325000Y-79775000D01*
D51*
X216450000Y-75250000D02*
X217500000Y-75250000D01*
D49*
X225070000Y-100650000D02*
X228020000Y-97700000D01*
D52*
X179700000Y-84240000D02*
X179700000Y-81970000D01*
D49*
X233700000Y-81887500D02*
X231937500Y-83650000D01*
D47*
X164401891Y-83700000D02*
X164300291Y-83598400D01*
X162705127Y-79694789D02*
X162600000Y-79589662D01*
X178527100Y-86887500D02*
X180432300Y-84982300D01*
D49*
X220450000Y-100650000D02*
X225070000Y-100650000D01*
D47*
X183327500Y-75390000D02*
X184520000Y-75390000D01*
D49*
X216612500Y-91362500D02*
X216650000Y-91400000D01*
D51*
X167462500Y-78900000D02*
X167462500Y-80046500D01*
D49*
X213950000Y-85487500D02*
X214837500Y-85487500D01*
D47*
X165950000Y-83800000D02*
X165850000Y-83700000D01*
X184520000Y-75390000D02*
X186300000Y-77170000D01*
D49*
X231937500Y-83650000D02*
X233550000Y-85262500D01*
D52*
X180432300Y-84972300D02*
X180432300Y-84982300D01*
D47*
X212950000Y-70687500D02*
X212950000Y-67700000D01*
X222550000Y-56950000D02*
X223300000Y-56950000D01*
X224300000Y-55950000D02*
X224300000Y-53412500D01*
X223300000Y-56950000D02*
X224300000Y-55950000D01*
X202620000Y-54020000D02*
X217620000Y-54020000D01*
X217620000Y-54020000D02*
X218962500Y-55362500D01*
X223275000Y-55362500D02*
X223350000Y-55287500D01*
X218962500Y-55362500D02*
X223275000Y-55362500D01*
X161912500Y-67987500D02*
X161500000Y-68400000D01*
X161912500Y-66967400D02*
X161912500Y-67987500D01*
X161500000Y-68400000D02*
X159400000Y-68400000D01*
X158850000Y-68950000D02*
X158850000Y-74737500D01*
X158850000Y-74737500D02*
X160950000Y-76837500D01*
X159400000Y-68400000D02*
X158850000Y-68950000D01*
X224275000Y-49825000D02*
X224275000Y-48212500D01*
X224400000Y-49950000D02*
X224275000Y-49825000D01*
X214500000Y-70637500D02*
X214550000Y-70687500D01*
X214500000Y-67825000D02*
X214500000Y-70637500D01*
X195000000Y-54020000D02*
X195000000Y-51400000D01*
X195000000Y-51400000D02*
X196412500Y-49987500D01*
X223225000Y-49987500D02*
X223325000Y-50087500D01*
X223150000Y-49912500D02*
X223325000Y-50087500D01*
X196412500Y-49987500D02*
X223225000Y-49987500D01*
X216150000Y-70687500D02*
X216150000Y-67750000D01*
X225550000Y-50450000D02*
X225550000Y-47100000D01*
X225550000Y-47100000D02*
X224300000Y-45850000D01*
X224300000Y-45850000D02*
X224300000Y-43037500D01*
X192460000Y-54020000D02*
X192460000Y-52765000D01*
X223275000Y-44987500D02*
X223350000Y-44912500D01*
X192460000Y-52765000D02*
X200237500Y-44987500D01*
X200237500Y-44987500D02*
X223275000Y-44987500D01*
X224300000Y-40000000D02*
X224300000Y-37887500D01*
X225750000Y-41450000D02*
X224300000Y-40000000D01*
X225750000Y-45500000D02*
X225750000Y-41450000D01*
X217750000Y-70687500D02*
X217750000Y-67700000D01*
X184390000Y-43900000D02*
X167161250Y-43900000D01*
X188239958Y-47749958D02*
X184390000Y-43900000D01*
X223350000Y-39762500D02*
X223162500Y-39575000D01*
X211575000Y-37000000D02*
X214225000Y-39650000D01*
X190450000Y-37000000D02*
X211575000Y-37000000D01*
X189920000Y-38780000D02*
X189920000Y-37530000D01*
X223237500Y-39650000D02*
X223350000Y-39762500D01*
X189920000Y-37530000D02*
X190450000Y-37000000D01*
X214225000Y-39650000D02*
X223237500Y-39650000D01*
X183495000Y-47320000D02*
X167171250Y-47320000D01*
X189100000Y-49025000D02*
X185200000Y-49025000D01*
X185200000Y-49025000D02*
X183495000Y-47320000D01*
X165337500Y-59137500D02*
X165337500Y-57500000D01*
X175800000Y-69600000D02*
X165337500Y-59137500D01*
X202150000Y-69600000D02*
X175800000Y-69600000D01*
X205160000Y-72610000D02*
X202150000Y-69600000D01*
X205160000Y-73877500D02*
X205160000Y-72610000D01*
X184000000Y-100300000D02*
X201000000Y-100300000D01*
X202620000Y-98680000D02*
X202620000Y-97172500D01*
X179900000Y-96200000D02*
X184000000Y-100300000D01*
X167200000Y-84200000D02*
X167450000Y-83950000D01*
X174000000Y-80725000D02*
X174950000Y-81675000D01*
X174950000Y-81675000D02*
X174950000Y-90062500D01*
X179900000Y-91800000D02*
X179900000Y-96200000D01*
X174950000Y-90062500D02*
X174912500Y-90100000D01*
X168650000Y-80725000D02*
X174000000Y-80725000D01*
X178200000Y-90100000D02*
X179900000Y-91800000D01*
X167450000Y-83950000D02*
X167450000Y-81925000D01*
X166687500Y-84200000D02*
X167200000Y-84200000D01*
X174912500Y-90100000D02*
X178200000Y-90100000D01*
X167450000Y-81925000D02*
X168650000Y-80725000D01*
X201000000Y-100300000D02*
X202620000Y-98680000D01*
X225600000Y-79700000D02*
X224290000Y-81010000D01*
X226150000Y-74183494D02*
X226150000Y-72512500D01*
X225600000Y-76365799D02*
X225600000Y-79700000D01*
X224290000Y-81010000D02*
X222475000Y-81010000D01*
X224779601Y-75545400D02*
X225600000Y-76365799D01*
X156475000Y-77700000D02*
X156475000Y-68975000D01*
X158482600Y-66967400D02*
X160087500Y-66967400D01*
X157300000Y-78525000D02*
X156475000Y-77700000D01*
X156475000Y-68975000D02*
X158482600Y-66967400D01*
X161950000Y-96750000D02*
X157850000Y-96750000D01*
X161950000Y-96750000D02*
X161950000Y-99637500D01*
X161950000Y-99637500D02*
X162000000Y-99687500D01*
X224325000Y-86187500D02*
X222550000Y-86187500D01*
X224325000Y-86187500D02*
X225175000Y-85337500D01*
X228047500Y-83040000D02*
X231937500Y-79150000D01*
X226160000Y-83040000D02*
X228047500Y-83040000D01*
X225175000Y-85337500D02*
X225175000Y-83475000D01*
X225175000Y-83475000D02*
X225610000Y-83040000D01*
X225610000Y-83040000D02*
X226160000Y-83040000D01*
X217525000Y-82280000D02*
X219250000Y-82280000D01*
X224025000Y-74500000D02*
X222725000Y-73200000D01*
X217900000Y-93750000D02*
X217900000Y-83650000D01*
X226250000Y-76024293D02*
X224725707Y-74500000D01*
X224560000Y-81640000D02*
X226250000Y-79950000D01*
X222725000Y-73200000D02*
X222725000Y-72512500D01*
X217525000Y-83275000D02*
X217525000Y-82280000D01*
X206672500Y-94440000D02*
X217210000Y-94440000D01*
X224725707Y-74500000D02*
X224025000Y-74500000D01*
X217900000Y-83650000D02*
X217525000Y-83275000D01*
X219250000Y-82280000D02*
X219890000Y-81640000D01*
X226250000Y-79950000D02*
X226250000Y-76024293D01*
X219890000Y-81640000D02*
X224560000Y-81640000D01*
X217210000Y-94440000D02*
X217900000Y-93750000D01*
X221050000Y-73125000D02*
X221050000Y-72512500D01*
X224030000Y-80370000D02*
X224950000Y-79450000D01*
X224950000Y-77025000D02*
X221050000Y-73125000D01*
X213950000Y-78500000D02*
X213950000Y-82212500D01*
X224950000Y-79450000D02*
X224950000Y-77025000D01*
X217525000Y-79740000D02*
X215740000Y-79740000D01*
X216675000Y-87712500D02*
X216650000Y-87737500D01*
X217525000Y-79740000D02*
X219190000Y-79740000D01*
X214500000Y-78500000D02*
X213950000Y-78500000D01*
X215740000Y-79740000D02*
X214500000Y-78500000D01*
X209860000Y-77930000D02*
X206672500Y-77930000D01*
X216675000Y-84937500D02*
X216675000Y-87712500D01*
X219190000Y-79740000D02*
X219820000Y-80370000D01*
X219820000Y-80370000D02*
X224030000Y-80370000D01*
X213950000Y-82212500D02*
X216675000Y-84937500D01*
X200278200Y-99671800D02*
X184221884Y-99671800D01*
X201350000Y-97172500D02*
X201350000Y-98600000D01*
X201350000Y-98600000D02*
X200278200Y-99671800D01*
X184221884Y-99671800D02*
X183300042Y-98749958D01*
X162812500Y-101512500D02*
X162000000Y-101512500D01*
X182100000Y-99500000D02*
X180650000Y-99500000D01*
X180650000Y-99500000D02*
X175200000Y-104950000D01*
X175200000Y-104950000D02*
X166250000Y-104950000D01*
X166250000Y-104950000D02*
X162812500Y-101512500D01*
X212950000Y-72512500D02*
X212034300Y-72512500D01*
X210225000Y-79200000D02*
X206672500Y-79200000D01*
X210750000Y-78675000D02*
X210225000Y-79200000D01*
X210750000Y-73796800D02*
X210750000Y-78675000D01*
X212034300Y-72512500D02*
X210750000Y-73796800D01*
X208567748Y-75390000D02*
X206672500Y-75390000D01*
X220088400Y-79138400D02*
X220690000Y-79740000D01*
X214000000Y-77100000D02*
X216038400Y-79138400D01*
X222475000Y-79740000D02*
X222485000Y-79750000D01*
X219350000Y-73275000D02*
X219350000Y-72512500D01*
X209877748Y-76700000D02*
X208567748Y-75390000D01*
X224300000Y-77375000D02*
X221075000Y-74150000D01*
X216038400Y-79138400D02*
X220088400Y-79138400D01*
X224300000Y-79200000D02*
X224300000Y-77375000D01*
X220225000Y-74150000D02*
X219350000Y-73275000D01*
X221075000Y-74150000D02*
X220225000Y-74150000D01*
X222485000Y-79750000D02*
X223750000Y-79750000D01*
X223750000Y-79750000D02*
X224300000Y-79200000D01*
X220690000Y-79740000D02*
X222475000Y-79740000D01*
X159300042Y-80849958D02*
X158600000Y-80149916D01*
D53*
X163425000Y-90225000D02*
X165500000Y-92300000D01*
D47*
X167512500Y-87012500D02*
X166687500Y-86187500D01*
X165695000Y-85200000D02*
X165930000Y-85435000D01*
X158600000Y-80149916D02*
X158600000Y-78525000D01*
X166687500Y-86187500D02*
X166687500Y-85700000D01*
X167512500Y-87300000D02*
X167512500Y-87012500D01*
D53*
X163425000Y-86675000D02*
X163425000Y-90225000D01*
D47*
X170400000Y-90100000D02*
X167950000Y-92550000D01*
X162500000Y-84250000D02*
X162500000Y-84750000D01*
D53*
X163450000Y-85700000D02*
X163425000Y-85725000D01*
D47*
X163425000Y-86045152D02*
X163425000Y-86675000D01*
D53*
X163425000Y-85725000D02*
X163425000Y-86675000D01*
D47*
X173087500Y-90100000D02*
X170400000Y-90100000D01*
X166095000Y-85700000D02*
X166687500Y-85700000D01*
X165930000Y-85435000D02*
X165930000Y-85535000D01*
X165930000Y-85535000D02*
X166095000Y-85700000D01*
X165207500Y-85200000D02*
X165695000Y-85200000D01*
X162500000Y-84750000D02*
X163450000Y-85700000D01*
X167600000Y-74912500D02*
X168487500Y-74912500D01*
X168487500Y-74912500D02*
X170185000Y-76610000D01*
X170185000Y-76610000D02*
X183327500Y-76610000D01*
X162600000Y-76000000D02*
X162600000Y-76825000D01*
X160087500Y-72450000D02*
X160087500Y-73487500D01*
X160087500Y-73487500D02*
X162600000Y-76000000D01*
X226900000Y-80250000D02*
X226900000Y-75925000D01*
X224400000Y-73425000D02*
X224400000Y-72512500D01*
X219450000Y-85900000D02*
X219450000Y-87837500D01*
X224870000Y-82280000D02*
X226900000Y-80250000D01*
X222475000Y-82280000D02*
X224870000Y-82280000D01*
X226900000Y-75925000D02*
X224400000Y-73425000D01*
X222475000Y-82875000D02*
X219450000Y-85900000D01*
X222475000Y-82280000D02*
X222475000Y-82875000D01*
D52*
X173800000Y-84490000D02*
X173800000Y-83650000D01*
X171290000Y-87000000D02*
X173800000Y-84490000D01*
D47*
X211200000Y-79100000D02*
X211200000Y-74350000D01*
X214550000Y-73162500D02*
X214550000Y-72512500D01*
X211975000Y-73575000D02*
X214137500Y-73575000D01*
X211200000Y-74350000D02*
X211975000Y-73575000D01*
X214137500Y-73575000D02*
X214550000Y-73162500D01*
X209830000Y-80470000D02*
X211200000Y-79100000D01*
X206672500Y-80470000D02*
X209830000Y-80470000D01*
X209510000Y-81740000D02*
X211650000Y-79600000D01*
X211650000Y-79600000D02*
X211650000Y-75025000D01*
X206672500Y-81740000D02*
X209510000Y-81740000D01*
X216150000Y-73237500D02*
X216150000Y-72512500D01*
X211650000Y-75025000D02*
X212475000Y-74200000D01*
X215187500Y-74200000D02*
X216150000Y-73237500D01*
X212475000Y-74200000D02*
X215187500Y-74200000D01*
X165700000Y-86600000D02*
X165700000Y-87287500D01*
X165700000Y-87287500D02*
X165687500Y-87300000D01*
X165207500Y-86107500D02*
X165700000Y-86600000D01*
X165687500Y-88825000D02*
X165687500Y-87300000D01*
X165207500Y-85700000D02*
X165207500Y-86107500D01*
X212109600Y-80640400D02*
X209740000Y-83010000D01*
X217737500Y-72512500D02*
X215375000Y-74875000D01*
X212109600Y-75715400D02*
X212109600Y-80640400D01*
X215375000Y-74875000D02*
X212950000Y-74875000D01*
X217750000Y-72512500D02*
X217737500Y-72512500D01*
X209740000Y-83010000D02*
X206672500Y-83010000D01*
X212950000Y-74875000D02*
X212109600Y-75715400D01*
X183200000Y-73600000D02*
X180450000Y-73600000D01*
X180450000Y-73600000D02*
X179699000Y-72849000D01*
X162925000Y-43900000D02*
X165337500Y-43900000D01*
X179699000Y-72849000D02*
X173049000Y-72849000D01*
X159200000Y-59000000D02*
X159200000Y-47625000D01*
X201330000Y-84230000D02*
X197075000Y-79975000D01*
X159200000Y-47625000D02*
X162925000Y-43900000D01*
X191425000Y-79975000D02*
X187050000Y-75600000D01*
X173049000Y-72849000D02*
X159200000Y-59000000D01*
X206672500Y-84230000D02*
X201330000Y-84230000D01*
X197075000Y-79975000D02*
X191425000Y-79975000D01*
X159800000Y-48850000D02*
X163050000Y-45600000D01*
X159800000Y-58800000D02*
X159800000Y-48850000D01*
X196270000Y-72661800D02*
X196030600Y-72422400D01*
X173422400Y-72422400D02*
X159800000Y-58800000D01*
X163050000Y-45600000D02*
X165337500Y-45600000D01*
X196030600Y-72422400D02*
X173422400Y-72422400D01*
X196270000Y-73827500D02*
X196270000Y-72661800D01*
X197540000Y-73877500D02*
X197540000Y-72565210D01*
X173819200Y-72019200D02*
X160400000Y-58600000D01*
X197540000Y-72565210D02*
X196993990Y-72019200D01*
X160400000Y-50050000D02*
X163150000Y-47300000D01*
X160400000Y-58600000D02*
X160400000Y-50050000D01*
X163150000Y-47300000D02*
X165337500Y-47300000D01*
X196993990Y-72019200D02*
X173819200Y-72019200D01*
X198810000Y-72610000D02*
X197816000Y-71616000D01*
X163175000Y-49000000D02*
X165337500Y-49000000D01*
X161000000Y-51175000D02*
X163175000Y-49000000D01*
X161000000Y-58525525D02*
X161000000Y-51175000D01*
X197816000Y-71616000D02*
X174090475Y-71616000D01*
X174090475Y-71616000D02*
X161000000Y-58525525D01*
X198810000Y-73877500D02*
X198810000Y-72610000D01*
X163300000Y-50700000D02*
X165337500Y-50700000D01*
X200080000Y-73877500D02*
X200080000Y-72630000D01*
X200080000Y-72630000D02*
X198662800Y-71212800D01*
X161600000Y-52400000D02*
X163300000Y-50700000D01*
X198662800Y-71212800D02*
X174412800Y-71212800D01*
X174412800Y-71212800D02*
X161600000Y-58400000D01*
X161600000Y-58400000D02*
X161600000Y-52400000D01*
X162200000Y-58255315D02*
X162200000Y-53675000D01*
X199559600Y-70809600D02*
X174754285Y-70809600D01*
X163475000Y-52400000D02*
X165337500Y-52400000D01*
X174754285Y-70809600D02*
X162200000Y-58255315D01*
X162200000Y-53675000D02*
X163475000Y-52400000D01*
X201350000Y-72600000D02*
X199559600Y-70809600D01*
X201350000Y-73877500D02*
X201350000Y-72600000D01*
X202620000Y-73877500D02*
X202620000Y-72620000D01*
X175036190Y-70406400D02*
X162800000Y-58170210D01*
X163600000Y-54100000D02*
X165337500Y-54100000D01*
X202620000Y-72620000D02*
X200406400Y-70406400D01*
X162800000Y-54900000D02*
X163600000Y-54100000D01*
X200406400Y-70406400D02*
X175036190Y-70406400D01*
X162800000Y-58170210D02*
X162800000Y-54900000D01*
X203890000Y-72640000D02*
X201253200Y-70003200D01*
X163400000Y-58000000D02*
X163400000Y-56550000D01*
X175403200Y-70003200D02*
X163400000Y-58000000D01*
X203890000Y-73877500D02*
X203890000Y-72640000D01*
X163400000Y-56550000D02*
X164150000Y-55800000D01*
X164150000Y-55800000D02*
X165337500Y-55800000D01*
X201253200Y-70003200D02*
X175403200Y-70003200D01*
X157950000Y-77975000D02*
X158600000Y-77325000D01*
X157950000Y-80787500D02*
X157950000Y-77975000D01*
X156837500Y-81900000D02*
X157950000Y-80787500D01*
X158600000Y-77325000D02*
X158600000Y-76625000D01*
X156837500Y-81900000D02*
X156837500Y-83550000D01*
D51*
X171862500Y-84250000D02*
X169637500Y-84250000D01*
D47*
X164875000Y-83075000D02*
X162025000Y-83075000D01*
X168175000Y-83450000D02*
X169112500Y-84387500D01*
X162025000Y-83075000D02*
X161050000Y-84050000D01*
X160300000Y-84050000D02*
X159900000Y-83650000D01*
D51*
X168700000Y-85200000D02*
X167625000Y-85200000D01*
D47*
X159900000Y-83650000D02*
X159900000Y-83137500D01*
D51*
X169500000Y-84387500D02*
X169500000Y-84400000D01*
X169500000Y-84400000D02*
X168700000Y-85200000D01*
D47*
X169112500Y-84387500D02*
X169500000Y-84387500D01*
X158662500Y-81900000D02*
X158612500Y-81900000D01*
X159900000Y-83137500D02*
X158662500Y-81900000D01*
X161050000Y-84050000D02*
X160300000Y-84050000D01*
D51*
X169637500Y-84250000D02*
X169500000Y-84387500D01*
D47*
X230700000Y-64335000D02*
X227115000Y-64335000D01*
X227115000Y-64335000D02*
X226150000Y-65300000D01*
X226150000Y-65300000D02*
X226150000Y-70687500D01*
X183125000Y-45600000D02*
X185950000Y-48425000D01*
X185950000Y-48425000D02*
X188475000Y-48425000D01*
X188475000Y-48425000D02*
X192460000Y-44440000D01*
X192460000Y-44440000D02*
X192460000Y-38780000D01*
X167162500Y-45600000D02*
X183125000Y-45600000D01*
X193835000Y-40590000D02*
X193025000Y-41400000D01*
X193025000Y-41400000D02*
X193025000Y-46275000D01*
X202620000Y-40080000D02*
X202110000Y-40590000D01*
X202620000Y-38780000D02*
X202620000Y-40080000D01*
X193025000Y-46275000D02*
X189600000Y-49700000D01*
X189600000Y-49700000D02*
X184825000Y-49700000D01*
X167187500Y-49025000D02*
X167162500Y-49000000D01*
X184825000Y-49700000D02*
X184150000Y-49025000D01*
X202110000Y-40590000D02*
X193835000Y-40590000D01*
X184150000Y-49025000D02*
X167187500Y-49025000D01*
X226225000Y-94575000D02*
X227525000Y-94575000D01*
X224162500Y-94575000D02*
X226225000Y-94575000D01*
X227525000Y-94575000D02*
X228250000Y-95300000D01*
X228250000Y-95300000D02*
X230862500Y-95300000D01*
X224200000Y-94762500D02*
X222425000Y-94762500D01*
X230862500Y-95300000D02*
X231887500Y-94275000D01*
X190225000Y-50350000D02*
X184325000Y-50350000D01*
X194300000Y-41350000D02*
X193775000Y-41875000D01*
X193775000Y-41875000D02*
X193775000Y-46800000D01*
X183975000Y-50700000D02*
X167162500Y-50700000D01*
X200040000Y-41350000D02*
X194300000Y-41350000D01*
X184325000Y-50350000D02*
X183975000Y-50700000D01*
X193775000Y-46800000D02*
X190225000Y-50350000D01*
X200080000Y-41310000D02*
X200040000Y-41350000D01*
X183360000Y-52410000D02*
X167162500Y-52410000D01*
X195000000Y-47125000D02*
X191100000Y-51025000D01*
X184745000Y-51025000D02*
X183360000Y-52410000D01*
X191100000Y-51025000D02*
X184745000Y-51025000D01*
X195000000Y-42600000D02*
X195000000Y-47125000D01*
X167162500Y-54090000D02*
X167184100Y-54111600D01*
X189920000Y-52770000D02*
X189920000Y-54020000D01*
X189425000Y-52275000D02*
X189920000Y-52770000D01*
X184288400Y-54111600D02*
X186125000Y-52275000D01*
X186125000Y-52275000D02*
X189425000Y-52275000D01*
X167184100Y-54111600D02*
X184288400Y-54111600D01*
X167162500Y-55820000D02*
X168430000Y-55820000D01*
X168430000Y-55820000D02*
X169550000Y-54700000D01*
X169550000Y-54700000D02*
X184680000Y-54700000D01*
X200080000Y-55270000D02*
X200080000Y-54020000D01*
X184680000Y-54700000D02*
X185780000Y-55800000D01*
X185780000Y-55800000D02*
X199550000Y-55800000D01*
X199550000Y-55800000D02*
X200080000Y-55270000D01*
X185175000Y-51625000D02*
X183290000Y-53510000D01*
X192175000Y-51625000D02*
X185175000Y-51625000D01*
X197540000Y-46260000D02*
X192175000Y-51625000D01*
X167162500Y-57500000D02*
X168275000Y-57500000D01*
X197540000Y-42160000D02*
X197540000Y-46260000D01*
X168275000Y-57500000D02*
X170425000Y-55350000D01*
X170425000Y-55350000D02*
X183280000Y-55350000D01*
X178687500Y-88712500D02*
X181025800Y-91050800D01*
X181025800Y-96025800D02*
X182172500Y-97172500D01*
X181025800Y-91050800D02*
X181025800Y-96025800D01*
X182172500Y-97172500D02*
X184840000Y-97172500D01*
X177075000Y-88712500D02*
X178687500Y-88712500D01*
X163150000Y-93500000D02*
X163150000Y-100800000D01*
X161912500Y-73562500D02*
X161912500Y-72450000D01*
X188650000Y-98550000D02*
X188650000Y-97172500D01*
X183500000Y-97950000D02*
X184475000Y-98925000D01*
X166750000Y-104400000D02*
X174450000Y-104400000D01*
X159912853Y-81637147D02*
X161050000Y-80500000D01*
X184475000Y-98925000D02*
X188275000Y-98925000D01*
X188275000Y-98925000D02*
X188650000Y-98550000D01*
X182850000Y-97950000D02*
X183500000Y-97950000D01*
X163150000Y-100800000D02*
X166750000Y-104400000D01*
X161900000Y-92250000D02*
X163150000Y-93500000D01*
X163675000Y-79575000D02*
X163675000Y-75325000D01*
X161050000Y-80500000D02*
X162750000Y-80500000D01*
X180025000Y-98825000D02*
X181600000Y-98825000D01*
X163675000Y-75325000D02*
X161912500Y-73562500D01*
X162750000Y-80500000D02*
X163675000Y-79575000D01*
X161900000Y-85000000D02*
X161900000Y-92250000D01*
X174450000Y-104400000D02*
X180025000Y-98825000D01*
X208565000Y-95710000D02*
X209200000Y-95075000D01*
X211576400Y-91462500D02*
X212812500Y-91462500D01*
X209200000Y-93838900D02*
X211576400Y-91462500D01*
X218700000Y-92550000D02*
X219450000Y-91800000D01*
X214825000Y-91400000D02*
X212575000Y-91400000D01*
X219450000Y-89662500D02*
X219450000Y-91800000D01*
X214800000Y-92600000D02*
X214825000Y-92575000D01*
X214825000Y-92575000D02*
X214825000Y-91400000D01*
X206672500Y-95710000D02*
X208565000Y-95710000D01*
X160650000Y-87262500D02*
X160400000Y-87012500D01*
X160650000Y-96000000D02*
X160650000Y-87262500D01*
X226470210Y-59400000D02*
X228015000Y-59400000D01*
X225800000Y-60400000D02*
X225800000Y-60070210D01*
X228015000Y-59400000D02*
X230700000Y-56715000D01*
X222725000Y-63325000D02*
X225650000Y-60400000D01*
X225650000Y-60400000D02*
X225800000Y-60400000D01*
X222725000Y-70687500D02*
X222725000Y-63325000D01*
X225800000Y-60070210D02*
X226470210Y-59400000D01*
X227100000Y-61550000D02*
X227100000Y-60400000D01*
X227100000Y-60400000D02*
X229555000Y-60400000D01*
X224400000Y-70687500D02*
X224400000Y-64250000D01*
X229555000Y-60400000D02*
X230700000Y-59255000D01*
X224400000Y-64250000D02*
X227100000Y-61550000D01*
X225200000Y-59450000D02*
X225850000Y-59450000D01*
X221050000Y-63600000D02*
X225200000Y-59450000D01*
X227100000Y-58500000D02*
X227100000Y-57775000D01*
X225850000Y-59450000D02*
X226800000Y-58500000D01*
X226800000Y-58500000D02*
X227100000Y-58500000D01*
X227100000Y-57775000D02*
X230700000Y-54175000D01*
X221050000Y-70687500D02*
X221050000Y-63600000D01*
X225800000Y-56535000D02*
X230700000Y-51635000D01*
X224700000Y-58500000D02*
X225800000Y-58500000D01*
X219350000Y-70687500D02*
X219350000Y-63850000D01*
X219350000Y-63850000D02*
X224700000Y-58500000D01*
X225800000Y-58500000D02*
X225800000Y-56535000D01*
G04 #@! TA.AperFunction,Conductor*
G36*
X166892183Y-80018907D02*
G01*
X166903996Y-80028996D01*
X167046004Y-80171004D01*
X167073781Y-80225521D01*
X167075000Y-80241008D01*
X167075000Y-83058618D01*
X167056093Y-83116809D01*
X167045550Y-83129072D01*
X166904465Y-83268348D01*
X166849771Y-83295773D01*
X166833638Y-83296886D01*
X165765614Y-83283104D01*
X165707672Y-83263447D01*
X165696437Y-83253663D01*
X165553546Y-83108917D01*
X165526121Y-83054222D01*
X165525000Y-83039366D01*
X165525000Y-82991129D01*
X165534272Y-82962593D01*
X165537500Y-82942211D01*
X165537500Y-82934320D01*
X166137500Y-82934320D01*
X166141622Y-82947005D01*
X166145743Y-82950000D01*
X166214743Y-82950000D01*
X166220699Y-82949641D01*
X166301113Y-82939910D01*
X166313340Y-82936805D01*
X166441260Y-82886158D01*
X166452913Y-82879592D01*
X166562186Y-82796648D01*
X166571648Y-82787186D01*
X166654592Y-82677913D01*
X166661158Y-82666260D01*
X166711805Y-82538340D01*
X166714910Y-82526113D01*
X166724641Y-82445699D01*
X166725000Y-82439743D01*
X166725000Y-82240680D01*
X166720878Y-82227995D01*
X166716757Y-82225000D01*
X166153180Y-82225000D01*
X166140495Y-82229122D01*
X166137500Y-82233243D01*
X166137500Y-82934320D01*
X165537500Y-82934320D01*
X165537500Y-81609320D01*
X166137500Y-81609320D01*
X166141622Y-81622005D01*
X166145743Y-81625000D01*
X166709320Y-81625000D01*
X166722005Y-81620878D01*
X166725000Y-81616757D01*
X166725000Y-81410257D01*
X166724641Y-81404301D01*
X166714910Y-81323887D01*
X166711805Y-81311660D01*
X166661158Y-81183740D01*
X166654592Y-81172087D01*
X166571648Y-81062814D01*
X166562186Y-81053352D01*
X166452913Y-80970408D01*
X166441260Y-80963842D01*
X166313340Y-80913195D01*
X166301113Y-80910090D01*
X166220699Y-80900359D01*
X166214743Y-80900000D01*
X166153180Y-80900000D01*
X166140495Y-80904122D01*
X166137500Y-80908243D01*
X166137500Y-81609320D01*
X165537500Y-81609320D01*
X165537500Y-80915680D01*
X165529845Y-80892120D01*
X165525000Y-80861528D01*
X165525000Y-80241008D01*
X165543907Y-80182817D01*
X165553996Y-80171004D01*
X165696004Y-80028996D01*
X165750521Y-80001219D01*
X165766008Y-80000000D01*
X166833992Y-80000000D01*
X166892183Y-80018907D01*
G37*
G04 #@! TD.AperFunction*
G04 #@! TA.AperFunction,Conductor*
G36*
X178503182Y-92400419D02*
G01*
X178623018Y-92416195D01*
X178635370Y-92419506D01*
X178744041Y-92464519D01*
X178755115Y-92470912D01*
X178848438Y-92542522D01*
X178857478Y-92551562D01*
X178929088Y-92644885D01*
X178935483Y-92655962D01*
X178980494Y-92764629D01*
X178983805Y-92776982D01*
X178987211Y-92802855D01*
X178999581Y-92896817D01*
X179000000Y-92903213D01*
X179000000Y-96396787D01*
X178999581Y-96403183D01*
X178983805Y-96523016D01*
X178980494Y-96535370D01*
X178943946Y-96623607D01*
X178935483Y-96644038D01*
X178929088Y-96655115D01*
X178857478Y-96748438D01*
X178848438Y-96757478D01*
X178755115Y-96829088D01*
X178744041Y-96835481D01*
X178644050Y-96876899D01*
X178635371Y-96880494D01*
X178623018Y-96883805D01*
X178503183Y-96899581D01*
X178496787Y-96900000D01*
X177203858Y-96900000D01*
X177196193Y-96899397D01*
X177084058Y-96881637D01*
X177069477Y-96876899D01*
X176971800Y-96827130D01*
X176959398Y-96818119D01*
X176881881Y-96740602D01*
X176872870Y-96728200D01*
X176823101Y-96630523D01*
X176818363Y-96615942D01*
X176800000Y-96499999D01*
X176800000Y-96100000D01*
X173053213Y-96100000D01*
X173046817Y-96099581D01*
X172926982Y-96083805D01*
X172914629Y-96080494D01*
X172805959Y-96035481D01*
X172794885Y-96029088D01*
X172701562Y-95957478D01*
X172692520Y-95948435D01*
X172620914Y-95855116D01*
X172618494Y-95850925D01*
X172616575Y-95849006D01*
X172592238Y-95790252D01*
X173155000Y-95790252D01*
X173157855Y-95797144D01*
X173164747Y-95799999D01*
X173484556Y-95799999D01*
X173488379Y-95799698D01*
X173576342Y-95785768D01*
X173583582Y-95783415D01*
X173689611Y-95729391D01*
X173695771Y-95724915D01*
X173779915Y-95640771D01*
X173784391Y-95634611D01*
X173838415Y-95528582D01*
X173840768Y-95521342D01*
X173854699Y-95433379D01*
X173855000Y-95429557D01*
X173855000Y-94789686D01*
X174025000Y-94789686D01*
X174025075Y-94791594D01*
X174027704Y-94824998D01*
X174028598Y-94829894D01*
X174072857Y-94982233D01*
X174075290Y-94987856D01*
X174155744Y-95123896D01*
X174159502Y-95128741D01*
X174271259Y-95240498D01*
X174276104Y-95244256D01*
X174412144Y-95324710D01*
X174417767Y-95327143D01*
X174570106Y-95371402D01*
X174575002Y-95372296D01*
X174608406Y-95374925D01*
X174610314Y-95375000D01*
X175015253Y-95375000D01*
X175022145Y-95372145D01*
X175025000Y-95365253D01*
X175625000Y-95365253D01*
X175627855Y-95372145D01*
X175634747Y-95375000D01*
X176039686Y-95375000D01*
X176041594Y-95374925D01*
X176074998Y-95372296D01*
X176079894Y-95371402D01*
X176232233Y-95327143D01*
X176237856Y-95324710D01*
X176373896Y-95244256D01*
X176378741Y-95240498D01*
X176490498Y-95128741D01*
X176494256Y-95123896D01*
X176574710Y-94987856D01*
X176577143Y-94982233D01*
X176621402Y-94829894D01*
X176622296Y-94824998D01*
X176624925Y-94791594D01*
X176625000Y-94789686D01*
X176625000Y-94622247D01*
X176622145Y-94615355D01*
X176615253Y-94612500D01*
X175634747Y-94612500D01*
X175627855Y-94615355D01*
X175625000Y-94622247D01*
X175625000Y-95365253D01*
X175025000Y-95365253D01*
X175025000Y-94622247D01*
X175022145Y-94615355D01*
X175015253Y-94612500D01*
X174034747Y-94612500D01*
X174027855Y-94615355D01*
X174025000Y-94622247D01*
X174025000Y-94789686D01*
X173855000Y-94789686D01*
X173855000Y-94609747D01*
X173852145Y-94602855D01*
X173845253Y-94600000D01*
X173164747Y-94600000D01*
X173157855Y-94602855D01*
X173155000Y-94609747D01*
X173155000Y-95790252D01*
X172592238Y-95790252D01*
X172567037Y-95729410D01*
X172555000Y-95637979D01*
X172555000Y-94002753D01*
X174025000Y-94002753D01*
X174027855Y-94009645D01*
X174034747Y-94012500D01*
X175015253Y-94012500D01*
X175022145Y-94009645D01*
X175025000Y-94002753D01*
X175625000Y-94002753D01*
X175627855Y-94009645D01*
X175634747Y-94012500D01*
X176615253Y-94012500D01*
X176622145Y-94009645D01*
X176625000Y-94002753D01*
X176625000Y-93835314D01*
X176624925Y-93833406D01*
X176622296Y-93800002D01*
X176621402Y-93795106D01*
X176577143Y-93642767D01*
X176574710Y-93637144D01*
X176494256Y-93501104D01*
X176490498Y-93496259D01*
X176378741Y-93384502D01*
X176373896Y-93380744D01*
X176237856Y-93300290D01*
X176232233Y-93297857D01*
X176079894Y-93253598D01*
X176074998Y-93252704D01*
X176041594Y-93250075D01*
X176039686Y-93250000D01*
X175634747Y-93250000D01*
X175627855Y-93252855D01*
X175625000Y-93259747D01*
X175625000Y-94002753D01*
X175025000Y-94002753D01*
X175025000Y-93259747D01*
X175022145Y-93252855D01*
X175015253Y-93250000D01*
X174610314Y-93250000D01*
X174608406Y-93250075D01*
X174575002Y-93252704D01*
X174570106Y-93253598D01*
X174417767Y-93297857D01*
X174412144Y-93300290D01*
X174276104Y-93380744D01*
X174271259Y-93384502D01*
X174159502Y-93496259D01*
X174155744Y-93501104D01*
X174075290Y-93637144D01*
X174072857Y-93642767D01*
X174028598Y-93795106D01*
X174027704Y-93800002D01*
X174025075Y-93833406D01*
X174025000Y-93835314D01*
X174025000Y-94002753D01*
X172555000Y-94002753D01*
X172555000Y-93990253D01*
X173155000Y-93990253D01*
X173157855Y-93997145D01*
X173164747Y-94000000D01*
X173845252Y-94000000D01*
X173852144Y-93997145D01*
X173854999Y-93990253D01*
X173854999Y-93170444D01*
X173854698Y-93166621D01*
X173840768Y-93078658D01*
X173838415Y-93071418D01*
X173784391Y-92965389D01*
X173779915Y-92959229D01*
X173695771Y-92875085D01*
X173689611Y-92870609D01*
X173583582Y-92816585D01*
X173576342Y-92814232D01*
X173488379Y-92800301D01*
X173484557Y-92800000D01*
X173164747Y-92800000D01*
X173157855Y-92802855D01*
X173155000Y-92809747D01*
X173155000Y-93990253D01*
X172555000Y-93990253D01*
X172555000Y-92862021D01*
X172567037Y-92770590D01*
X172606172Y-92676110D01*
X172614518Y-92655961D01*
X172620914Y-92644884D01*
X172692520Y-92551565D01*
X172701562Y-92542522D01*
X172794885Y-92470912D01*
X172805959Y-92464519D01*
X172914630Y-92419506D01*
X172926982Y-92416195D01*
X173046818Y-92400419D01*
X173053213Y-92400000D01*
X178496787Y-92400000D01*
X178503182Y-92400419D01*
G37*
G04 #@! TD.AperFunction*
G04 #@! TA.AperFunction,Conductor*
G36*
X214046288Y-83798954D02*
G01*
X214127070Y-83852930D01*
X214181046Y-83933712D01*
X214200000Y-84029000D01*
X214200000Y-85488500D01*
X214181046Y-85583788D01*
X214127070Y-85664570D01*
X214046288Y-85718546D01*
X213951000Y-85737500D01*
X211324528Y-85737500D01*
X211304070Y-85741569D01*
X211295217Y-85786078D01*
X211293107Y-85785658D01*
X211281047Y-85846288D01*
X211227071Y-85927070D01*
X211146289Y-85981046D01*
X211051001Y-86000000D01*
X210499000Y-86000000D01*
X210403712Y-85981046D01*
X210322930Y-85927070D01*
X210268954Y-85846288D01*
X210250000Y-85751000D01*
X210250000Y-85212973D01*
X211300000Y-85212973D01*
X211304069Y-85233431D01*
X211324527Y-85237500D01*
X212000473Y-85237500D01*
X212020931Y-85233431D01*
X212025000Y-85212973D01*
X212525000Y-85212973D01*
X212529069Y-85233431D01*
X212549527Y-85237500D01*
X213675473Y-85237500D01*
X213695931Y-85233431D01*
X213700000Y-85212973D01*
X213700000Y-84474528D01*
X213695931Y-84454070D01*
X213675473Y-84450001D01*
X213669937Y-84450001D01*
X213657088Y-84450666D01*
X213574205Y-84459264D01*
X213547734Y-84464982D01*
X213411244Y-84510518D01*
X213385225Y-84522706D01*
X213251285Y-84605591D01*
X213250205Y-84603846D01*
X213180696Y-84639494D01*
X213083861Y-84647372D01*
X212991382Y-84617594D01*
X212965829Y-84600552D01*
X212838618Y-84522138D01*
X212812574Y-84509993D01*
X212675976Y-84464685D01*
X212649548Y-84459020D01*
X212567827Y-84450648D01*
X212555157Y-84450000D01*
X212549527Y-84450000D01*
X212529069Y-84454069D01*
X212525000Y-84474527D01*
X212525000Y-85212973D01*
X212025000Y-85212973D01*
X212025000Y-84474528D01*
X212020931Y-84454070D01*
X212000473Y-84450001D01*
X211994937Y-84450001D01*
X211982088Y-84450666D01*
X211899205Y-84459264D01*
X211872734Y-84464982D01*
X211736244Y-84510518D01*
X211710225Y-84522706D01*
X211588583Y-84597981D01*
X211566067Y-84615827D01*
X211465009Y-84717061D01*
X211447195Y-84739617D01*
X211372138Y-84861382D01*
X211359993Y-84887426D01*
X211314685Y-85024024D01*
X211309020Y-85050452D01*
X211300648Y-85132173D01*
X211300000Y-85144843D01*
X211300000Y-85212973D01*
X210250000Y-85212973D01*
X210250000Y-84029000D01*
X210268954Y-83933712D01*
X210322930Y-83852930D01*
X210403712Y-83798954D01*
X210499000Y-83780000D01*
X213951000Y-83780000D01*
X214046288Y-83798954D01*
G37*
G04 #@! TD.AperFunction*
G04 #@! TA.AperFunction,Conductor*
G36*
X167704843Y-91800477D02*
G01*
X167885388Y-91818259D01*
X167904418Y-91822045D01*
X167988886Y-91847667D01*
X168073353Y-91873290D01*
X168091283Y-91880717D01*
X168246969Y-91963933D01*
X168263106Y-91974715D01*
X168399573Y-92086710D01*
X168413290Y-92100427D01*
X168480102Y-92181837D01*
X168525285Y-92236894D01*
X168536067Y-92253031D01*
X168619283Y-92408717D01*
X168626710Y-92426647D01*
X168677955Y-92595580D01*
X168681741Y-92614614D01*
X168699143Y-92791296D01*
X168686031Y-92851060D01*
X168640294Y-92891703D01*
X168625477Y-92894802D01*
X168625592Y-92895155D01*
X168597995Y-92904122D01*
X168595000Y-92908243D01*
X168595000Y-95536714D01*
X168531470Y-95655570D01*
X168413290Y-95799573D01*
X168399573Y-95813290D01*
X168318163Y-95880102D01*
X168263106Y-95925285D01*
X168246969Y-95936067D01*
X168091283Y-96019283D01*
X168073353Y-96026710D01*
X167988886Y-96052333D01*
X167904418Y-96077955D01*
X167885388Y-96081741D01*
X167704843Y-96099523D01*
X167695139Y-96100000D01*
X166004861Y-96100000D01*
X165995157Y-96099523D01*
X165814612Y-96081741D01*
X165795582Y-96077955D01*
X165711114Y-96052333D01*
X165626647Y-96026710D01*
X165608717Y-96019283D01*
X165453031Y-95936067D01*
X165436894Y-95925285D01*
X165381837Y-95880102D01*
X165300427Y-95813290D01*
X165286710Y-95799573D01*
X165174715Y-95663106D01*
X165163933Y-95646969D01*
X165080717Y-95491283D01*
X165073290Y-95473353D01*
X165063670Y-95441639D01*
X167395000Y-95441639D01*
X167395346Y-95447485D01*
X167397234Y-95463353D01*
X167401128Y-95477519D01*
X167439770Y-95564514D01*
X167449946Y-95579321D01*
X167516108Y-95645367D01*
X167530931Y-95655517D01*
X167617980Y-95694000D01*
X167632185Y-95697873D01*
X167647580Y-95699668D01*
X167653292Y-95700000D01*
X167979320Y-95700000D01*
X167992005Y-95695878D01*
X167995000Y-95691757D01*
X167995000Y-94615680D01*
X167990878Y-94602995D01*
X167986757Y-94600000D01*
X167410680Y-94600000D01*
X167397995Y-94604122D01*
X167395000Y-94608243D01*
X167395000Y-95441639D01*
X165063670Y-95441639D01*
X165022045Y-95304420D01*
X165018259Y-95285386D01*
X165011111Y-95212811D01*
X165024223Y-95153047D01*
X165029541Y-95144916D01*
X165050000Y-95116757D01*
X165050000Y-95109320D01*
X165650000Y-95109320D01*
X165654122Y-95122005D01*
X165658243Y-95125000D01*
X166314741Y-95124999D01*
X166320699Y-95124640D01*
X166401113Y-95114910D01*
X166413337Y-95111805D01*
X166541260Y-95061157D01*
X166552912Y-95054592D01*
X166662182Y-94971651D01*
X166671651Y-94962182D01*
X166754592Y-94852912D01*
X166761157Y-94841260D01*
X166811805Y-94713339D01*
X166814910Y-94701112D01*
X166824641Y-94620698D01*
X166825000Y-94614742D01*
X166825000Y-94390680D01*
X166820878Y-94377995D01*
X166816757Y-94375000D01*
X165665680Y-94375000D01*
X165652995Y-94379122D01*
X165650000Y-94383243D01*
X165650000Y-95109320D01*
X165050000Y-95109320D01*
X165050000Y-93984320D01*
X167395000Y-93984320D01*
X167399122Y-93997005D01*
X167403243Y-94000000D01*
X167979320Y-94000000D01*
X167992005Y-93995878D01*
X167995000Y-93991757D01*
X167995000Y-92915680D01*
X167990878Y-92902995D01*
X167986757Y-92900000D01*
X167653361Y-92900000D01*
X167647515Y-92900346D01*
X167631647Y-92902234D01*
X167617481Y-92906128D01*
X167530486Y-92944770D01*
X167515679Y-92954946D01*
X167449633Y-93021108D01*
X167439483Y-93035931D01*
X167401000Y-93122980D01*
X167397127Y-93137185D01*
X167395332Y-93152580D01*
X167395000Y-93158292D01*
X167395000Y-93984320D01*
X165050000Y-93984320D01*
X165050000Y-93759320D01*
X165650000Y-93759320D01*
X165654122Y-93772005D01*
X165658243Y-93775000D01*
X166809319Y-93775000D01*
X166822004Y-93770878D01*
X166824999Y-93766757D01*
X166824999Y-93535259D01*
X166824640Y-93529301D01*
X166814910Y-93448887D01*
X166811805Y-93436663D01*
X166761157Y-93308740D01*
X166754592Y-93297088D01*
X166671651Y-93187818D01*
X166662182Y-93178349D01*
X166552912Y-93095408D01*
X166541260Y-93088843D01*
X166413339Y-93038195D01*
X166401112Y-93035090D01*
X166320698Y-93025359D01*
X166314742Y-93025000D01*
X165665680Y-93025001D01*
X165652995Y-93029123D01*
X165650000Y-93033244D01*
X165650000Y-93759320D01*
X165050000Y-93759320D01*
X165050000Y-93040681D01*
X165045878Y-93027995D01*
X165040810Y-93024313D01*
X165004846Y-92974813D01*
X165000000Y-92944220D01*
X165000000Y-92804861D01*
X165000477Y-92795157D01*
X165018259Y-92614614D01*
X165022045Y-92595580D01*
X165073290Y-92426647D01*
X165080717Y-92408717D01*
X165163933Y-92253031D01*
X165174715Y-92236894D01*
X165219898Y-92181837D01*
X165286710Y-92100427D01*
X165300427Y-92086710D01*
X165436894Y-91974715D01*
X165453031Y-91963933D01*
X165608717Y-91880717D01*
X165626647Y-91873290D01*
X165711114Y-91847667D01*
X165795582Y-91822045D01*
X165814612Y-91818259D01*
X165995157Y-91800477D01*
X166004861Y-91800000D01*
X167695139Y-91800000D01*
X167704843Y-91800477D01*
G37*
G04 #@! TD.AperFunction*
G04 #@! TA.AperFunction,Conductor*
G36*
X164649236Y-85073907D02*
G01*
X164654163Y-85080688D01*
X164680743Y-85100000D01*
X165208500Y-85100000D01*
X165266691Y-85118907D01*
X165302655Y-85168407D01*
X165307500Y-85199000D01*
X165307500Y-85201000D01*
X165288593Y-85259191D01*
X165239093Y-85295155D01*
X165208500Y-85300000D01*
X164688180Y-85300000D01*
X164675495Y-85304122D01*
X164672500Y-85308243D01*
X164672500Y-85352605D01*
X164661142Y-85387563D01*
X164553633Y-85491488D01*
X164553626Y-85491494D01*
X164481219Y-85561488D01*
X163950000Y-86075000D01*
X163915302Y-86213793D01*
X163914466Y-86217137D01*
X163914465Y-86217140D01*
X163859094Y-86438623D01*
X163855077Y-86451108D01*
X163814758Y-86552775D01*
X163801977Y-86575617D01*
X163740396Y-86657858D01*
X163722078Y-86676550D01*
X163674258Y-86713886D01*
X163641096Y-86739778D01*
X163618519Y-86753016D01*
X163523796Y-86792814D01*
X163498537Y-86799673D01*
X163393793Y-86813642D01*
X163390129Y-86814131D01*
X163377042Y-86815000D01*
X163347791Y-86815000D01*
X163332304Y-86813781D01*
X163224156Y-86796652D01*
X163194698Y-86787081D01*
X163104163Y-86740951D01*
X163079104Y-86722745D01*
X163007255Y-86650896D01*
X162989049Y-86625837D01*
X162942919Y-86535302D01*
X162933348Y-86505844D01*
X162916219Y-86397696D01*
X162915000Y-86382209D01*
X162915000Y-85561488D01*
X162915847Y-85548566D01*
X162930336Y-85438513D01*
X162937025Y-85413549D01*
X162976999Y-85317043D01*
X162989921Y-85294661D01*
X163053513Y-85211787D01*
X163071787Y-85193513D01*
X163154661Y-85129921D01*
X163177043Y-85116999D01*
X163273549Y-85077025D01*
X163298513Y-85070336D01*
X163408566Y-85055847D01*
X163421488Y-85055000D01*
X164591045Y-85055000D01*
X164649236Y-85073907D01*
G37*
G04 #@! TD.AperFunction*
G04 #@! TA.AperFunction,Conductor*
G36*
X166293451Y-83291297D02*
G01*
X166140272Y-83774141D01*
X166140272Y-83774144D01*
X166140000Y-83775000D01*
X166140000Y-84703300D01*
X166136573Y-84711573D01*
X166128300Y-84715000D01*
X165761700Y-84715000D01*
X165753427Y-84711573D01*
X165750000Y-84703300D01*
X165750000Y-83775000D01*
X165530000Y-83050000D01*
X166370000Y-83050000D01*
X166293451Y-83291297D01*
G37*
G04 #@! TD.AperFunction*
G04 #@! TA.AperFunction,Conductor*
G36*
X205663427Y-85103427D02*
G01*
X205710000Y-85150000D01*
X207600000Y-85150000D01*
X207600000Y-85750000D01*
X207640000Y-85850000D01*
X205710000Y-85850000D01*
X205663427Y-85896573D01*
X205655154Y-85900000D01*
X204361700Y-85900000D01*
X204353427Y-85896573D01*
X204350000Y-85888300D01*
X204350000Y-85111700D01*
X204353427Y-85103427D01*
X204361700Y-85100000D01*
X205655154Y-85100000D01*
X205663427Y-85103427D01*
G37*
G04 #@! TD.AperFunction*
G04 #@! TA.AperFunction,Conductor*
G36*
X167579234Y-84964371D02*
G01*
X167589515Y-84979593D01*
X167590000Y-84984392D01*
X167590000Y-85425015D01*
X167582971Y-85441986D01*
X167566000Y-85449015D01*
X167560743Y-85448432D01*
X167241243Y-85376707D01*
X167226224Y-85366131D01*
X167222500Y-85353290D01*
X167222500Y-85304773D01*
X167221102Y-85301398D01*
X167217727Y-85300000D01*
X166611500Y-85300000D01*
X166594529Y-85292971D01*
X166587500Y-85276000D01*
X166587500Y-85124000D01*
X166594529Y-85107029D01*
X166611500Y-85100000D01*
X167217727Y-85100000D01*
X167221102Y-85098602D01*
X167222500Y-85095227D01*
X167222500Y-85049597D01*
X167229529Y-85032626D01*
X167241701Y-85026082D01*
X167469494Y-84979593D01*
X167561202Y-84960877D01*
X167579234Y-84964371D01*
G37*
G04 #@! TD.AperFunction*
G04 #@! TA.AperFunction,Conductor*
G36*
X180346288Y-79698954D02*
G01*
X180427070Y-79752930D01*
X180481046Y-79833712D01*
X180500000Y-79929000D01*
X180500000Y-82651000D01*
X180481046Y-82746288D01*
X180427070Y-82827070D01*
X180346288Y-82881046D01*
X180251000Y-82900000D01*
X179016646Y-82900000D01*
X178921358Y-82881046D01*
X178840576Y-82827070D01*
X178786600Y-82746288D01*
X178767646Y-82651000D01*
X178768943Y-82625620D01*
X178774353Y-82572822D01*
X178775000Y-82560157D01*
X178775000Y-82492027D01*
X178770931Y-82471569D01*
X178750473Y-82467500D01*
X176089000Y-82467500D01*
X175993712Y-82448546D01*
X175912930Y-82394570D01*
X175858954Y-82313788D01*
X175840000Y-82218500D01*
X175840000Y-81942973D01*
X176340000Y-81942973D01*
X176344069Y-81963431D01*
X176364527Y-81967500D01*
X177525473Y-81967500D01*
X177545931Y-81963431D01*
X177550000Y-81942973D01*
X178050000Y-81942973D01*
X178054069Y-81963431D01*
X178074527Y-81967500D01*
X178750472Y-81967500D01*
X178770930Y-81963431D01*
X178774999Y-81942973D01*
X178774999Y-81874937D01*
X178774334Y-81862088D01*
X178765736Y-81779205D01*
X178760018Y-81752734D01*
X178714482Y-81616244D01*
X178702294Y-81590225D01*
X178627019Y-81468583D01*
X178609173Y-81446067D01*
X178507939Y-81345009D01*
X178485383Y-81327195D01*
X178363618Y-81252138D01*
X178337574Y-81239993D01*
X178200976Y-81194685D01*
X178174548Y-81189020D01*
X178092827Y-81180648D01*
X178080157Y-81180000D01*
X178074527Y-81180000D01*
X178054069Y-81184069D01*
X178050000Y-81204527D01*
X178050000Y-81942973D01*
X177550000Y-81942973D01*
X177550000Y-81204528D01*
X177545931Y-81184070D01*
X177525473Y-81180001D01*
X177519937Y-81180001D01*
X177507088Y-81180666D01*
X177424205Y-81189264D01*
X177397734Y-81194982D01*
X177261244Y-81240518D01*
X177235225Y-81252706D01*
X177113585Y-81327979D01*
X177099669Y-81339009D01*
X177013219Y-81383341D01*
X176916384Y-81391216D01*
X176823906Y-81361435D01*
X176790682Y-81339277D01*
X176775387Y-81327198D01*
X176653618Y-81252138D01*
X176627574Y-81239993D01*
X176490976Y-81194685D01*
X176464548Y-81189020D01*
X176382827Y-81180648D01*
X176370157Y-81180000D01*
X176364527Y-81180000D01*
X176344069Y-81184069D01*
X176340000Y-81204527D01*
X176340000Y-81942973D01*
X175840000Y-81942973D01*
X175840000Y-81204528D01*
X175835931Y-81184070D01*
X175815473Y-81180001D01*
X175809937Y-81180001D01*
X175797088Y-81180666D01*
X175714205Y-81189264D01*
X175687734Y-81194982D01*
X175559128Y-81237888D01*
X175462739Y-81250065D01*
X175369028Y-81224429D01*
X175304255Y-81177757D01*
X175172930Y-81046432D01*
X175118954Y-80965650D01*
X175100000Y-80870362D01*
X175100000Y-79929000D01*
X175118954Y-79833712D01*
X175172930Y-79752930D01*
X175253712Y-79698954D01*
X175349000Y-79680000D01*
X180251000Y-79680000D01*
X180346288Y-79698954D01*
G37*
G04 #@! TD.AperFunction*
G04 #@! TA.AperFunction,Conductor*
G36*
X208996573Y-85103427D02*
G01*
X209000000Y-85111700D01*
X209000000Y-85888300D01*
X208996573Y-85896573D01*
X208988300Y-85900000D01*
X207694846Y-85900000D01*
X207686573Y-85896573D01*
X207640000Y-85850000D01*
X205750000Y-85850000D01*
X205750000Y-85250000D01*
X205710000Y-85150000D01*
X207640000Y-85150000D01*
X207686573Y-85103427D01*
X207694846Y-85100000D01*
X208988300Y-85100000D01*
X208996573Y-85103427D01*
G37*
G04 #@! TD.AperFunction*
G04 #@! TA.AperFunction,Conductor*
G36*
X182313427Y-85103427D02*
G01*
X182360000Y-85150000D01*
X184290000Y-85150000D01*
X184336573Y-85103427D01*
X184344846Y-85100000D01*
X185498300Y-85100000D01*
X185506573Y-85103427D01*
X185510000Y-85111700D01*
X185510000Y-85888300D01*
X185506573Y-85896573D01*
X185498300Y-85900000D01*
X184344846Y-85900000D01*
X184336573Y-85896573D01*
X184290000Y-85850000D01*
X182360000Y-85850000D01*
X182313427Y-85896573D01*
X182305154Y-85900000D01*
X181011700Y-85900000D01*
X181003427Y-85896573D01*
X181000000Y-85888300D01*
X181000000Y-85111700D01*
X181003427Y-85103427D01*
X181011700Y-85100000D01*
X182305154Y-85100000D01*
X182313427Y-85103427D01*
G37*
G04 #@! TD.AperFunction*
M02*
