G04 #@! TF.GenerationSoftware,KiCad,Pcbnew,6.0.10-86aedd382b~118~ubuntu22.04.1*
G04 #@! TF.CreationDate,2023-04-18T16:49:58-04:00*
G04 #@! TF.ProjectId,firstfpga-clock,66697273-7466-4706-9761-2d636c6f636b,rev?*
G04 #@! TF.SameCoordinates,Original*
G04 #@! TF.FileFunction,Soldermask,Bot*
G04 #@! TF.FilePolarity,Negative*
%FSLAX46Y46*%
G04 Gerber Fmt 4.6, Leading zero omitted, Abs format (unit mm)*
G04 Created by KiCad (PCBNEW 6.0.10-86aedd382b~118~ubuntu22.04.1) date 2023-04-18 16:49:58*
%MOMM*%
%LPD*%
G01*
G04 APERTURE LIST*
%ADD10C,6.000000*%
%ADD11C,2.100000*%
%ADD12C,1.750000*%
%ADD13C,1.700000*%
%ADD14O,1.300000X2.000000*%
%ADD15O,3.500000X2.200000*%
%ADD16R,2.500000X1.500000*%
%ADD17O,2.500000X1.500000*%
%ADD18R,1.700000X1.700000*%
%ADD19O,1.700000X1.700000*%
%ADD20R,4.700000X4.500000*%
%ADD21R,4.500000X4.900000*%
%ADD22R,2.600000X2.600000*%
%ADD23C,2.600000*%
G04 APERTURE END LIST*
G36*
X182202038Y-44931270D02*
G01*
X182926252Y-45655500D01*
X181822391Y-46759350D01*
X180718531Y-47863200D01*
X179270079Y-46414748D01*
X179676308Y-46008519D01*
X180189017Y-46521206D01*
X180701727Y-47033893D01*
X181197599Y-46538021D01*
X180760560Y-46100955D01*
X180323520Y-45663889D01*
X180710152Y-45277257D01*
X181147184Y-45714316D01*
X181584215Y-46151375D01*
X181840593Y-45895043D01*
X182096970Y-45638711D01*
X181584248Y-45125967D01*
X181071527Y-44613223D01*
X181274676Y-44410132D01*
X181477824Y-44207041D01*
X182202038Y-44931270D01*
G37*
G36*
X183997430Y-46727986D02*
G01*
X184721644Y-47452216D01*
X183617783Y-48556066D01*
X182513923Y-49659916D01*
X181065471Y-48211464D01*
X181471700Y-47805235D01*
X181984409Y-48317922D01*
X182497119Y-48830609D01*
X182992991Y-48334737D01*
X182555952Y-47897671D01*
X182118912Y-47460605D01*
X182505544Y-47073973D01*
X182942576Y-47511032D01*
X183379607Y-47948091D01*
X183635985Y-47691759D01*
X183892362Y-47435427D01*
X183379640Y-46922683D01*
X182866919Y-46409939D01*
X183070068Y-46206848D01*
X183273216Y-46003757D01*
X183997430Y-46727986D01*
G37*
D10*
X230000000Y-110000000D03*
X160000000Y-40000000D03*
X230000000Y-40000000D03*
X160000000Y-110000000D03*
D11*
X229447500Y-77900000D03*
X229447500Y-84910000D03*
D12*
X231937500Y-79150000D03*
X231937500Y-83650000D03*
D13*
X208970000Y-99470000D03*
X208970000Y-71530000D03*
D14*
X202620000Y-38780000D03*
X200080000Y-38780000D03*
X197540000Y-38780000D03*
X195000000Y-38780000D03*
X192460000Y-38780000D03*
X189920000Y-38780000D03*
X187380000Y-38780000D03*
X187380000Y-54020000D03*
X189920000Y-54020000D03*
X192460000Y-54020000D03*
X195000000Y-54020000D03*
X197540000Y-54020000D03*
X200080000Y-54020000D03*
X202620000Y-54020000D03*
D15*
X157850000Y-92650000D03*
X157850000Y-100850000D03*
D16*
X157850000Y-94750000D03*
D17*
X157850000Y-96750000D03*
X157850000Y-98750000D03*
D18*
X230700000Y-66875000D03*
D19*
X230700000Y-64335000D03*
X230700000Y-61795000D03*
X230700000Y-59255000D03*
X230700000Y-56715000D03*
X230700000Y-54175000D03*
X230700000Y-51635000D03*
X230700000Y-49095000D03*
D11*
X229397500Y-93025000D03*
X229397500Y-100035000D03*
D12*
X231887500Y-94275000D03*
X231887500Y-98775000D03*
D20*
X188450000Y-105725000D03*
D21*
X193750000Y-98575000D03*
X199800000Y-98575000D03*
D22*
X171280000Y-87000000D03*
D23*
X171280000Y-74300000D03*
M02*
