%TF.GenerationSoftware,KiCad,Pcbnew,6.0.10-86aedd382b~118~ubuntu22.04.1*%
%TF.CreationDate,2023-04-18T16:50:04-04:00*%
%TF.ProjectId,firstfpga-clock,66697273-7466-4706-9761-2d636c6f636b,rev?*%
%TF.SameCoordinates,Original*%
%TF.FileFunction,Drillmap*%
%TF.FilePolarity,Positive*%
%FSLAX45Y45*%
G04 Gerber Fmt 4.5, Leading zero omitted, Abs format (unit mm)*
G04 Created by KiCad (PCBNEW 6.0.10-86aedd382b~118~ubuntu22.04.1) date 2023-04-18 16:50:04*
%MOMM*%
%LPD*%
G01*
G04 APERTURE LIST*
%ADD10C,0.100000*%
%ADD11C,0.200000*%
%ADD12C,0.170000*%
G04 APERTURE END LIST*
D10*
X16000000Y-3500000D02*
G75*
G03*
X15500000Y-4000000I0J-500000D01*
G01*
X23000000Y-11500000D02*
X16000000Y-11500000D01*
X23500000Y-4000000D02*
X23500000Y-11000000D01*
X16000000Y-3500000D02*
X23000000Y-3500000D01*
X15500000Y-4000000D02*
X15500000Y-11000000D01*
X23500000Y-4000000D02*
G75*
G03*
X23000000Y-3500000I-500000J0D01*
G01*
X23000000Y-11500000D02*
G75*
G03*
X23500000Y-11000000I0J500000D01*
G01*
X15500000Y-11000000D02*
G75*
G03*
X16000000Y-11500000I500000J0D01*
G01*
D11*
D12*
X20812000Y-7068000D02*
X20982000Y-7238000D01*
X20982000Y-7068000D02*
X20812000Y-7238000D01*
X20812000Y-9862000D02*
X20982000Y-10032000D01*
X20982000Y-9862000D02*
X20812000Y-10032000D01*
D11*
X15752619Y-11815476D02*
X15752619Y-11615476D01*
X15800238Y-11615476D01*
X15828809Y-11625000D01*
X15847857Y-11644048D01*
X15857381Y-11663095D01*
X15866905Y-11701190D01*
X15866905Y-11729762D01*
X15857381Y-11767857D01*
X15847857Y-11786905D01*
X15828809Y-11805952D01*
X15800238Y-11815476D01*
X15752619Y-11815476D01*
X15952619Y-11815476D02*
X15952619Y-11682143D01*
X15952619Y-11720238D02*
X15962143Y-11701190D01*
X15971667Y-11691667D01*
X15990714Y-11682143D01*
X16009762Y-11682143D01*
X16076428Y-11815476D02*
X16076428Y-11682143D01*
X16076428Y-11615476D02*
X16066905Y-11625000D01*
X16076428Y-11634524D01*
X16085952Y-11625000D01*
X16076428Y-11615476D01*
X16076428Y-11634524D01*
X16200238Y-11815476D02*
X16181190Y-11805952D01*
X16171667Y-11786905D01*
X16171667Y-11615476D01*
X16305000Y-11815476D02*
X16285952Y-11805952D01*
X16276428Y-11786905D01*
X16276428Y-11615476D01*
X16533571Y-11815476D02*
X16533571Y-11615476D01*
X16600238Y-11758333D01*
X16666905Y-11615476D01*
X16666905Y-11815476D01*
X16847857Y-11815476D02*
X16847857Y-11710714D01*
X16838333Y-11691667D01*
X16819286Y-11682143D01*
X16781190Y-11682143D01*
X16762143Y-11691667D01*
X16847857Y-11805952D02*
X16828810Y-11815476D01*
X16781190Y-11815476D01*
X16762143Y-11805952D01*
X16752619Y-11786905D01*
X16752619Y-11767857D01*
X16762143Y-11748809D01*
X16781190Y-11739286D01*
X16828810Y-11739286D01*
X16847857Y-11729762D01*
X16943095Y-11682143D02*
X16943095Y-11882143D01*
X16943095Y-11691667D02*
X16962143Y-11682143D01*
X17000238Y-11682143D01*
X17019286Y-11691667D01*
X17028810Y-11701190D01*
X17038333Y-11720238D01*
X17038333Y-11777381D01*
X17028810Y-11796428D01*
X17019286Y-11805952D01*
X17000238Y-11815476D01*
X16962143Y-11815476D01*
X16943095Y-11805952D01*
X17124048Y-11796428D02*
X17133571Y-11805952D01*
X17124048Y-11815476D01*
X17114524Y-11805952D01*
X17124048Y-11796428D01*
X17124048Y-11815476D01*
X17124048Y-11691667D02*
X17133571Y-11701190D01*
X17124048Y-11710714D01*
X17114524Y-11701190D01*
X17124048Y-11691667D01*
X17124048Y-11710714D01*
D12*
X15325000Y-12060000D02*
X15495000Y-12230000D01*
X15495000Y-12060000D02*
X15325000Y-12230000D01*
D11*
X15857381Y-12235476D02*
X15743095Y-12235476D01*
X15800238Y-12235476D02*
X15800238Y-12035476D01*
X15781190Y-12064048D01*
X15762143Y-12083095D01*
X15743095Y-12092619D01*
X15943095Y-12216428D02*
X15952619Y-12225952D01*
X15943095Y-12235476D01*
X15933571Y-12225952D01*
X15943095Y-12216428D01*
X15943095Y-12235476D01*
X16019286Y-12035476D02*
X16152619Y-12035476D01*
X16066905Y-12235476D01*
X16266905Y-12035476D02*
X16285952Y-12035476D01*
X16305000Y-12045000D01*
X16314524Y-12054524D01*
X16324048Y-12073571D01*
X16333571Y-12111667D01*
X16333571Y-12159286D01*
X16324048Y-12197381D01*
X16314524Y-12216428D01*
X16305000Y-12225952D01*
X16285952Y-12235476D01*
X16266905Y-12235476D01*
X16247857Y-12225952D01*
X16238333Y-12216428D01*
X16228809Y-12197381D01*
X16219286Y-12159286D01*
X16219286Y-12111667D01*
X16228809Y-12073571D01*
X16238333Y-12054524D01*
X16247857Y-12045000D01*
X16266905Y-12035476D01*
X16457381Y-12035476D02*
X16476428Y-12035476D01*
X16495476Y-12045000D01*
X16505000Y-12054524D01*
X16514524Y-12073571D01*
X16524048Y-12111667D01*
X16524048Y-12159286D01*
X16514524Y-12197381D01*
X16505000Y-12216428D01*
X16495476Y-12225952D01*
X16476428Y-12235476D01*
X16457381Y-12235476D01*
X16438333Y-12225952D01*
X16428809Y-12216428D01*
X16419286Y-12197381D01*
X16409762Y-12159286D01*
X16409762Y-12111667D01*
X16419286Y-12073571D01*
X16428809Y-12054524D01*
X16438333Y-12045000D01*
X16457381Y-12035476D01*
X16609762Y-12235476D02*
X16609762Y-12102143D01*
X16609762Y-12121190D02*
X16619286Y-12111667D01*
X16638333Y-12102143D01*
X16666905Y-12102143D01*
X16685952Y-12111667D01*
X16695476Y-12130714D01*
X16695476Y-12235476D01*
X16695476Y-12130714D02*
X16705000Y-12111667D01*
X16724048Y-12102143D01*
X16752619Y-12102143D01*
X16771667Y-12111667D01*
X16781190Y-12130714D01*
X16781190Y-12235476D01*
X16876429Y-12235476D02*
X16876429Y-12102143D01*
X16876429Y-12121190D02*
X16885952Y-12111667D01*
X16905000Y-12102143D01*
X16933571Y-12102143D01*
X16952619Y-12111667D01*
X16962143Y-12130714D01*
X16962143Y-12235476D01*
X16962143Y-12130714D02*
X16971667Y-12111667D01*
X16990714Y-12102143D01*
X17019286Y-12102143D01*
X17038333Y-12111667D01*
X17047857Y-12130714D01*
X17047857Y-12235476D01*
X17438333Y-12025952D02*
X17266905Y-12283095D01*
X17695476Y-12035476D02*
X17714524Y-12035476D01*
X17733571Y-12045000D01*
X17743095Y-12054524D01*
X17752619Y-12073571D01*
X17762143Y-12111667D01*
X17762143Y-12159286D01*
X17752619Y-12197381D01*
X17743095Y-12216428D01*
X17733571Y-12225952D01*
X17714524Y-12235476D01*
X17695476Y-12235476D01*
X17676429Y-12225952D01*
X17666905Y-12216428D01*
X17657381Y-12197381D01*
X17647857Y-12159286D01*
X17647857Y-12111667D01*
X17657381Y-12073571D01*
X17666905Y-12054524D01*
X17676429Y-12045000D01*
X17695476Y-12035476D01*
X17847857Y-12216428D02*
X17857381Y-12225952D01*
X17847857Y-12235476D01*
X17838333Y-12225952D01*
X17847857Y-12216428D01*
X17847857Y-12235476D01*
X17981190Y-12035476D02*
X18000238Y-12035476D01*
X18019286Y-12045000D01*
X18028810Y-12054524D01*
X18038333Y-12073571D01*
X18047857Y-12111667D01*
X18047857Y-12159286D01*
X18038333Y-12197381D01*
X18028810Y-12216428D01*
X18019286Y-12225952D01*
X18000238Y-12235476D01*
X17981190Y-12235476D01*
X17962143Y-12225952D01*
X17952619Y-12216428D01*
X17943095Y-12197381D01*
X17933571Y-12159286D01*
X17933571Y-12111667D01*
X17943095Y-12073571D01*
X17952619Y-12054524D01*
X17962143Y-12045000D01*
X17981190Y-12035476D01*
X18219286Y-12035476D02*
X18181190Y-12035476D01*
X18162143Y-12045000D01*
X18152619Y-12054524D01*
X18133571Y-12083095D01*
X18124048Y-12121190D01*
X18124048Y-12197381D01*
X18133571Y-12216428D01*
X18143095Y-12225952D01*
X18162143Y-12235476D01*
X18200238Y-12235476D01*
X18219286Y-12225952D01*
X18228810Y-12216428D01*
X18238333Y-12197381D01*
X18238333Y-12149762D01*
X18228810Y-12130714D01*
X18219286Y-12121190D01*
X18200238Y-12111667D01*
X18162143Y-12111667D01*
X18143095Y-12121190D01*
X18133571Y-12130714D01*
X18124048Y-12149762D01*
X18409762Y-12035476D02*
X18371667Y-12035476D01*
X18352619Y-12045000D01*
X18343095Y-12054524D01*
X18324048Y-12083095D01*
X18314524Y-12121190D01*
X18314524Y-12197381D01*
X18324048Y-12216428D01*
X18333571Y-12225952D01*
X18352619Y-12235476D01*
X18390714Y-12235476D01*
X18409762Y-12225952D01*
X18419286Y-12216428D01*
X18428810Y-12197381D01*
X18428810Y-12149762D01*
X18419286Y-12130714D01*
X18409762Y-12121190D01*
X18390714Y-12111667D01*
X18352619Y-12111667D01*
X18333571Y-12121190D01*
X18324048Y-12130714D01*
X18314524Y-12149762D01*
X18524048Y-12235476D02*
X18562143Y-12235476D01*
X18581190Y-12225952D01*
X18590714Y-12216428D01*
X18609762Y-12187857D01*
X18619286Y-12149762D01*
X18619286Y-12073571D01*
X18609762Y-12054524D01*
X18600238Y-12045000D01*
X18581190Y-12035476D01*
X18543095Y-12035476D01*
X18524048Y-12045000D01*
X18514524Y-12054524D01*
X18505000Y-12073571D01*
X18505000Y-12121190D01*
X18514524Y-12140238D01*
X18524048Y-12149762D01*
X18543095Y-12159286D01*
X18581190Y-12159286D01*
X18600238Y-12149762D01*
X18609762Y-12140238D01*
X18619286Y-12121190D01*
X18695476Y-12035476D02*
X18695476Y-12073571D01*
X18771667Y-12035476D02*
X18771667Y-12073571D01*
X19066905Y-12311667D02*
X19057381Y-12302143D01*
X19038333Y-12273571D01*
X19028810Y-12254524D01*
X19019286Y-12225952D01*
X19009762Y-12178333D01*
X19009762Y-12140238D01*
X19019286Y-12092619D01*
X19028810Y-12064048D01*
X19038333Y-12045000D01*
X19057381Y-12016428D01*
X19066905Y-12006905D01*
X19133571Y-12054524D02*
X19143095Y-12045000D01*
X19162143Y-12035476D01*
X19209762Y-12035476D01*
X19228810Y-12045000D01*
X19238333Y-12054524D01*
X19247857Y-12073571D01*
X19247857Y-12092619D01*
X19238333Y-12121190D01*
X19124048Y-12235476D01*
X19247857Y-12235476D01*
X19485952Y-12235476D02*
X19485952Y-12035476D01*
X19571667Y-12235476D02*
X19571667Y-12130714D01*
X19562143Y-12111667D01*
X19543095Y-12102143D01*
X19514524Y-12102143D01*
X19495476Y-12111667D01*
X19485952Y-12121190D01*
X19695476Y-12235476D02*
X19676429Y-12225952D01*
X19666905Y-12216428D01*
X19657381Y-12197381D01*
X19657381Y-12140238D01*
X19666905Y-12121190D01*
X19676429Y-12111667D01*
X19695476Y-12102143D01*
X19724048Y-12102143D01*
X19743095Y-12111667D01*
X19752619Y-12121190D01*
X19762143Y-12140238D01*
X19762143Y-12197381D01*
X19752619Y-12216428D01*
X19743095Y-12225952D01*
X19724048Y-12235476D01*
X19695476Y-12235476D01*
X19876429Y-12235476D02*
X19857381Y-12225952D01*
X19847857Y-12206905D01*
X19847857Y-12035476D01*
X20028810Y-12225952D02*
X20009762Y-12235476D01*
X19971667Y-12235476D01*
X19952619Y-12225952D01*
X19943095Y-12206905D01*
X19943095Y-12130714D01*
X19952619Y-12111667D01*
X19971667Y-12102143D01*
X20009762Y-12102143D01*
X20028810Y-12111667D01*
X20038333Y-12130714D01*
X20038333Y-12149762D01*
X19943095Y-12168809D01*
X20114524Y-12225952D02*
X20133571Y-12235476D01*
X20171667Y-12235476D01*
X20190714Y-12225952D01*
X20200238Y-12206905D01*
X20200238Y-12197381D01*
X20190714Y-12178333D01*
X20171667Y-12168809D01*
X20143095Y-12168809D01*
X20124048Y-12159286D01*
X20114524Y-12140238D01*
X20114524Y-12130714D01*
X20124048Y-12111667D01*
X20143095Y-12102143D01*
X20171667Y-12102143D01*
X20190714Y-12111667D01*
X20266905Y-12311667D02*
X20276429Y-12302143D01*
X20295476Y-12273571D01*
X20305000Y-12254524D01*
X20314524Y-12225952D01*
X20324048Y-12178333D01*
X20324048Y-12140238D01*
X20314524Y-12092619D01*
X20305000Y-12064048D01*
X20295476Y-12045000D01*
X20276429Y-12016428D01*
X20266905Y-12006905D01*
X20628810Y-12311667D02*
X20619286Y-12302143D01*
X20600238Y-12273571D01*
X20590714Y-12254524D01*
X20581190Y-12225952D01*
X20571667Y-12178333D01*
X20571667Y-12140238D01*
X20581190Y-12092619D01*
X20590714Y-12064048D01*
X20600238Y-12045000D01*
X20619286Y-12016428D01*
X20628810Y-12006905D01*
X20705000Y-12102143D02*
X20705000Y-12235476D01*
X20705000Y-12121190D02*
X20714524Y-12111667D01*
X20733571Y-12102143D01*
X20762143Y-12102143D01*
X20781190Y-12111667D01*
X20790714Y-12130714D01*
X20790714Y-12235476D01*
X20914524Y-12235476D02*
X20895476Y-12225952D01*
X20885952Y-12216428D01*
X20876429Y-12197381D01*
X20876429Y-12140238D01*
X20885952Y-12121190D01*
X20895476Y-12111667D01*
X20914524Y-12102143D01*
X20943095Y-12102143D01*
X20962143Y-12111667D01*
X20971667Y-12121190D01*
X20981190Y-12140238D01*
X20981190Y-12197381D01*
X20971667Y-12216428D01*
X20962143Y-12225952D01*
X20943095Y-12235476D01*
X20914524Y-12235476D01*
X21038333Y-12102143D02*
X21114524Y-12102143D01*
X21066905Y-12035476D02*
X21066905Y-12206905D01*
X21076429Y-12225952D01*
X21095476Y-12235476D01*
X21114524Y-12235476D01*
X21333571Y-12102143D02*
X21333571Y-12302143D01*
X21333571Y-12111667D02*
X21352619Y-12102143D01*
X21390714Y-12102143D01*
X21409762Y-12111667D01*
X21419286Y-12121190D01*
X21428810Y-12140238D01*
X21428810Y-12197381D01*
X21419286Y-12216428D01*
X21409762Y-12225952D01*
X21390714Y-12235476D01*
X21352619Y-12235476D01*
X21333571Y-12225952D01*
X21543095Y-12235476D02*
X21524048Y-12225952D01*
X21514524Y-12206905D01*
X21514524Y-12035476D01*
X21705000Y-12235476D02*
X21705000Y-12130714D01*
X21695476Y-12111667D01*
X21676429Y-12102143D01*
X21638333Y-12102143D01*
X21619286Y-12111667D01*
X21705000Y-12225952D02*
X21685952Y-12235476D01*
X21638333Y-12235476D01*
X21619286Y-12225952D01*
X21609762Y-12206905D01*
X21609762Y-12187857D01*
X21619286Y-12168809D01*
X21638333Y-12159286D01*
X21685952Y-12159286D01*
X21705000Y-12149762D01*
X21771667Y-12102143D02*
X21847857Y-12102143D01*
X21800238Y-12035476D02*
X21800238Y-12206905D01*
X21809762Y-12225952D01*
X21828810Y-12235476D01*
X21847857Y-12235476D01*
X21990714Y-12225952D02*
X21971667Y-12235476D01*
X21933571Y-12235476D01*
X21914524Y-12225952D01*
X21905000Y-12206905D01*
X21905000Y-12130714D01*
X21914524Y-12111667D01*
X21933571Y-12102143D01*
X21971667Y-12102143D01*
X21990714Y-12111667D01*
X22000238Y-12130714D01*
X22000238Y-12149762D01*
X21905000Y-12168809D01*
X22171667Y-12235476D02*
X22171667Y-12035476D01*
X22171667Y-12225952D02*
X22152619Y-12235476D01*
X22114524Y-12235476D01*
X22095476Y-12225952D01*
X22085952Y-12216428D01*
X22076429Y-12197381D01*
X22076429Y-12140238D01*
X22085952Y-12121190D01*
X22095476Y-12111667D01*
X22114524Y-12102143D01*
X22152619Y-12102143D01*
X22171667Y-12111667D01*
X22247857Y-12311667D02*
X22257381Y-12302143D01*
X22276429Y-12273571D01*
X22285952Y-12254524D01*
X22295476Y-12225952D01*
X22305000Y-12178333D01*
X22305000Y-12140238D01*
X22295476Y-12092619D01*
X22285952Y-12064048D01*
X22276429Y-12045000D01*
X22257381Y-12016428D01*
X22247857Y-12006905D01*
M02*
