%TF.GenerationSoftware,KiCad,Pcbnew,6.0.10-86aedd382b~118~ubuntu22.04.1*%
%TF.CreationDate,2023-04-18T16:50:04-04:00*%
%TF.ProjectId,firstfpga-clock,66697273-7466-4706-9761-2d636c6f636b,rev?*%
%TF.SameCoordinates,Original*%
%TF.FileFunction,Drillmap*%
%TF.FilePolarity,Positive*%
%FSLAX45Y45*%
G04 Gerber Fmt 4.5, Leading zero omitted, Abs format (unit mm)*
G04 Created by KiCad (PCBNEW 6.0.10-86aedd382b~118~ubuntu22.04.1) date 2023-04-18 16:50:04*
%MOMM*%
%LPD*%
G01*
G04 APERTURE LIST*
%ADD10C,0.100000*%
%ADD11C,0.200000*%
%ADD12C,0.030000*%
%ADD13C,0.040000*%
%ADD14C,0.080000*%
%ADD15C,0.090000*%
%ADD16C,0.099000*%
%ADD17C,0.120000*%
%ADD18C,0.130000*%
%ADD19C,0.150000*%
%ADD20C,0.300000*%
G04 APERTURE END LIST*
D10*
X16000000Y-3500000D02*
G75*
G03*
X15500000Y-4000000I0J-500000D01*
G01*
X23000000Y-11500000D02*
X16000000Y-11500000D01*
X23500000Y-4000000D02*
X23500000Y-11000000D01*
X16000000Y-3500000D02*
X23000000Y-3500000D01*
X15500000Y-4000000D02*
X15500000Y-11000000D01*
X23500000Y-4000000D02*
G75*
G03*
X23000000Y-3500000I-500000J0D01*
G01*
X23000000Y-11500000D02*
G75*
G03*
X23500000Y-11000000I0J500000D01*
G01*
X15500000Y-11000000D02*
G75*
G03*
X16000000Y-11500000I500000J0D01*
G01*
D11*
D12*
X15780000Y-7550000D02*
X15810000Y-7580000D01*
X15810000Y-7550000D02*
X15780000Y-7580000D01*
X15915004Y-8069996D02*
X15945004Y-8099996D01*
X15945004Y-8069996D02*
X15915004Y-8099996D01*
X15933125Y-8421875D02*
X15963125Y-8451875D01*
X15963125Y-8421875D02*
X15933125Y-8451875D01*
X15972500Y-7852500D02*
X16002500Y-7882500D01*
X16002500Y-7852500D02*
X15972500Y-7882500D01*
X15976285Y-8148715D02*
X16006285Y-8178715D01*
X16006285Y-8148715D02*
X15976285Y-8178715D01*
X16050000Y-9585000D02*
X16080000Y-9615000D01*
X16080000Y-9585000D02*
X16050000Y-9615000D01*
X16175000Y-8485000D02*
X16205000Y-8515000D01*
X16205000Y-8485000D02*
X16175000Y-8515000D01*
X16180000Y-9430000D02*
X16210000Y-9460000D01*
X16210000Y-9430000D02*
X16180000Y-9460000D01*
X16235000Y-8410000D02*
X16265000Y-8440000D01*
X16265000Y-8410000D02*
X16235000Y-8440000D01*
X16245000Y-8135000D02*
X16275000Y-8165000D01*
X16275000Y-8135000D02*
X16245000Y-8165000D01*
X16245000Y-8215000D02*
X16275000Y-8245000D01*
X16275000Y-8215000D02*
X16245000Y-8245000D01*
X16255513Y-7954479D02*
X16285513Y-7984479D01*
X16285513Y-7954479D02*
X16255513Y-7984479D01*
X16368261Y-8026748D02*
X16398261Y-8056748D01*
X16398261Y-8026748D02*
X16368261Y-8056748D01*
X16390110Y-8405000D02*
X16420110Y-8435000D01*
X16420110Y-8405000D02*
X16390110Y-8435000D01*
X16435000Y-7616250D02*
X16465000Y-7646250D01*
X16465000Y-7616250D02*
X16435000Y-7646250D01*
X16447500Y-7837500D02*
X16477500Y-7867500D01*
X16477500Y-7837500D02*
X16447500Y-7867500D01*
X16472500Y-8292500D02*
X16502500Y-8322500D01*
X16502500Y-8292500D02*
X16472500Y-8322500D01*
X16802500Y-8330000D02*
X16832500Y-8360000D01*
X16832500Y-8330000D02*
X16802500Y-8360000D01*
X16835000Y-8865000D02*
X16865000Y-8895000D01*
X16865000Y-8865000D02*
X16835000Y-8895000D01*
X16900000Y-8122500D02*
X16930000Y-8152500D01*
X16930000Y-8122500D02*
X16900000Y-8152500D01*
X16970000Y-8122500D02*
X17000000Y-8152500D01*
X17000000Y-8122500D02*
X16970000Y-8152500D01*
X17170000Y-8117610D02*
X17200000Y-8147610D01*
X17200000Y-8117610D02*
X17170000Y-8147610D01*
X18145000Y-9867500D02*
X18175000Y-9897500D01*
X18175000Y-9867500D02*
X18145000Y-9897500D01*
X18195000Y-9935000D02*
X18225000Y-9965000D01*
X18225000Y-9935000D02*
X18195000Y-9965000D01*
X18270000Y-9780000D02*
X18300000Y-9810000D01*
X18300000Y-9780000D02*
X18270000Y-9810000D01*
X18313000Y-5520000D02*
X18343000Y-5550000D01*
X18343000Y-5520000D02*
X18313000Y-5550000D01*
X18314000Y-5336000D02*
X18344000Y-5366000D01*
X18344000Y-5336000D02*
X18314000Y-5366000D01*
X18315004Y-9859996D02*
X18345004Y-9889996D01*
X18345004Y-9859996D02*
X18315004Y-9889996D01*
X18814996Y-4759996D02*
X18844996Y-4789996D01*
X18844996Y-4759996D02*
X18814996Y-4789996D01*
X18895000Y-4887500D02*
X18925000Y-4917500D01*
X18925000Y-4887500D02*
X18895000Y-4917500D01*
X19485000Y-4245000D02*
X19515000Y-4275000D01*
X19515000Y-4245000D02*
X19485000Y-4275000D01*
X19739000Y-4201000D02*
X19769000Y-4231000D01*
X19769000Y-4201000D02*
X19739000Y-4231000D01*
X19993000Y-4116000D02*
X20023000Y-4146000D01*
X20023000Y-4116000D02*
X19993000Y-4146000D01*
X20905000Y-9368890D02*
X20935000Y-9398890D01*
X20935000Y-9368890D02*
X20905000Y-9398890D01*
X20905000Y-9492500D02*
X20935000Y-9522500D01*
X20935000Y-9492500D02*
X20905000Y-9522500D01*
X22520000Y-9815000D02*
X22550000Y-9845000D01*
X22550000Y-9815000D02*
X22520000Y-9845000D01*
X22525000Y-8952500D02*
X22555000Y-8982500D01*
X22555000Y-8952500D02*
X22525000Y-8982500D01*
X22601000Y-8519000D02*
X22631000Y-8549000D01*
X22631000Y-8519000D02*
X22601000Y-8549000D01*
X22607500Y-9670000D02*
X22637500Y-9700000D01*
X22637500Y-9670000D02*
X22607500Y-9700000D01*
X22630000Y-6105000D02*
X22660000Y-6135000D01*
X22660000Y-6105000D02*
X22630000Y-6135000D01*
D13*
X16497500Y-9890000D02*
G75*
G03*
X16497500Y-9890000I-20000J0D01*
G01*
X16617500Y-9890000D02*
G75*
G03*
X16617500Y-9890000I-20000J0D01*
G01*
X16897500Y-9850000D02*
G75*
G03*
X16897500Y-9850000I-20000J0D01*
G01*
X16897500Y-9990000D02*
G75*
G03*
X16897500Y-9990000I-20000J0D01*
G01*
X16897500Y-10130000D02*
G75*
G03*
X16897500Y-10130000I-20000J0D01*
G01*
X16897500Y-10270000D02*
G75*
G03*
X16897500Y-10270000I-20000J0D01*
G01*
X17077500Y-9850000D02*
G75*
G03*
X17077500Y-9850000I-20000J0D01*
G01*
X17077500Y-9990000D02*
G75*
G03*
X17077500Y-9990000I-20000J0D01*
G01*
X17077500Y-10130000D02*
G75*
G03*
X17077500Y-10130000I-20000J0D01*
G01*
X17077500Y-10270000D02*
G75*
G03*
X17077500Y-10270000I-20000J0D01*
G01*
X17257500Y-9850000D02*
G75*
G03*
X17257500Y-9850000I-20000J0D01*
G01*
X17257500Y-9990000D02*
G75*
G03*
X17257500Y-9990000I-20000J0D01*
G01*
X17257500Y-10130000D02*
G75*
G03*
X17257500Y-10130000I-20000J0D01*
G01*
X17257500Y-10270000D02*
G75*
G03*
X17257500Y-10270000I-20000J0D01*
G01*
X17505000Y-9881000D02*
G75*
G03*
X17505000Y-9881000I-20000J0D01*
G01*
X17605000Y-9881000D02*
G75*
G03*
X17605000Y-9881000I-20000J0D01*
G01*
X17629000Y-8514000D02*
G75*
G03*
X17629000Y-8514000I-20000J0D01*
G01*
X17800000Y-8511000D02*
G75*
G03*
X17800000Y-8511000I-20000J0D01*
G01*
X17810000Y-9360000D02*
G75*
G03*
X17810000Y-9360000I-20000J0D01*
G01*
X17810000Y-9480000D02*
G75*
G03*
X17810000Y-9480000I-20000J0D01*
G01*
X17810000Y-9600000D02*
G75*
G03*
X17810000Y-9600000I-20000J0D01*
G01*
X18340000Y-7360000D02*
G75*
G03*
X18340000Y-7360000I-20000J0D01*
G01*
X18725000Y-7560000D02*
G75*
G03*
X18725000Y-7560000I-20000J0D01*
G01*
X19520000Y-7580000D02*
G75*
G03*
X19520000Y-7580000I-20000J0D01*
G01*
X19520000Y-9500000D02*
G75*
G03*
X19520000Y-9500000I-20000J0D01*
G01*
X21007000Y-7792000D02*
G75*
G03*
X21007000Y-7792000I-20000J0D01*
G01*
X21007775Y-7670000D02*
G75*
G03*
X21007775Y-7670000I-20000J0D01*
G01*
X21185000Y-9318750D02*
G75*
G03*
X21185000Y-9318750I-20000J0D01*
G01*
X21247500Y-8840000D02*
G75*
G03*
X21247500Y-8840000I-20000J0D01*
G01*
X21315000Y-6745000D02*
G75*
G03*
X21315000Y-6745000I-20000J0D01*
G01*
X21415000Y-7850000D02*
G75*
G03*
X21415000Y-7850000I-20000J0D01*
G01*
X21415000Y-8835000D02*
G75*
G03*
X21415000Y-8835000I-20000J0D01*
G01*
X21420000Y-7710000D02*
G75*
G03*
X21420000Y-7710000I-20000J0D01*
G01*
X21470000Y-6745000D02*
G75*
G03*
X21470000Y-6745000I-20000J0D01*
G01*
X21500000Y-9260000D02*
G75*
G03*
X21500000Y-9260000I-20000J0D01*
G01*
X21635000Y-6745000D02*
G75*
G03*
X21635000Y-6745000I-20000J0D01*
G01*
X21635000Y-9365000D02*
G75*
G03*
X21635000Y-9365000I-20000J0D01*
G01*
X21635000Y-9635000D02*
G75*
G03*
X21635000Y-9635000I-20000J0D01*
G01*
X21795000Y-6745000D02*
G75*
G03*
X21795000Y-6745000I-20000J0D01*
G01*
X21890000Y-9255000D02*
G75*
G03*
X21890000Y-9255000I-20000J0D01*
G01*
X22058750Y-7525000D02*
G75*
G03*
X22058750Y-7525000I-20000J0D01*
G01*
X22061250Y-7675000D02*
G75*
G03*
X22061250Y-7675000I-20000J0D01*
G01*
X22257500Y-4680000D02*
G75*
G03*
X22257500Y-4680000I-20000J0D01*
G01*
X22260000Y-3647500D02*
G75*
G03*
X22260000Y-3647500I-20000J0D01*
G01*
X22260000Y-4157500D02*
G75*
G03*
X22260000Y-4157500I-20000J0D01*
G01*
X22260000Y-5195000D02*
G75*
G03*
X22260000Y-5195000I-20000J0D01*
G01*
X22270000Y-7755000D02*
G75*
G03*
X22270000Y-7755000I-20000J0D01*
G01*
X22275000Y-5695000D02*
G75*
G03*
X22275000Y-5695000I-20000J0D01*
G01*
X22460000Y-4995000D02*
G75*
G03*
X22460000Y-4995000I-20000J0D01*
G01*
X22497960Y-7554540D02*
G75*
G03*
X22497960Y-7554540I-20000J0D01*
G01*
X22575000Y-5045000D02*
G75*
G03*
X22575000Y-5045000I-20000J0D01*
G01*
X22595000Y-4550000D02*
G75*
G03*
X22595000Y-4550000I-20000J0D01*
G01*
X22635000Y-7418349D02*
G75*
G03*
X22635000Y-7418349I-20000J0D01*
G01*
D14*
X18738000Y-3838000D02*
X18738000Y-3918000D01*
X18698000Y-3878000D02*
X18778000Y-3878000D01*
X18738000Y-5362000D02*
X18738000Y-5442000D01*
X18698000Y-5402000D02*
X18778000Y-5402000D01*
X18992000Y-3838000D02*
X18992000Y-3918000D01*
X18952000Y-3878000D02*
X19032000Y-3878000D01*
X18992000Y-5362000D02*
X18992000Y-5442000D01*
X18952000Y-5402000D02*
X19032000Y-5402000D01*
X19246000Y-3838000D02*
X19246000Y-3918000D01*
X19206000Y-3878000D02*
X19286000Y-3878000D01*
X19246000Y-5362000D02*
X19246000Y-5442000D01*
X19206000Y-5402000D02*
X19286000Y-5402000D01*
X19500000Y-3838000D02*
X19500000Y-3918000D01*
X19460000Y-3878000D02*
X19540000Y-3878000D01*
X19500000Y-5362000D02*
X19500000Y-5442000D01*
X19460000Y-5402000D02*
X19540000Y-5402000D01*
X19754000Y-3838000D02*
X19754000Y-3918000D01*
X19714000Y-3878000D02*
X19794000Y-3878000D01*
X19754000Y-5362000D02*
X19754000Y-5442000D01*
X19714000Y-5402000D02*
X19794000Y-5402000D01*
X20008000Y-3838000D02*
X20008000Y-3918000D01*
X19968000Y-3878000D02*
X20048000Y-3878000D01*
X20008000Y-5362000D02*
X20008000Y-5442000D01*
X19968000Y-5402000D02*
X20048000Y-5402000D01*
X20262000Y-3838000D02*
X20262000Y-3918000D01*
X20222000Y-3878000D02*
X20302000Y-3878000D01*
X20262000Y-5362000D02*
X20262000Y-5442000D01*
X20222000Y-5402000D02*
X20302000Y-5402000D01*
D15*
X15816820Y-9506820D02*
X15816820Y-9443180D01*
X15753180Y-9443180D01*
X15753180Y-9506820D01*
X15816820Y-9506820D01*
X15816820Y-9706820D02*
X15816820Y-9643180D01*
X15753180Y-9643180D01*
X15753180Y-9706820D01*
X15816820Y-9706820D01*
X15816820Y-9906820D02*
X15816820Y-9843180D01*
X15753180Y-9843180D01*
X15753180Y-9906820D01*
X15816820Y-9906820D01*
D16*
X23188750Y-9477000D02*
X23238250Y-9427500D01*
X23188750Y-9378000D01*
X23139250Y-9427500D01*
X23188750Y-9477000D01*
X23188750Y-9927000D02*
X23238250Y-9877500D01*
X23188750Y-9828000D01*
X23139250Y-9877500D01*
X23188750Y-9927000D01*
X23193750Y-7964500D02*
X23243250Y-7915000D01*
X23193750Y-7865500D01*
X23144250Y-7915000D01*
X23193750Y-7964500D01*
X23193750Y-8414500D02*
X23243250Y-8365000D01*
X23193750Y-8315500D01*
X23144250Y-8365000D01*
X23193750Y-8414500D01*
D10*
X23020000Y-4859500D02*
X23120000Y-4959500D01*
X23120000Y-4859500D02*
X23020000Y-4959500D01*
X23120000Y-4909500D02*
G75*
G03*
X23120000Y-4909500I-50000J0D01*
G01*
X23020000Y-5113500D02*
X23120000Y-5213500D01*
X23120000Y-5113500D02*
X23020000Y-5213500D01*
X23120000Y-5163500D02*
G75*
G03*
X23120000Y-5163500I-50000J0D01*
G01*
X23020000Y-5367500D02*
X23120000Y-5467500D01*
X23120000Y-5367500D02*
X23020000Y-5467500D01*
X23120000Y-5417500D02*
G75*
G03*
X23120000Y-5417500I-50000J0D01*
G01*
X23020000Y-5621500D02*
X23120000Y-5721500D01*
X23120000Y-5621500D02*
X23020000Y-5721500D01*
X23120000Y-5671500D02*
G75*
G03*
X23120000Y-5671500I-50000J0D01*
G01*
X23020000Y-5875500D02*
X23120000Y-5975500D01*
X23120000Y-5875500D02*
X23020000Y-5975500D01*
X23120000Y-5925500D02*
G75*
G03*
X23120000Y-5925500I-50000J0D01*
G01*
X23020000Y-6129500D02*
X23120000Y-6229500D01*
X23120000Y-6129500D02*
X23020000Y-6229500D01*
X23120000Y-6179500D02*
G75*
G03*
X23120000Y-6179500I-50000J0D01*
G01*
X23020000Y-6383500D02*
X23120000Y-6483500D01*
X23120000Y-6383500D02*
X23020000Y-6483500D01*
X23120000Y-6433500D02*
G75*
G03*
X23120000Y-6433500I-50000J0D01*
G01*
X23020000Y-6637500D02*
X23120000Y-6737500D01*
X23120000Y-6637500D02*
X23020000Y-6737500D01*
X23120000Y-6687500D02*
G75*
G03*
X23120000Y-6687500I-50000J0D01*
G01*
D17*
X17068000Y-7370000D02*
X17188000Y-7490000D01*
X17188000Y-7370000D02*
X17068000Y-7490000D01*
X17128000Y-7370000D02*
X17128000Y-7490000D01*
X17068000Y-7430000D02*
X17188000Y-7430000D01*
X17068000Y-8640000D02*
X17188000Y-8760000D01*
X17188000Y-8640000D02*
X17068000Y-8760000D01*
X17128000Y-8640000D02*
X17128000Y-8760000D01*
X17068000Y-8700000D02*
X17188000Y-8700000D01*
D18*
X22874750Y-9237500D02*
X23004750Y-9367500D01*
X23004750Y-9237500D02*
X22874750Y-9367500D01*
X22985712Y-9348462D02*
X22985712Y-9256538D01*
X22893788Y-9256538D01*
X22893788Y-9348462D01*
X22985712Y-9348462D01*
X22874750Y-9938500D02*
X23004750Y-10068500D01*
X23004750Y-9938500D02*
X22874750Y-10068500D01*
X22985712Y-10049462D02*
X22985712Y-9957538D01*
X22893788Y-9957538D01*
X22893788Y-10049462D01*
X22985712Y-10049462D01*
X22879750Y-7725000D02*
X23009750Y-7855000D01*
X23009750Y-7725000D02*
X22879750Y-7855000D01*
X22990712Y-7835962D02*
X22990712Y-7744038D01*
X22898788Y-7744038D01*
X22898788Y-7835962D01*
X22990712Y-7835962D01*
X22879750Y-8426000D02*
X23009750Y-8556000D01*
X23009750Y-8426000D02*
X22879750Y-8556000D01*
X22990712Y-8536962D02*
X22990712Y-8445038D01*
X22898788Y-8445038D01*
X22898788Y-8536962D01*
X22990712Y-8536962D01*
D19*
X15710000Y-9190000D02*
X15860000Y-9340000D01*
X15860000Y-9190000D02*
X15710000Y-9340000D01*
X15785000Y-9340000D02*
X15860000Y-9265000D01*
X15785000Y-9190000D01*
X15710000Y-9265000D01*
X15785000Y-9340000D01*
X15710000Y-10010000D02*
X15860000Y-10160000D01*
X15860000Y-10010000D02*
X15710000Y-10160000D01*
X15785000Y-10160000D02*
X15860000Y-10085000D01*
X15785000Y-10010000D01*
X15710000Y-10085000D01*
X15785000Y-10160000D01*
D20*
X16000000Y-3850000D02*
X16000000Y-4150000D01*
X15850000Y-4000000D02*
X16150000Y-4000000D01*
X16150000Y-4000000D02*
G75*
G03*
X16150000Y-4000000I-150000J0D01*
G01*
X16000000Y-10850000D02*
X16000000Y-11150000D01*
X15850000Y-11000000D02*
X16150000Y-11000000D01*
X16150000Y-11000000D02*
G75*
G03*
X16150000Y-11000000I-150000J0D01*
G01*
X23000000Y-3850000D02*
X23000000Y-4150000D01*
X22850000Y-4000000D02*
X23150000Y-4000000D01*
X23150000Y-4000000D02*
G75*
G03*
X23150000Y-4000000I-150000J0D01*
G01*
X23000000Y-10850000D02*
X23000000Y-11150000D01*
X22850000Y-11000000D02*
X23150000Y-11000000D01*
X23150000Y-11000000D02*
G75*
G03*
X23150000Y-11000000I-150000J0D01*
G01*
D11*
X15752619Y-11815476D02*
X15752619Y-11615476D01*
X15800238Y-11615476D01*
X15828809Y-11625000D01*
X15847857Y-11644048D01*
X15857381Y-11663095D01*
X15866905Y-11701190D01*
X15866905Y-11729762D01*
X15857381Y-11767857D01*
X15847857Y-11786905D01*
X15828809Y-11805952D01*
X15800238Y-11815476D01*
X15752619Y-11815476D01*
X15952619Y-11815476D02*
X15952619Y-11682143D01*
X15952619Y-11720238D02*
X15962143Y-11701190D01*
X15971667Y-11691667D01*
X15990714Y-11682143D01*
X16009762Y-11682143D01*
X16076428Y-11815476D02*
X16076428Y-11682143D01*
X16076428Y-11615476D02*
X16066905Y-11625000D01*
X16076428Y-11634524D01*
X16085952Y-11625000D01*
X16076428Y-11615476D01*
X16076428Y-11634524D01*
X16200238Y-11815476D02*
X16181190Y-11805952D01*
X16171667Y-11786905D01*
X16171667Y-11615476D01*
X16305000Y-11815476D02*
X16285952Y-11805952D01*
X16276428Y-11786905D01*
X16276428Y-11615476D01*
X16533571Y-11815476D02*
X16533571Y-11615476D01*
X16600238Y-11758333D01*
X16666905Y-11615476D01*
X16666905Y-11815476D01*
X16847857Y-11815476D02*
X16847857Y-11710714D01*
X16838333Y-11691667D01*
X16819286Y-11682143D01*
X16781190Y-11682143D01*
X16762143Y-11691667D01*
X16847857Y-11805952D02*
X16828810Y-11815476D01*
X16781190Y-11815476D01*
X16762143Y-11805952D01*
X16752619Y-11786905D01*
X16752619Y-11767857D01*
X16762143Y-11748809D01*
X16781190Y-11739286D01*
X16828810Y-11739286D01*
X16847857Y-11729762D01*
X16943095Y-11682143D02*
X16943095Y-11882143D01*
X16943095Y-11691667D02*
X16962143Y-11682143D01*
X17000238Y-11682143D01*
X17019286Y-11691667D01*
X17028810Y-11701190D01*
X17038333Y-11720238D01*
X17038333Y-11777381D01*
X17028810Y-11796428D01*
X17019286Y-11805952D01*
X17000238Y-11815476D01*
X16962143Y-11815476D01*
X16943095Y-11805952D01*
X17124048Y-11796428D02*
X17133571Y-11805952D01*
X17124048Y-11815476D01*
X17114524Y-11805952D01*
X17124048Y-11796428D01*
X17124048Y-11815476D01*
X17124048Y-11691667D02*
X17133571Y-11701190D01*
X17124048Y-11710714D01*
X17114524Y-11701190D01*
X17124048Y-11691667D01*
X17124048Y-11710714D01*
D12*
X15465000Y-12130000D02*
X15495000Y-12160000D01*
X15495000Y-12130000D02*
X15465000Y-12160000D01*
D11*
X15790714Y-12035476D02*
X15809762Y-12035476D01*
X15828809Y-12045000D01*
X15838333Y-12054524D01*
X15847857Y-12073571D01*
X15857381Y-12111667D01*
X15857381Y-12159286D01*
X15847857Y-12197381D01*
X15838333Y-12216428D01*
X15828809Y-12225952D01*
X15809762Y-12235476D01*
X15790714Y-12235476D01*
X15771667Y-12225952D01*
X15762143Y-12216428D01*
X15752619Y-12197381D01*
X15743095Y-12159286D01*
X15743095Y-12111667D01*
X15752619Y-12073571D01*
X15762143Y-12054524D01*
X15771667Y-12045000D01*
X15790714Y-12035476D01*
X15943095Y-12216428D02*
X15952619Y-12225952D01*
X15943095Y-12235476D01*
X15933571Y-12225952D01*
X15943095Y-12216428D01*
X15943095Y-12235476D01*
X16019286Y-12035476D02*
X16143095Y-12035476D01*
X16076428Y-12111667D01*
X16105000Y-12111667D01*
X16124048Y-12121190D01*
X16133571Y-12130714D01*
X16143095Y-12149762D01*
X16143095Y-12197381D01*
X16133571Y-12216428D01*
X16124048Y-12225952D01*
X16105000Y-12235476D01*
X16047857Y-12235476D01*
X16028809Y-12225952D01*
X16019286Y-12216428D01*
X16266905Y-12035476D02*
X16285952Y-12035476D01*
X16305000Y-12045000D01*
X16314524Y-12054524D01*
X16324048Y-12073571D01*
X16333571Y-12111667D01*
X16333571Y-12159286D01*
X16324048Y-12197381D01*
X16314524Y-12216428D01*
X16305000Y-12225952D01*
X16285952Y-12235476D01*
X16266905Y-12235476D01*
X16247857Y-12225952D01*
X16238333Y-12216428D01*
X16228809Y-12197381D01*
X16219286Y-12159286D01*
X16219286Y-12111667D01*
X16228809Y-12073571D01*
X16238333Y-12054524D01*
X16247857Y-12045000D01*
X16266905Y-12035476D01*
X16457381Y-12035476D02*
X16476428Y-12035476D01*
X16495476Y-12045000D01*
X16505000Y-12054524D01*
X16514524Y-12073571D01*
X16524048Y-12111667D01*
X16524048Y-12159286D01*
X16514524Y-12197381D01*
X16505000Y-12216428D01*
X16495476Y-12225952D01*
X16476428Y-12235476D01*
X16457381Y-12235476D01*
X16438333Y-12225952D01*
X16428809Y-12216428D01*
X16419286Y-12197381D01*
X16409762Y-12159286D01*
X16409762Y-12111667D01*
X16419286Y-12073571D01*
X16428809Y-12054524D01*
X16438333Y-12045000D01*
X16457381Y-12035476D01*
X16609762Y-12235476D02*
X16609762Y-12102143D01*
X16609762Y-12121190D02*
X16619286Y-12111667D01*
X16638333Y-12102143D01*
X16666905Y-12102143D01*
X16685952Y-12111667D01*
X16695476Y-12130714D01*
X16695476Y-12235476D01*
X16695476Y-12130714D02*
X16705000Y-12111667D01*
X16724048Y-12102143D01*
X16752619Y-12102143D01*
X16771667Y-12111667D01*
X16781190Y-12130714D01*
X16781190Y-12235476D01*
X16876429Y-12235476D02*
X16876429Y-12102143D01*
X16876429Y-12121190D02*
X16885952Y-12111667D01*
X16905000Y-12102143D01*
X16933571Y-12102143D01*
X16952619Y-12111667D01*
X16962143Y-12130714D01*
X16962143Y-12235476D01*
X16962143Y-12130714D02*
X16971667Y-12111667D01*
X16990714Y-12102143D01*
X17019286Y-12102143D01*
X17038333Y-12111667D01*
X17047857Y-12130714D01*
X17047857Y-12235476D01*
X17438333Y-12025952D02*
X17266905Y-12283095D01*
X17695476Y-12035476D02*
X17714524Y-12035476D01*
X17733571Y-12045000D01*
X17743095Y-12054524D01*
X17752619Y-12073571D01*
X17762143Y-12111667D01*
X17762143Y-12159286D01*
X17752619Y-12197381D01*
X17743095Y-12216428D01*
X17733571Y-12225952D01*
X17714524Y-12235476D01*
X17695476Y-12235476D01*
X17676429Y-12225952D01*
X17666905Y-12216428D01*
X17657381Y-12197381D01*
X17647857Y-12159286D01*
X17647857Y-12111667D01*
X17657381Y-12073571D01*
X17666905Y-12054524D01*
X17676429Y-12045000D01*
X17695476Y-12035476D01*
X17847857Y-12216428D02*
X17857381Y-12225952D01*
X17847857Y-12235476D01*
X17838333Y-12225952D01*
X17847857Y-12216428D01*
X17847857Y-12235476D01*
X17981190Y-12035476D02*
X18000238Y-12035476D01*
X18019286Y-12045000D01*
X18028810Y-12054524D01*
X18038333Y-12073571D01*
X18047857Y-12111667D01*
X18047857Y-12159286D01*
X18038333Y-12197381D01*
X18028810Y-12216428D01*
X18019286Y-12225952D01*
X18000238Y-12235476D01*
X17981190Y-12235476D01*
X17962143Y-12225952D01*
X17952619Y-12216428D01*
X17943095Y-12197381D01*
X17933571Y-12159286D01*
X17933571Y-12111667D01*
X17943095Y-12073571D01*
X17952619Y-12054524D01*
X17962143Y-12045000D01*
X17981190Y-12035476D01*
X18238333Y-12235476D02*
X18124048Y-12235476D01*
X18181190Y-12235476D02*
X18181190Y-12035476D01*
X18162143Y-12064048D01*
X18143095Y-12083095D01*
X18124048Y-12092619D01*
X18428810Y-12235476D02*
X18314524Y-12235476D01*
X18371667Y-12235476D02*
X18371667Y-12035476D01*
X18352619Y-12064048D01*
X18333571Y-12083095D01*
X18314524Y-12092619D01*
X18543095Y-12121190D02*
X18524048Y-12111667D01*
X18514524Y-12102143D01*
X18505000Y-12083095D01*
X18505000Y-12073571D01*
X18514524Y-12054524D01*
X18524048Y-12045000D01*
X18543095Y-12035476D01*
X18581190Y-12035476D01*
X18600238Y-12045000D01*
X18609762Y-12054524D01*
X18619286Y-12073571D01*
X18619286Y-12083095D01*
X18609762Y-12102143D01*
X18600238Y-12111667D01*
X18581190Y-12121190D01*
X18543095Y-12121190D01*
X18524048Y-12130714D01*
X18514524Y-12140238D01*
X18505000Y-12159286D01*
X18505000Y-12197381D01*
X18514524Y-12216428D01*
X18524048Y-12225952D01*
X18543095Y-12235476D01*
X18581190Y-12235476D01*
X18600238Y-12225952D01*
X18609762Y-12216428D01*
X18619286Y-12197381D01*
X18619286Y-12159286D01*
X18609762Y-12140238D01*
X18600238Y-12130714D01*
X18581190Y-12121190D01*
X18695476Y-12035476D02*
X18695476Y-12073571D01*
X18771667Y-12035476D02*
X18771667Y-12073571D01*
X19066905Y-12311667D02*
X19057381Y-12302143D01*
X19038333Y-12273571D01*
X19028810Y-12254524D01*
X19019286Y-12225952D01*
X19009762Y-12178333D01*
X19009762Y-12140238D01*
X19019286Y-12092619D01*
X19028810Y-12064048D01*
X19038333Y-12045000D01*
X19057381Y-12016428D01*
X19066905Y-12006905D01*
X19228810Y-12102143D02*
X19228810Y-12235476D01*
X19181190Y-12025952D02*
X19133571Y-12168809D01*
X19257381Y-12168809D01*
X19371667Y-12035476D02*
X19390714Y-12035476D01*
X19409762Y-12045000D01*
X19419286Y-12054524D01*
X19428810Y-12073571D01*
X19438333Y-12111667D01*
X19438333Y-12159286D01*
X19428810Y-12197381D01*
X19419286Y-12216428D01*
X19409762Y-12225952D01*
X19390714Y-12235476D01*
X19371667Y-12235476D01*
X19352619Y-12225952D01*
X19343095Y-12216428D01*
X19333571Y-12197381D01*
X19324048Y-12159286D01*
X19324048Y-12111667D01*
X19333571Y-12073571D01*
X19343095Y-12054524D01*
X19352619Y-12045000D01*
X19371667Y-12035476D01*
X19676429Y-12235476D02*
X19676429Y-12035476D01*
X19762143Y-12235476D02*
X19762143Y-12130714D01*
X19752619Y-12111667D01*
X19733571Y-12102143D01*
X19705000Y-12102143D01*
X19685952Y-12111667D01*
X19676429Y-12121190D01*
X19885952Y-12235476D02*
X19866905Y-12225952D01*
X19857381Y-12216428D01*
X19847857Y-12197381D01*
X19847857Y-12140238D01*
X19857381Y-12121190D01*
X19866905Y-12111667D01*
X19885952Y-12102143D01*
X19914524Y-12102143D01*
X19933571Y-12111667D01*
X19943095Y-12121190D01*
X19952619Y-12140238D01*
X19952619Y-12197381D01*
X19943095Y-12216428D01*
X19933571Y-12225952D01*
X19914524Y-12235476D01*
X19885952Y-12235476D01*
X20066905Y-12235476D02*
X20047857Y-12225952D01*
X20038333Y-12206905D01*
X20038333Y-12035476D01*
X20219286Y-12225952D02*
X20200238Y-12235476D01*
X20162143Y-12235476D01*
X20143095Y-12225952D01*
X20133571Y-12206905D01*
X20133571Y-12130714D01*
X20143095Y-12111667D01*
X20162143Y-12102143D01*
X20200238Y-12102143D01*
X20219286Y-12111667D01*
X20228810Y-12130714D01*
X20228810Y-12149762D01*
X20133571Y-12168809D01*
X20305000Y-12225952D02*
X20324048Y-12235476D01*
X20362143Y-12235476D01*
X20381190Y-12225952D01*
X20390714Y-12206905D01*
X20390714Y-12197381D01*
X20381190Y-12178333D01*
X20362143Y-12168809D01*
X20333571Y-12168809D01*
X20314524Y-12159286D01*
X20305000Y-12140238D01*
X20305000Y-12130714D01*
X20314524Y-12111667D01*
X20333571Y-12102143D01*
X20362143Y-12102143D01*
X20381190Y-12111667D01*
X20457381Y-12311667D02*
X20466905Y-12302143D01*
X20485952Y-12273571D01*
X20495476Y-12254524D01*
X20505000Y-12225952D01*
X20514524Y-12178333D01*
X20514524Y-12140238D01*
X20505000Y-12092619D01*
X20495476Y-12064048D01*
X20485952Y-12045000D01*
X20466905Y-12016428D01*
X20457381Y-12006905D01*
D13*
X15495000Y-12409000D02*
G75*
G03*
X15495000Y-12409000I-20000J0D01*
G01*
D11*
X15790714Y-12299476D02*
X15809762Y-12299476D01*
X15828809Y-12309000D01*
X15838333Y-12318524D01*
X15847857Y-12337571D01*
X15857381Y-12375667D01*
X15857381Y-12423286D01*
X15847857Y-12461381D01*
X15838333Y-12480428D01*
X15828809Y-12489952D01*
X15809762Y-12499476D01*
X15790714Y-12499476D01*
X15771667Y-12489952D01*
X15762143Y-12480428D01*
X15752619Y-12461381D01*
X15743095Y-12423286D01*
X15743095Y-12375667D01*
X15752619Y-12337571D01*
X15762143Y-12318524D01*
X15771667Y-12309000D01*
X15790714Y-12299476D01*
X15943095Y-12480428D02*
X15952619Y-12489952D01*
X15943095Y-12499476D01*
X15933571Y-12489952D01*
X15943095Y-12480428D01*
X15943095Y-12499476D01*
X16124048Y-12366143D02*
X16124048Y-12499476D01*
X16076428Y-12289952D02*
X16028809Y-12432809D01*
X16152619Y-12432809D01*
X16266905Y-12299476D02*
X16285952Y-12299476D01*
X16305000Y-12309000D01*
X16314524Y-12318524D01*
X16324048Y-12337571D01*
X16333571Y-12375667D01*
X16333571Y-12423286D01*
X16324048Y-12461381D01*
X16314524Y-12480428D01*
X16305000Y-12489952D01*
X16285952Y-12499476D01*
X16266905Y-12499476D01*
X16247857Y-12489952D01*
X16238333Y-12480428D01*
X16228809Y-12461381D01*
X16219286Y-12423286D01*
X16219286Y-12375667D01*
X16228809Y-12337571D01*
X16238333Y-12318524D01*
X16247857Y-12309000D01*
X16266905Y-12299476D01*
X16457381Y-12299476D02*
X16476428Y-12299476D01*
X16495476Y-12309000D01*
X16505000Y-12318524D01*
X16514524Y-12337571D01*
X16524048Y-12375667D01*
X16524048Y-12423286D01*
X16514524Y-12461381D01*
X16505000Y-12480428D01*
X16495476Y-12489952D01*
X16476428Y-12499476D01*
X16457381Y-12499476D01*
X16438333Y-12489952D01*
X16428809Y-12480428D01*
X16419286Y-12461381D01*
X16409762Y-12423286D01*
X16409762Y-12375667D01*
X16419286Y-12337571D01*
X16428809Y-12318524D01*
X16438333Y-12309000D01*
X16457381Y-12299476D01*
X16609762Y-12499476D02*
X16609762Y-12366143D01*
X16609762Y-12385190D02*
X16619286Y-12375667D01*
X16638333Y-12366143D01*
X16666905Y-12366143D01*
X16685952Y-12375667D01*
X16695476Y-12394714D01*
X16695476Y-12499476D01*
X16695476Y-12394714D02*
X16705000Y-12375667D01*
X16724048Y-12366143D01*
X16752619Y-12366143D01*
X16771667Y-12375667D01*
X16781190Y-12394714D01*
X16781190Y-12499476D01*
X16876429Y-12499476D02*
X16876429Y-12366143D01*
X16876429Y-12385190D02*
X16885952Y-12375667D01*
X16905000Y-12366143D01*
X16933571Y-12366143D01*
X16952619Y-12375667D01*
X16962143Y-12394714D01*
X16962143Y-12499476D01*
X16962143Y-12394714D02*
X16971667Y-12375667D01*
X16990714Y-12366143D01*
X17019286Y-12366143D01*
X17038333Y-12375667D01*
X17047857Y-12394714D01*
X17047857Y-12499476D01*
X17438333Y-12289952D02*
X17266905Y-12547095D01*
X17695476Y-12299476D02*
X17714524Y-12299476D01*
X17733571Y-12309000D01*
X17743095Y-12318524D01*
X17752619Y-12337571D01*
X17762143Y-12375667D01*
X17762143Y-12423286D01*
X17752619Y-12461381D01*
X17743095Y-12480428D01*
X17733571Y-12489952D01*
X17714524Y-12499476D01*
X17695476Y-12499476D01*
X17676429Y-12489952D01*
X17666905Y-12480428D01*
X17657381Y-12461381D01*
X17647857Y-12423286D01*
X17647857Y-12375667D01*
X17657381Y-12337571D01*
X17666905Y-12318524D01*
X17676429Y-12309000D01*
X17695476Y-12299476D01*
X17847857Y-12480428D02*
X17857381Y-12489952D01*
X17847857Y-12499476D01*
X17838333Y-12489952D01*
X17847857Y-12480428D01*
X17847857Y-12499476D01*
X17981190Y-12299476D02*
X18000238Y-12299476D01*
X18019286Y-12309000D01*
X18028810Y-12318524D01*
X18038333Y-12337571D01*
X18047857Y-12375667D01*
X18047857Y-12423286D01*
X18038333Y-12461381D01*
X18028810Y-12480428D01*
X18019286Y-12489952D01*
X18000238Y-12499476D01*
X17981190Y-12499476D01*
X17962143Y-12489952D01*
X17952619Y-12480428D01*
X17943095Y-12461381D01*
X17933571Y-12423286D01*
X17933571Y-12375667D01*
X17943095Y-12337571D01*
X17952619Y-12318524D01*
X17962143Y-12309000D01*
X17981190Y-12299476D01*
X18238333Y-12499476D02*
X18124048Y-12499476D01*
X18181190Y-12499476D02*
X18181190Y-12299476D01*
X18162143Y-12328048D01*
X18143095Y-12347095D01*
X18124048Y-12356619D01*
X18419286Y-12299476D02*
X18324048Y-12299476D01*
X18314524Y-12394714D01*
X18324048Y-12385190D01*
X18343095Y-12375667D01*
X18390714Y-12375667D01*
X18409762Y-12385190D01*
X18419286Y-12394714D01*
X18428810Y-12413762D01*
X18428810Y-12461381D01*
X18419286Y-12480428D01*
X18409762Y-12489952D01*
X18390714Y-12499476D01*
X18343095Y-12499476D01*
X18324048Y-12489952D01*
X18314524Y-12480428D01*
X18495476Y-12299476D02*
X18628810Y-12299476D01*
X18543095Y-12499476D01*
X18695476Y-12299476D02*
X18695476Y-12337571D01*
X18771667Y-12299476D02*
X18771667Y-12337571D01*
X19066905Y-12575667D02*
X19057381Y-12566143D01*
X19038333Y-12537571D01*
X19028810Y-12518524D01*
X19019286Y-12489952D01*
X19009762Y-12442333D01*
X19009762Y-12404238D01*
X19019286Y-12356619D01*
X19028810Y-12328048D01*
X19038333Y-12309000D01*
X19057381Y-12280428D01*
X19066905Y-12270905D01*
X19238333Y-12299476D02*
X19143095Y-12299476D01*
X19133571Y-12394714D01*
X19143095Y-12385190D01*
X19162143Y-12375667D01*
X19209762Y-12375667D01*
X19228810Y-12385190D01*
X19238333Y-12394714D01*
X19247857Y-12413762D01*
X19247857Y-12461381D01*
X19238333Y-12480428D01*
X19228810Y-12489952D01*
X19209762Y-12499476D01*
X19162143Y-12499476D01*
X19143095Y-12489952D01*
X19133571Y-12480428D01*
X19314524Y-12299476D02*
X19438333Y-12299476D01*
X19371667Y-12375667D01*
X19400238Y-12375667D01*
X19419286Y-12385190D01*
X19428810Y-12394714D01*
X19438333Y-12413762D01*
X19438333Y-12461381D01*
X19428810Y-12480428D01*
X19419286Y-12489952D01*
X19400238Y-12499476D01*
X19343095Y-12499476D01*
X19324048Y-12489952D01*
X19314524Y-12480428D01*
X19676429Y-12499476D02*
X19676429Y-12299476D01*
X19762143Y-12499476D02*
X19762143Y-12394714D01*
X19752619Y-12375667D01*
X19733571Y-12366143D01*
X19705000Y-12366143D01*
X19685952Y-12375667D01*
X19676429Y-12385190D01*
X19885952Y-12499476D02*
X19866905Y-12489952D01*
X19857381Y-12480428D01*
X19847857Y-12461381D01*
X19847857Y-12404238D01*
X19857381Y-12385190D01*
X19866905Y-12375667D01*
X19885952Y-12366143D01*
X19914524Y-12366143D01*
X19933571Y-12375667D01*
X19943095Y-12385190D01*
X19952619Y-12404238D01*
X19952619Y-12461381D01*
X19943095Y-12480428D01*
X19933571Y-12489952D01*
X19914524Y-12499476D01*
X19885952Y-12499476D01*
X20066905Y-12499476D02*
X20047857Y-12489952D01*
X20038333Y-12470905D01*
X20038333Y-12299476D01*
X20219286Y-12489952D02*
X20200238Y-12499476D01*
X20162143Y-12499476D01*
X20143095Y-12489952D01*
X20133571Y-12470905D01*
X20133571Y-12394714D01*
X20143095Y-12375667D01*
X20162143Y-12366143D01*
X20200238Y-12366143D01*
X20219286Y-12375667D01*
X20228810Y-12394714D01*
X20228810Y-12413762D01*
X20133571Y-12432809D01*
X20305000Y-12489952D02*
X20324048Y-12499476D01*
X20362143Y-12499476D01*
X20381190Y-12489952D01*
X20390714Y-12470905D01*
X20390714Y-12461381D01*
X20381190Y-12442333D01*
X20362143Y-12432809D01*
X20333571Y-12432809D01*
X20314524Y-12423286D01*
X20305000Y-12404238D01*
X20305000Y-12394714D01*
X20314524Y-12375667D01*
X20333571Y-12366143D01*
X20362143Y-12366143D01*
X20381190Y-12375667D01*
X20457381Y-12575667D02*
X20466905Y-12566143D01*
X20485952Y-12537571D01*
X20495476Y-12518524D01*
X20505000Y-12489952D01*
X20514524Y-12442333D01*
X20514524Y-12404238D01*
X20505000Y-12356619D01*
X20495476Y-12328048D01*
X20485952Y-12309000D01*
X20466905Y-12280428D01*
X20457381Y-12270905D01*
D14*
X15455000Y-12633000D02*
X15455000Y-12713000D01*
X15415000Y-12673000D02*
X15495000Y-12673000D01*
D11*
X15790714Y-12563476D02*
X15809762Y-12563476D01*
X15828809Y-12573000D01*
X15838333Y-12582524D01*
X15847857Y-12601571D01*
X15857381Y-12639667D01*
X15857381Y-12687286D01*
X15847857Y-12725381D01*
X15838333Y-12744428D01*
X15828809Y-12753952D01*
X15809762Y-12763476D01*
X15790714Y-12763476D01*
X15771667Y-12753952D01*
X15762143Y-12744428D01*
X15752619Y-12725381D01*
X15743095Y-12687286D01*
X15743095Y-12639667D01*
X15752619Y-12601571D01*
X15762143Y-12582524D01*
X15771667Y-12573000D01*
X15790714Y-12563476D01*
X15943095Y-12744428D02*
X15952619Y-12753952D01*
X15943095Y-12763476D01*
X15933571Y-12753952D01*
X15943095Y-12744428D01*
X15943095Y-12763476D01*
X16066905Y-12649190D02*
X16047857Y-12639667D01*
X16038333Y-12630143D01*
X16028809Y-12611095D01*
X16028809Y-12601571D01*
X16038333Y-12582524D01*
X16047857Y-12573000D01*
X16066905Y-12563476D01*
X16105000Y-12563476D01*
X16124048Y-12573000D01*
X16133571Y-12582524D01*
X16143095Y-12601571D01*
X16143095Y-12611095D01*
X16133571Y-12630143D01*
X16124048Y-12639667D01*
X16105000Y-12649190D01*
X16066905Y-12649190D01*
X16047857Y-12658714D01*
X16038333Y-12668238D01*
X16028809Y-12687286D01*
X16028809Y-12725381D01*
X16038333Y-12744428D01*
X16047857Y-12753952D01*
X16066905Y-12763476D01*
X16105000Y-12763476D01*
X16124048Y-12753952D01*
X16133571Y-12744428D01*
X16143095Y-12725381D01*
X16143095Y-12687286D01*
X16133571Y-12668238D01*
X16124048Y-12658714D01*
X16105000Y-12649190D01*
X16266905Y-12563476D02*
X16285952Y-12563476D01*
X16305000Y-12573000D01*
X16314524Y-12582524D01*
X16324048Y-12601571D01*
X16333571Y-12639667D01*
X16333571Y-12687286D01*
X16324048Y-12725381D01*
X16314524Y-12744428D01*
X16305000Y-12753952D01*
X16285952Y-12763476D01*
X16266905Y-12763476D01*
X16247857Y-12753952D01*
X16238333Y-12744428D01*
X16228809Y-12725381D01*
X16219286Y-12687286D01*
X16219286Y-12639667D01*
X16228809Y-12601571D01*
X16238333Y-12582524D01*
X16247857Y-12573000D01*
X16266905Y-12563476D01*
X16457381Y-12563476D02*
X16476428Y-12563476D01*
X16495476Y-12573000D01*
X16505000Y-12582524D01*
X16514524Y-12601571D01*
X16524048Y-12639667D01*
X16524048Y-12687286D01*
X16514524Y-12725381D01*
X16505000Y-12744428D01*
X16495476Y-12753952D01*
X16476428Y-12763476D01*
X16457381Y-12763476D01*
X16438333Y-12753952D01*
X16428809Y-12744428D01*
X16419286Y-12725381D01*
X16409762Y-12687286D01*
X16409762Y-12639667D01*
X16419286Y-12601571D01*
X16428809Y-12582524D01*
X16438333Y-12573000D01*
X16457381Y-12563476D01*
X16609762Y-12763476D02*
X16609762Y-12630143D01*
X16609762Y-12649190D02*
X16619286Y-12639667D01*
X16638333Y-12630143D01*
X16666905Y-12630143D01*
X16685952Y-12639667D01*
X16695476Y-12658714D01*
X16695476Y-12763476D01*
X16695476Y-12658714D02*
X16705000Y-12639667D01*
X16724048Y-12630143D01*
X16752619Y-12630143D01*
X16771667Y-12639667D01*
X16781190Y-12658714D01*
X16781190Y-12763476D01*
X16876429Y-12763476D02*
X16876429Y-12630143D01*
X16876429Y-12649190D02*
X16885952Y-12639667D01*
X16905000Y-12630143D01*
X16933571Y-12630143D01*
X16952619Y-12639667D01*
X16962143Y-12658714D01*
X16962143Y-12763476D01*
X16962143Y-12658714D02*
X16971667Y-12639667D01*
X16990714Y-12630143D01*
X17019286Y-12630143D01*
X17038333Y-12639667D01*
X17047857Y-12658714D01*
X17047857Y-12763476D01*
X17438333Y-12553952D02*
X17266905Y-12811095D01*
X17695476Y-12563476D02*
X17714524Y-12563476D01*
X17733571Y-12573000D01*
X17743095Y-12582524D01*
X17752619Y-12601571D01*
X17762143Y-12639667D01*
X17762143Y-12687286D01*
X17752619Y-12725381D01*
X17743095Y-12744428D01*
X17733571Y-12753952D01*
X17714524Y-12763476D01*
X17695476Y-12763476D01*
X17676429Y-12753952D01*
X17666905Y-12744428D01*
X17657381Y-12725381D01*
X17647857Y-12687286D01*
X17647857Y-12639667D01*
X17657381Y-12601571D01*
X17666905Y-12582524D01*
X17676429Y-12573000D01*
X17695476Y-12563476D01*
X17847857Y-12744428D02*
X17857381Y-12753952D01*
X17847857Y-12763476D01*
X17838333Y-12753952D01*
X17847857Y-12744428D01*
X17847857Y-12763476D01*
X17981190Y-12563476D02*
X18000238Y-12563476D01*
X18019286Y-12573000D01*
X18028810Y-12582524D01*
X18038333Y-12601571D01*
X18047857Y-12639667D01*
X18047857Y-12687286D01*
X18038333Y-12725381D01*
X18028810Y-12744428D01*
X18019286Y-12753952D01*
X18000238Y-12763476D01*
X17981190Y-12763476D01*
X17962143Y-12753952D01*
X17952619Y-12744428D01*
X17943095Y-12725381D01*
X17933571Y-12687286D01*
X17933571Y-12639667D01*
X17943095Y-12601571D01*
X17952619Y-12582524D01*
X17962143Y-12573000D01*
X17981190Y-12563476D01*
X18114524Y-12563476D02*
X18238333Y-12563476D01*
X18171667Y-12639667D01*
X18200238Y-12639667D01*
X18219286Y-12649190D01*
X18228810Y-12658714D01*
X18238333Y-12677762D01*
X18238333Y-12725381D01*
X18228810Y-12744428D01*
X18219286Y-12753952D01*
X18200238Y-12763476D01*
X18143095Y-12763476D01*
X18124048Y-12753952D01*
X18114524Y-12744428D01*
X18428810Y-12763476D02*
X18314524Y-12763476D01*
X18371667Y-12763476D02*
X18371667Y-12563476D01*
X18352619Y-12592048D01*
X18333571Y-12611095D01*
X18314524Y-12620619D01*
X18609762Y-12563476D02*
X18514524Y-12563476D01*
X18505000Y-12658714D01*
X18514524Y-12649190D01*
X18533571Y-12639667D01*
X18581190Y-12639667D01*
X18600238Y-12649190D01*
X18609762Y-12658714D01*
X18619286Y-12677762D01*
X18619286Y-12725381D01*
X18609762Y-12744428D01*
X18600238Y-12753952D01*
X18581190Y-12763476D01*
X18533571Y-12763476D01*
X18514524Y-12753952D01*
X18505000Y-12744428D01*
X18695476Y-12563476D02*
X18695476Y-12601571D01*
X18771667Y-12563476D02*
X18771667Y-12601571D01*
X19066905Y-12839667D02*
X19057381Y-12830143D01*
X19038333Y-12801571D01*
X19028810Y-12782524D01*
X19019286Y-12753952D01*
X19009762Y-12706333D01*
X19009762Y-12668238D01*
X19019286Y-12620619D01*
X19028810Y-12592048D01*
X19038333Y-12573000D01*
X19057381Y-12544428D01*
X19066905Y-12534905D01*
X19247857Y-12763476D02*
X19133571Y-12763476D01*
X19190714Y-12763476D02*
X19190714Y-12563476D01*
X19171667Y-12592048D01*
X19152619Y-12611095D01*
X19133571Y-12620619D01*
X19419286Y-12630143D02*
X19419286Y-12763476D01*
X19371667Y-12553952D02*
X19324048Y-12696809D01*
X19447857Y-12696809D01*
X19676429Y-12763476D02*
X19676429Y-12563476D01*
X19762143Y-12763476D02*
X19762143Y-12658714D01*
X19752619Y-12639667D01*
X19733571Y-12630143D01*
X19705000Y-12630143D01*
X19685952Y-12639667D01*
X19676429Y-12649190D01*
X19885952Y-12763476D02*
X19866905Y-12753952D01*
X19857381Y-12744428D01*
X19847857Y-12725381D01*
X19847857Y-12668238D01*
X19857381Y-12649190D01*
X19866905Y-12639667D01*
X19885952Y-12630143D01*
X19914524Y-12630143D01*
X19933571Y-12639667D01*
X19943095Y-12649190D01*
X19952619Y-12668238D01*
X19952619Y-12725381D01*
X19943095Y-12744428D01*
X19933571Y-12753952D01*
X19914524Y-12763476D01*
X19885952Y-12763476D01*
X20066905Y-12763476D02*
X20047857Y-12753952D01*
X20038333Y-12734905D01*
X20038333Y-12563476D01*
X20219286Y-12753952D02*
X20200238Y-12763476D01*
X20162143Y-12763476D01*
X20143095Y-12753952D01*
X20133571Y-12734905D01*
X20133571Y-12658714D01*
X20143095Y-12639667D01*
X20162143Y-12630143D01*
X20200238Y-12630143D01*
X20219286Y-12639667D01*
X20228810Y-12658714D01*
X20228810Y-12677762D01*
X20133571Y-12696809D01*
X20305000Y-12753952D02*
X20324048Y-12763476D01*
X20362143Y-12763476D01*
X20381190Y-12753952D01*
X20390714Y-12734905D01*
X20390714Y-12725381D01*
X20381190Y-12706333D01*
X20362143Y-12696809D01*
X20333571Y-12696809D01*
X20314524Y-12687286D01*
X20305000Y-12668238D01*
X20305000Y-12658714D01*
X20314524Y-12639667D01*
X20333571Y-12630143D01*
X20362143Y-12630143D01*
X20381190Y-12639667D01*
X20457381Y-12839667D02*
X20466905Y-12830143D01*
X20485952Y-12801571D01*
X20495476Y-12782524D01*
X20505000Y-12753952D01*
X20514524Y-12706333D01*
X20514524Y-12668238D01*
X20505000Y-12620619D01*
X20495476Y-12592048D01*
X20485952Y-12573000D01*
X20466905Y-12544428D01*
X20457381Y-12534905D01*
D15*
X15481820Y-12968820D02*
X15481820Y-12905180D01*
X15418180Y-12905180D01*
X15418180Y-12968820D01*
X15481820Y-12968820D01*
D11*
X15790714Y-12827476D02*
X15809762Y-12827476D01*
X15828809Y-12837000D01*
X15838333Y-12846524D01*
X15847857Y-12865571D01*
X15857381Y-12903667D01*
X15857381Y-12951286D01*
X15847857Y-12989381D01*
X15838333Y-13008428D01*
X15828809Y-13017952D01*
X15809762Y-13027476D01*
X15790714Y-13027476D01*
X15771667Y-13017952D01*
X15762143Y-13008428D01*
X15752619Y-12989381D01*
X15743095Y-12951286D01*
X15743095Y-12903667D01*
X15752619Y-12865571D01*
X15762143Y-12846524D01*
X15771667Y-12837000D01*
X15790714Y-12827476D01*
X15943095Y-13008428D02*
X15952619Y-13017952D01*
X15943095Y-13027476D01*
X15933571Y-13017952D01*
X15943095Y-13008428D01*
X15943095Y-13027476D01*
X16047857Y-13027476D02*
X16085952Y-13027476D01*
X16105000Y-13017952D01*
X16114524Y-13008428D01*
X16133571Y-12979857D01*
X16143095Y-12941762D01*
X16143095Y-12865571D01*
X16133571Y-12846524D01*
X16124048Y-12837000D01*
X16105000Y-12827476D01*
X16066905Y-12827476D01*
X16047857Y-12837000D01*
X16038333Y-12846524D01*
X16028809Y-12865571D01*
X16028809Y-12913190D01*
X16038333Y-12932238D01*
X16047857Y-12941762D01*
X16066905Y-12951286D01*
X16105000Y-12951286D01*
X16124048Y-12941762D01*
X16133571Y-12932238D01*
X16143095Y-12913190D01*
X16266905Y-12827476D02*
X16285952Y-12827476D01*
X16305000Y-12837000D01*
X16314524Y-12846524D01*
X16324048Y-12865571D01*
X16333571Y-12903667D01*
X16333571Y-12951286D01*
X16324048Y-12989381D01*
X16314524Y-13008428D01*
X16305000Y-13017952D01*
X16285952Y-13027476D01*
X16266905Y-13027476D01*
X16247857Y-13017952D01*
X16238333Y-13008428D01*
X16228809Y-12989381D01*
X16219286Y-12951286D01*
X16219286Y-12903667D01*
X16228809Y-12865571D01*
X16238333Y-12846524D01*
X16247857Y-12837000D01*
X16266905Y-12827476D01*
X16457381Y-12827476D02*
X16476428Y-12827476D01*
X16495476Y-12837000D01*
X16505000Y-12846524D01*
X16514524Y-12865571D01*
X16524048Y-12903667D01*
X16524048Y-12951286D01*
X16514524Y-12989381D01*
X16505000Y-13008428D01*
X16495476Y-13017952D01*
X16476428Y-13027476D01*
X16457381Y-13027476D01*
X16438333Y-13017952D01*
X16428809Y-13008428D01*
X16419286Y-12989381D01*
X16409762Y-12951286D01*
X16409762Y-12903667D01*
X16419286Y-12865571D01*
X16428809Y-12846524D01*
X16438333Y-12837000D01*
X16457381Y-12827476D01*
X16609762Y-13027476D02*
X16609762Y-12894143D01*
X16609762Y-12913190D02*
X16619286Y-12903667D01*
X16638333Y-12894143D01*
X16666905Y-12894143D01*
X16685952Y-12903667D01*
X16695476Y-12922714D01*
X16695476Y-13027476D01*
X16695476Y-12922714D02*
X16705000Y-12903667D01*
X16724048Y-12894143D01*
X16752619Y-12894143D01*
X16771667Y-12903667D01*
X16781190Y-12922714D01*
X16781190Y-13027476D01*
X16876429Y-13027476D02*
X16876429Y-12894143D01*
X16876429Y-12913190D02*
X16885952Y-12903667D01*
X16905000Y-12894143D01*
X16933571Y-12894143D01*
X16952619Y-12903667D01*
X16962143Y-12922714D01*
X16962143Y-13027476D01*
X16962143Y-12922714D02*
X16971667Y-12903667D01*
X16990714Y-12894143D01*
X17019286Y-12894143D01*
X17038333Y-12903667D01*
X17047857Y-12922714D01*
X17047857Y-13027476D01*
X17438333Y-12817952D02*
X17266905Y-13075095D01*
X17695476Y-12827476D02*
X17714524Y-12827476D01*
X17733571Y-12837000D01*
X17743095Y-12846524D01*
X17752619Y-12865571D01*
X17762143Y-12903667D01*
X17762143Y-12951286D01*
X17752619Y-12989381D01*
X17743095Y-13008428D01*
X17733571Y-13017952D01*
X17714524Y-13027476D01*
X17695476Y-13027476D01*
X17676429Y-13017952D01*
X17666905Y-13008428D01*
X17657381Y-12989381D01*
X17647857Y-12951286D01*
X17647857Y-12903667D01*
X17657381Y-12865571D01*
X17666905Y-12846524D01*
X17676429Y-12837000D01*
X17695476Y-12827476D01*
X17847857Y-13008428D02*
X17857381Y-13017952D01*
X17847857Y-13027476D01*
X17838333Y-13017952D01*
X17847857Y-13008428D01*
X17847857Y-13027476D01*
X17981190Y-12827476D02*
X18000238Y-12827476D01*
X18019286Y-12837000D01*
X18028810Y-12846524D01*
X18038333Y-12865571D01*
X18047857Y-12903667D01*
X18047857Y-12951286D01*
X18038333Y-12989381D01*
X18028810Y-13008428D01*
X18019286Y-13017952D01*
X18000238Y-13027476D01*
X17981190Y-13027476D01*
X17962143Y-13017952D01*
X17952619Y-13008428D01*
X17943095Y-12989381D01*
X17933571Y-12951286D01*
X17933571Y-12903667D01*
X17943095Y-12865571D01*
X17952619Y-12846524D01*
X17962143Y-12837000D01*
X17981190Y-12827476D01*
X18114524Y-12827476D02*
X18238333Y-12827476D01*
X18171667Y-12903667D01*
X18200238Y-12903667D01*
X18219286Y-12913190D01*
X18228810Y-12922714D01*
X18238333Y-12941762D01*
X18238333Y-12989381D01*
X18228810Y-13008428D01*
X18219286Y-13017952D01*
X18200238Y-13027476D01*
X18143095Y-13027476D01*
X18124048Y-13017952D01*
X18114524Y-13008428D01*
X18419286Y-12827476D02*
X18324048Y-12827476D01*
X18314524Y-12922714D01*
X18324048Y-12913190D01*
X18343095Y-12903667D01*
X18390714Y-12903667D01*
X18409762Y-12913190D01*
X18419286Y-12922714D01*
X18428810Y-12941762D01*
X18428810Y-12989381D01*
X18419286Y-13008428D01*
X18409762Y-13017952D01*
X18390714Y-13027476D01*
X18343095Y-13027476D01*
X18324048Y-13017952D01*
X18314524Y-13008428D01*
X18600238Y-12894143D02*
X18600238Y-13027476D01*
X18552619Y-12817952D02*
X18505000Y-12960809D01*
X18628810Y-12960809D01*
X18695476Y-12827476D02*
X18695476Y-12865571D01*
X18771667Y-12827476D02*
X18771667Y-12865571D01*
X19066905Y-13103667D02*
X19057381Y-13094143D01*
X19038333Y-13065571D01*
X19028810Y-13046524D01*
X19019286Y-13017952D01*
X19009762Y-12970333D01*
X19009762Y-12932238D01*
X19019286Y-12884619D01*
X19028810Y-12856048D01*
X19038333Y-12837000D01*
X19057381Y-12808428D01*
X19066905Y-12798905D01*
X19124048Y-12827476D02*
X19247857Y-12827476D01*
X19181190Y-12903667D01*
X19209762Y-12903667D01*
X19228810Y-12913190D01*
X19238333Y-12922714D01*
X19247857Y-12941762D01*
X19247857Y-12989381D01*
X19238333Y-13008428D01*
X19228810Y-13017952D01*
X19209762Y-13027476D01*
X19152619Y-13027476D01*
X19133571Y-13017952D01*
X19124048Y-13008428D01*
X19485952Y-13027476D02*
X19485952Y-12827476D01*
X19571667Y-13027476D02*
X19571667Y-12922714D01*
X19562143Y-12903667D01*
X19543095Y-12894143D01*
X19514524Y-12894143D01*
X19495476Y-12903667D01*
X19485952Y-12913190D01*
X19695476Y-13027476D02*
X19676429Y-13017952D01*
X19666905Y-13008428D01*
X19657381Y-12989381D01*
X19657381Y-12932238D01*
X19666905Y-12913190D01*
X19676429Y-12903667D01*
X19695476Y-12894143D01*
X19724048Y-12894143D01*
X19743095Y-12903667D01*
X19752619Y-12913190D01*
X19762143Y-12932238D01*
X19762143Y-12989381D01*
X19752619Y-13008428D01*
X19743095Y-13017952D01*
X19724048Y-13027476D01*
X19695476Y-13027476D01*
X19876429Y-13027476D02*
X19857381Y-13017952D01*
X19847857Y-12998905D01*
X19847857Y-12827476D01*
X20028810Y-13017952D02*
X20009762Y-13027476D01*
X19971667Y-13027476D01*
X19952619Y-13017952D01*
X19943095Y-12998905D01*
X19943095Y-12922714D01*
X19952619Y-12903667D01*
X19971667Y-12894143D01*
X20009762Y-12894143D01*
X20028810Y-12903667D01*
X20038333Y-12922714D01*
X20038333Y-12941762D01*
X19943095Y-12960809D01*
X20114524Y-13017952D02*
X20133571Y-13027476D01*
X20171667Y-13027476D01*
X20190714Y-13017952D01*
X20200238Y-12998905D01*
X20200238Y-12989381D01*
X20190714Y-12970333D01*
X20171667Y-12960809D01*
X20143095Y-12960809D01*
X20124048Y-12951286D01*
X20114524Y-12932238D01*
X20114524Y-12922714D01*
X20124048Y-12903667D01*
X20143095Y-12894143D01*
X20171667Y-12894143D01*
X20190714Y-12903667D01*
X20266905Y-13103667D02*
X20276429Y-13094143D01*
X20295476Y-13065571D01*
X20305000Y-13046524D01*
X20314524Y-13017952D01*
X20324048Y-12970333D01*
X20324048Y-12932238D01*
X20314524Y-12884619D01*
X20305000Y-12856048D01*
X20295476Y-12837000D01*
X20276429Y-12808428D01*
X20266905Y-12798905D01*
D16*
X15445500Y-13250500D02*
X15495000Y-13201000D01*
X15445500Y-13151500D01*
X15396000Y-13201000D01*
X15445500Y-13250500D01*
D11*
X15790714Y-13091476D02*
X15809762Y-13091476D01*
X15828809Y-13101000D01*
X15838333Y-13110524D01*
X15847857Y-13129571D01*
X15857381Y-13167667D01*
X15857381Y-13215286D01*
X15847857Y-13253381D01*
X15838333Y-13272428D01*
X15828809Y-13281952D01*
X15809762Y-13291476D01*
X15790714Y-13291476D01*
X15771667Y-13281952D01*
X15762143Y-13272428D01*
X15752619Y-13253381D01*
X15743095Y-13215286D01*
X15743095Y-13167667D01*
X15752619Y-13129571D01*
X15762143Y-13110524D01*
X15771667Y-13101000D01*
X15790714Y-13091476D01*
X15943095Y-13272428D02*
X15952619Y-13281952D01*
X15943095Y-13291476D01*
X15933571Y-13281952D01*
X15943095Y-13272428D01*
X15943095Y-13291476D01*
X16047857Y-13291476D02*
X16085952Y-13291476D01*
X16105000Y-13281952D01*
X16114524Y-13272428D01*
X16133571Y-13243857D01*
X16143095Y-13205762D01*
X16143095Y-13129571D01*
X16133571Y-13110524D01*
X16124048Y-13101000D01*
X16105000Y-13091476D01*
X16066905Y-13091476D01*
X16047857Y-13101000D01*
X16038333Y-13110524D01*
X16028809Y-13129571D01*
X16028809Y-13177190D01*
X16038333Y-13196238D01*
X16047857Y-13205762D01*
X16066905Y-13215286D01*
X16105000Y-13215286D01*
X16124048Y-13205762D01*
X16133571Y-13196238D01*
X16143095Y-13177190D01*
X16238333Y-13291476D02*
X16276428Y-13291476D01*
X16295476Y-13281952D01*
X16305000Y-13272428D01*
X16324048Y-13243857D01*
X16333571Y-13205762D01*
X16333571Y-13129571D01*
X16324048Y-13110524D01*
X16314524Y-13101000D01*
X16295476Y-13091476D01*
X16257381Y-13091476D01*
X16238333Y-13101000D01*
X16228809Y-13110524D01*
X16219286Y-13129571D01*
X16219286Y-13177190D01*
X16228809Y-13196238D01*
X16238333Y-13205762D01*
X16257381Y-13215286D01*
X16295476Y-13215286D01*
X16314524Y-13205762D01*
X16324048Y-13196238D01*
X16333571Y-13177190D01*
X16457381Y-13091476D02*
X16476428Y-13091476D01*
X16495476Y-13101000D01*
X16505000Y-13110524D01*
X16514524Y-13129571D01*
X16524048Y-13167667D01*
X16524048Y-13215286D01*
X16514524Y-13253381D01*
X16505000Y-13272428D01*
X16495476Y-13281952D01*
X16476428Y-13291476D01*
X16457381Y-13291476D01*
X16438333Y-13281952D01*
X16428809Y-13272428D01*
X16419286Y-13253381D01*
X16409762Y-13215286D01*
X16409762Y-13167667D01*
X16419286Y-13129571D01*
X16428809Y-13110524D01*
X16438333Y-13101000D01*
X16457381Y-13091476D01*
X16609762Y-13291476D02*
X16609762Y-13158143D01*
X16609762Y-13177190D02*
X16619286Y-13167667D01*
X16638333Y-13158143D01*
X16666905Y-13158143D01*
X16685952Y-13167667D01*
X16695476Y-13186714D01*
X16695476Y-13291476D01*
X16695476Y-13186714D02*
X16705000Y-13167667D01*
X16724048Y-13158143D01*
X16752619Y-13158143D01*
X16771667Y-13167667D01*
X16781190Y-13186714D01*
X16781190Y-13291476D01*
X16876429Y-13291476D02*
X16876429Y-13158143D01*
X16876429Y-13177190D02*
X16885952Y-13167667D01*
X16905000Y-13158143D01*
X16933571Y-13158143D01*
X16952619Y-13167667D01*
X16962143Y-13186714D01*
X16962143Y-13291476D01*
X16962143Y-13186714D02*
X16971667Y-13167667D01*
X16990714Y-13158143D01*
X17019286Y-13158143D01*
X17038333Y-13167667D01*
X17047857Y-13186714D01*
X17047857Y-13291476D01*
X17438333Y-13081952D02*
X17266905Y-13339095D01*
X17695476Y-13091476D02*
X17714524Y-13091476D01*
X17733571Y-13101000D01*
X17743095Y-13110524D01*
X17752619Y-13129571D01*
X17762143Y-13167667D01*
X17762143Y-13215286D01*
X17752619Y-13253381D01*
X17743095Y-13272428D01*
X17733571Y-13281952D01*
X17714524Y-13291476D01*
X17695476Y-13291476D01*
X17676429Y-13281952D01*
X17666905Y-13272428D01*
X17657381Y-13253381D01*
X17647857Y-13215286D01*
X17647857Y-13167667D01*
X17657381Y-13129571D01*
X17666905Y-13110524D01*
X17676429Y-13101000D01*
X17695476Y-13091476D01*
X17847857Y-13272428D02*
X17857381Y-13281952D01*
X17847857Y-13291476D01*
X17838333Y-13281952D01*
X17847857Y-13272428D01*
X17847857Y-13291476D01*
X17981190Y-13091476D02*
X18000238Y-13091476D01*
X18019286Y-13101000D01*
X18028810Y-13110524D01*
X18038333Y-13129571D01*
X18047857Y-13167667D01*
X18047857Y-13215286D01*
X18038333Y-13253381D01*
X18028810Y-13272428D01*
X18019286Y-13281952D01*
X18000238Y-13291476D01*
X17981190Y-13291476D01*
X17962143Y-13281952D01*
X17952619Y-13272428D01*
X17943095Y-13253381D01*
X17933571Y-13215286D01*
X17933571Y-13167667D01*
X17943095Y-13129571D01*
X17952619Y-13110524D01*
X17962143Y-13101000D01*
X17981190Y-13091476D01*
X18114524Y-13091476D02*
X18238333Y-13091476D01*
X18171667Y-13167667D01*
X18200238Y-13167667D01*
X18219286Y-13177190D01*
X18228810Y-13186714D01*
X18238333Y-13205762D01*
X18238333Y-13253381D01*
X18228810Y-13272428D01*
X18219286Y-13281952D01*
X18200238Y-13291476D01*
X18143095Y-13291476D01*
X18124048Y-13281952D01*
X18114524Y-13272428D01*
X18333571Y-13291476D02*
X18371667Y-13291476D01*
X18390714Y-13281952D01*
X18400238Y-13272428D01*
X18419286Y-13243857D01*
X18428810Y-13205762D01*
X18428810Y-13129571D01*
X18419286Y-13110524D01*
X18409762Y-13101000D01*
X18390714Y-13091476D01*
X18352619Y-13091476D01*
X18333571Y-13101000D01*
X18324048Y-13110524D01*
X18314524Y-13129571D01*
X18314524Y-13177190D01*
X18324048Y-13196238D01*
X18333571Y-13205762D01*
X18352619Y-13215286D01*
X18390714Y-13215286D01*
X18409762Y-13205762D01*
X18419286Y-13196238D01*
X18428810Y-13177190D01*
X18552619Y-13091476D02*
X18571667Y-13091476D01*
X18590714Y-13101000D01*
X18600238Y-13110524D01*
X18609762Y-13129571D01*
X18619286Y-13167667D01*
X18619286Y-13215286D01*
X18609762Y-13253381D01*
X18600238Y-13272428D01*
X18590714Y-13281952D01*
X18571667Y-13291476D01*
X18552619Y-13291476D01*
X18533571Y-13281952D01*
X18524048Y-13272428D01*
X18514524Y-13253381D01*
X18505000Y-13215286D01*
X18505000Y-13167667D01*
X18514524Y-13129571D01*
X18524048Y-13110524D01*
X18533571Y-13101000D01*
X18552619Y-13091476D01*
X18695476Y-13091476D02*
X18695476Y-13129571D01*
X18771667Y-13091476D02*
X18771667Y-13129571D01*
X19066905Y-13367667D02*
X19057381Y-13358143D01*
X19038333Y-13329571D01*
X19028810Y-13310524D01*
X19019286Y-13281952D01*
X19009762Y-13234333D01*
X19009762Y-13196238D01*
X19019286Y-13148619D01*
X19028810Y-13120048D01*
X19038333Y-13101000D01*
X19057381Y-13072428D01*
X19066905Y-13062905D01*
X19228810Y-13158143D02*
X19228810Y-13291476D01*
X19181190Y-13081952D02*
X19133571Y-13224809D01*
X19257381Y-13224809D01*
X19485952Y-13291476D02*
X19485952Y-13091476D01*
X19571667Y-13291476D02*
X19571667Y-13186714D01*
X19562143Y-13167667D01*
X19543095Y-13158143D01*
X19514524Y-13158143D01*
X19495476Y-13167667D01*
X19485952Y-13177190D01*
X19695476Y-13291476D02*
X19676429Y-13281952D01*
X19666905Y-13272428D01*
X19657381Y-13253381D01*
X19657381Y-13196238D01*
X19666905Y-13177190D01*
X19676429Y-13167667D01*
X19695476Y-13158143D01*
X19724048Y-13158143D01*
X19743095Y-13167667D01*
X19752619Y-13177190D01*
X19762143Y-13196238D01*
X19762143Y-13253381D01*
X19752619Y-13272428D01*
X19743095Y-13281952D01*
X19724048Y-13291476D01*
X19695476Y-13291476D01*
X19876429Y-13291476D02*
X19857381Y-13281952D01*
X19847857Y-13262905D01*
X19847857Y-13091476D01*
X20028810Y-13281952D02*
X20009762Y-13291476D01*
X19971667Y-13291476D01*
X19952619Y-13281952D01*
X19943095Y-13262905D01*
X19943095Y-13186714D01*
X19952619Y-13167667D01*
X19971667Y-13158143D01*
X20009762Y-13158143D01*
X20028810Y-13167667D01*
X20038333Y-13186714D01*
X20038333Y-13205762D01*
X19943095Y-13224809D01*
X20114524Y-13281952D02*
X20133571Y-13291476D01*
X20171667Y-13291476D01*
X20190714Y-13281952D01*
X20200238Y-13262905D01*
X20200238Y-13253381D01*
X20190714Y-13234333D01*
X20171667Y-13224809D01*
X20143095Y-13224809D01*
X20124048Y-13215286D01*
X20114524Y-13196238D01*
X20114524Y-13186714D01*
X20124048Y-13167667D01*
X20143095Y-13158143D01*
X20171667Y-13158143D01*
X20190714Y-13167667D01*
X20266905Y-13367667D02*
X20276429Y-13358143D01*
X20295476Y-13329571D01*
X20305000Y-13310524D01*
X20314524Y-13281952D01*
X20324048Y-13234333D01*
X20324048Y-13196238D01*
X20314524Y-13148619D01*
X20305000Y-13120048D01*
X20295476Y-13101000D01*
X20276429Y-13072428D01*
X20266905Y-13062905D01*
D10*
X15395000Y-13415000D02*
X15495000Y-13515000D01*
X15495000Y-13415000D02*
X15395000Y-13515000D01*
X15495000Y-13465000D02*
G75*
G03*
X15495000Y-13465000I-50000J0D01*
G01*
D11*
X15857381Y-13555476D02*
X15743095Y-13555476D01*
X15800238Y-13555476D02*
X15800238Y-13355476D01*
X15781190Y-13384048D01*
X15762143Y-13403095D01*
X15743095Y-13412619D01*
X15943095Y-13536428D02*
X15952619Y-13545952D01*
X15943095Y-13555476D01*
X15933571Y-13545952D01*
X15943095Y-13536428D01*
X15943095Y-13555476D01*
X16076428Y-13355476D02*
X16095476Y-13355476D01*
X16114524Y-13365000D01*
X16124048Y-13374524D01*
X16133571Y-13393571D01*
X16143095Y-13431667D01*
X16143095Y-13479286D01*
X16133571Y-13517381D01*
X16124048Y-13536428D01*
X16114524Y-13545952D01*
X16095476Y-13555476D01*
X16076428Y-13555476D01*
X16057381Y-13545952D01*
X16047857Y-13536428D01*
X16038333Y-13517381D01*
X16028809Y-13479286D01*
X16028809Y-13431667D01*
X16038333Y-13393571D01*
X16047857Y-13374524D01*
X16057381Y-13365000D01*
X16076428Y-13355476D01*
X16266905Y-13355476D02*
X16285952Y-13355476D01*
X16305000Y-13365000D01*
X16314524Y-13374524D01*
X16324048Y-13393571D01*
X16333571Y-13431667D01*
X16333571Y-13479286D01*
X16324048Y-13517381D01*
X16314524Y-13536428D01*
X16305000Y-13545952D01*
X16285952Y-13555476D01*
X16266905Y-13555476D01*
X16247857Y-13545952D01*
X16238333Y-13536428D01*
X16228809Y-13517381D01*
X16219286Y-13479286D01*
X16219286Y-13431667D01*
X16228809Y-13393571D01*
X16238333Y-13374524D01*
X16247857Y-13365000D01*
X16266905Y-13355476D01*
X16457381Y-13355476D02*
X16476428Y-13355476D01*
X16495476Y-13365000D01*
X16505000Y-13374524D01*
X16514524Y-13393571D01*
X16524048Y-13431667D01*
X16524048Y-13479286D01*
X16514524Y-13517381D01*
X16505000Y-13536428D01*
X16495476Y-13545952D01*
X16476428Y-13555476D01*
X16457381Y-13555476D01*
X16438333Y-13545952D01*
X16428809Y-13536428D01*
X16419286Y-13517381D01*
X16409762Y-13479286D01*
X16409762Y-13431667D01*
X16419286Y-13393571D01*
X16428809Y-13374524D01*
X16438333Y-13365000D01*
X16457381Y-13355476D01*
X16609762Y-13555476D02*
X16609762Y-13422143D01*
X16609762Y-13441190D02*
X16619286Y-13431667D01*
X16638333Y-13422143D01*
X16666905Y-13422143D01*
X16685952Y-13431667D01*
X16695476Y-13450714D01*
X16695476Y-13555476D01*
X16695476Y-13450714D02*
X16705000Y-13431667D01*
X16724048Y-13422143D01*
X16752619Y-13422143D01*
X16771667Y-13431667D01*
X16781190Y-13450714D01*
X16781190Y-13555476D01*
X16876429Y-13555476D02*
X16876429Y-13422143D01*
X16876429Y-13441190D02*
X16885952Y-13431667D01*
X16905000Y-13422143D01*
X16933571Y-13422143D01*
X16952619Y-13431667D01*
X16962143Y-13450714D01*
X16962143Y-13555476D01*
X16962143Y-13450714D02*
X16971667Y-13431667D01*
X16990714Y-13422143D01*
X17019286Y-13422143D01*
X17038333Y-13431667D01*
X17047857Y-13450714D01*
X17047857Y-13555476D01*
X17438333Y-13345952D02*
X17266905Y-13603095D01*
X17695476Y-13355476D02*
X17714524Y-13355476D01*
X17733571Y-13365000D01*
X17743095Y-13374524D01*
X17752619Y-13393571D01*
X17762143Y-13431667D01*
X17762143Y-13479286D01*
X17752619Y-13517381D01*
X17743095Y-13536428D01*
X17733571Y-13545952D01*
X17714524Y-13555476D01*
X17695476Y-13555476D01*
X17676429Y-13545952D01*
X17666905Y-13536428D01*
X17657381Y-13517381D01*
X17647857Y-13479286D01*
X17647857Y-13431667D01*
X17657381Y-13393571D01*
X17666905Y-13374524D01*
X17676429Y-13365000D01*
X17695476Y-13355476D01*
X17847857Y-13536428D02*
X17857381Y-13545952D01*
X17847857Y-13555476D01*
X17838333Y-13545952D01*
X17847857Y-13536428D01*
X17847857Y-13555476D01*
X17981190Y-13355476D02*
X18000238Y-13355476D01*
X18019286Y-13365000D01*
X18028810Y-13374524D01*
X18038333Y-13393571D01*
X18047857Y-13431667D01*
X18047857Y-13479286D01*
X18038333Y-13517381D01*
X18028810Y-13536428D01*
X18019286Y-13545952D01*
X18000238Y-13555476D01*
X17981190Y-13555476D01*
X17962143Y-13545952D01*
X17952619Y-13536428D01*
X17943095Y-13517381D01*
X17933571Y-13479286D01*
X17933571Y-13431667D01*
X17943095Y-13393571D01*
X17952619Y-13374524D01*
X17962143Y-13365000D01*
X17981190Y-13355476D01*
X18114524Y-13355476D02*
X18238333Y-13355476D01*
X18171667Y-13431667D01*
X18200238Y-13431667D01*
X18219286Y-13441190D01*
X18228810Y-13450714D01*
X18238333Y-13469762D01*
X18238333Y-13517381D01*
X18228810Y-13536428D01*
X18219286Y-13545952D01*
X18200238Y-13555476D01*
X18143095Y-13555476D01*
X18124048Y-13545952D01*
X18114524Y-13536428D01*
X18333571Y-13555476D02*
X18371667Y-13555476D01*
X18390714Y-13545952D01*
X18400238Y-13536428D01*
X18419286Y-13507857D01*
X18428810Y-13469762D01*
X18428810Y-13393571D01*
X18419286Y-13374524D01*
X18409762Y-13365000D01*
X18390714Y-13355476D01*
X18352619Y-13355476D01*
X18333571Y-13365000D01*
X18324048Y-13374524D01*
X18314524Y-13393571D01*
X18314524Y-13441190D01*
X18324048Y-13460238D01*
X18333571Y-13469762D01*
X18352619Y-13479286D01*
X18390714Y-13479286D01*
X18409762Y-13469762D01*
X18419286Y-13460238D01*
X18428810Y-13441190D01*
X18600238Y-13422143D02*
X18600238Y-13555476D01*
X18552619Y-13345952D02*
X18505000Y-13488809D01*
X18628810Y-13488809D01*
X18695476Y-13355476D02*
X18695476Y-13393571D01*
X18771667Y-13355476D02*
X18771667Y-13393571D01*
X19066905Y-13631667D02*
X19057381Y-13622143D01*
X19038333Y-13593571D01*
X19028810Y-13574524D01*
X19019286Y-13545952D01*
X19009762Y-13498333D01*
X19009762Y-13460238D01*
X19019286Y-13412619D01*
X19028810Y-13384048D01*
X19038333Y-13365000D01*
X19057381Y-13336428D01*
X19066905Y-13326905D01*
X19171667Y-13441190D02*
X19152619Y-13431667D01*
X19143095Y-13422143D01*
X19133571Y-13403095D01*
X19133571Y-13393571D01*
X19143095Y-13374524D01*
X19152619Y-13365000D01*
X19171667Y-13355476D01*
X19209762Y-13355476D01*
X19228810Y-13365000D01*
X19238333Y-13374524D01*
X19247857Y-13393571D01*
X19247857Y-13403095D01*
X19238333Y-13422143D01*
X19228810Y-13431667D01*
X19209762Y-13441190D01*
X19171667Y-13441190D01*
X19152619Y-13450714D01*
X19143095Y-13460238D01*
X19133571Y-13479286D01*
X19133571Y-13517381D01*
X19143095Y-13536428D01*
X19152619Y-13545952D01*
X19171667Y-13555476D01*
X19209762Y-13555476D01*
X19228810Y-13545952D01*
X19238333Y-13536428D01*
X19247857Y-13517381D01*
X19247857Y-13479286D01*
X19238333Y-13460238D01*
X19228810Y-13450714D01*
X19209762Y-13441190D01*
X19485952Y-13555476D02*
X19485952Y-13355476D01*
X19571667Y-13555476D02*
X19571667Y-13450714D01*
X19562143Y-13431667D01*
X19543095Y-13422143D01*
X19514524Y-13422143D01*
X19495476Y-13431667D01*
X19485952Y-13441190D01*
X19695476Y-13555476D02*
X19676429Y-13545952D01*
X19666905Y-13536428D01*
X19657381Y-13517381D01*
X19657381Y-13460238D01*
X19666905Y-13441190D01*
X19676429Y-13431667D01*
X19695476Y-13422143D01*
X19724048Y-13422143D01*
X19743095Y-13431667D01*
X19752619Y-13441190D01*
X19762143Y-13460238D01*
X19762143Y-13517381D01*
X19752619Y-13536428D01*
X19743095Y-13545952D01*
X19724048Y-13555476D01*
X19695476Y-13555476D01*
X19876429Y-13555476D02*
X19857381Y-13545952D01*
X19847857Y-13526905D01*
X19847857Y-13355476D01*
X20028810Y-13545952D02*
X20009762Y-13555476D01*
X19971667Y-13555476D01*
X19952619Y-13545952D01*
X19943095Y-13526905D01*
X19943095Y-13450714D01*
X19952619Y-13431667D01*
X19971667Y-13422143D01*
X20009762Y-13422143D01*
X20028810Y-13431667D01*
X20038333Y-13450714D01*
X20038333Y-13469762D01*
X19943095Y-13488809D01*
X20114524Y-13545952D02*
X20133571Y-13555476D01*
X20171667Y-13555476D01*
X20190714Y-13545952D01*
X20200238Y-13526905D01*
X20200238Y-13517381D01*
X20190714Y-13498333D01*
X20171667Y-13488809D01*
X20143095Y-13488809D01*
X20124048Y-13479286D01*
X20114524Y-13460238D01*
X20114524Y-13450714D01*
X20124048Y-13431667D01*
X20143095Y-13422143D01*
X20171667Y-13422143D01*
X20190714Y-13431667D01*
X20266905Y-13631667D02*
X20276429Y-13622143D01*
X20295476Y-13593571D01*
X20305000Y-13574524D01*
X20314524Y-13545952D01*
X20324048Y-13498333D01*
X20324048Y-13460238D01*
X20314524Y-13412619D01*
X20305000Y-13384048D01*
X20295476Y-13365000D01*
X20276429Y-13336428D01*
X20266905Y-13326905D01*
D17*
X15375000Y-13669000D02*
X15495000Y-13789000D01*
X15495000Y-13669000D02*
X15375000Y-13789000D01*
X15435000Y-13669000D02*
X15435000Y-13789000D01*
X15375000Y-13729000D02*
X15495000Y-13729000D01*
D11*
X15857381Y-13819476D02*
X15743095Y-13819476D01*
X15800238Y-13819476D02*
X15800238Y-13619476D01*
X15781190Y-13648048D01*
X15762143Y-13667095D01*
X15743095Y-13676619D01*
X15943095Y-13800428D02*
X15952619Y-13809952D01*
X15943095Y-13819476D01*
X15933571Y-13809952D01*
X15943095Y-13800428D01*
X15943095Y-13819476D01*
X16028809Y-13638524D02*
X16038333Y-13629000D01*
X16057381Y-13619476D01*
X16105000Y-13619476D01*
X16124048Y-13629000D01*
X16133571Y-13638524D01*
X16143095Y-13657571D01*
X16143095Y-13676619D01*
X16133571Y-13705190D01*
X16019286Y-13819476D01*
X16143095Y-13819476D01*
X16266905Y-13619476D02*
X16285952Y-13619476D01*
X16305000Y-13629000D01*
X16314524Y-13638524D01*
X16324048Y-13657571D01*
X16333571Y-13695667D01*
X16333571Y-13743286D01*
X16324048Y-13781381D01*
X16314524Y-13800428D01*
X16305000Y-13809952D01*
X16285952Y-13819476D01*
X16266905Y-13819476D01*
X16247857Y-13809952D01*
X16238333Y-13800428D01*
X16228809Y-13781381D01*
X16219286Y-13743286D01*
X16219286Y-13695667D01*
X16228809Y-13657571D01*
X16238333Y-13638524D01*
X16247857Y-13629000D01*
X16266905Y-13619476D01*
X16457381Y-13619476D02*
X16476428Y-13619476D01*
X16495476Y-13629000D01*
X16505000Y-13638524D01*
X16514524Y-13657571D01*
X16524048Y-13695667D01*
X16524048Y-13743286D01*
X16514524Y-13781381D01*
X16505000Y-13800428D01*
X16495476Y-13809952D01*
X16476428Y-13819476D01*
X16457381Y-13819476D01*
X16438333Y-13809952D01*
X16428809Y-13800428D01*
X16419286Y-13781381D01*
X16409762Y-13743286D01*
X16409762Y-13695667D01*
X16419286Y-13657571D01*
X16428809Y-13638524D01*
X16438333Y-13629000D01*
X16457381Y-13619476D01*
X16609762Y-13819476D02*
X16609762Y-13686143D01*
X16609762Y-13705190D02*
X16619286Y-13695667D01*
X16638333Y-13686143D01*
X16666905Y-13686143D01*
X16685952Y-13695667D01*
X16695476Y-13714714D01*
X16695476Y-13819476D01*
X16695476Y-13714714D02*
X16705000Y-13695667D01*
X16724048Y-13686143D01*
X16752619Y-13686143D01*
X16771667Y-13695667D01*
X16781190Y-13714714D01*
X16781190Y-13819476D01*
X16876429Y-13819476D02*
X16876429Y-13686143D01*
X16876429Y-13705190D02*
X16885952Y-13695667D01*
X16905000Y-13686143D01*
X16933571Y-13686143D01*
X16952619Y-13695667D01*
X16962143Y-13714714D01*
X16962143Y-13819476D01*
X16962143Y-13714714D02*
X16971667Y-13695667D01*
X16990714Y-13686143D01*
X17019286Y-13686143D01*
X17038333Y-13695667D01*
X17047857Y-13714714D01*
X17047857Y-13819476D01*
X17438333Y-13609952D02*
X17266905Y-13867095D01*
X17695476Y-13619476D02*
X17714524Y-13619476D01*
X17733571Y-13629000D01*
X17743095Y-13638524D01*
X17752619Y-13657571D01*
X17762143Y-13695667D01*
X17762143Y-13743286D01*
X17752619Y-13781381D01*
X17743095Y-13800428D01*
X17733571Y-13809952D01*
X17714524Y-13819476D01*
X17695476Y-13819476D01*
X17676429Y-13809952D01*
X17666905Y-13800428D01*
X17657381Y-13781381D01*
X17647857Y-13743286D01*
X17647857Y-13695667D01*
X17657381Y-13657571D01*
X17666905Y-13638524D01*
X17676429Y-13629000D01*
X17695476Y-13619476D01*
X17847857Y-13800428D02*
X17857381Y-13809952D01*
X17847857Y-13819476D01*
X17838333Y-13809952D01*
X17847857Y-13800428D01*
X17847857Y-13819476D01*
X17981190Y-13619476D02*
X18000238Y-13619476D01*
X18019286Y-13629000D01*
X18028810Y-13638524D01*
X18038333Y-13657571D01*
X18047857Y-13695667D01*
X18047857Y-13743286D01*
X18038333Y-13781381D01*
X18028810Y-13800428D01*
X18019286Y-13809952D01*
X18000238Y-13819476D01*
X17981190Y-13819476D01*
X17962143Y-13809952D01*
X17952619Y-13800428D01*
X17943095Y-13781381D01*
X17933571Y-13743286D01*
X17933571Y-13695667D01*
X17943095Y-13657571D01*
X17952619Y-13638524D01*
X17962143Y-13629000D01*
X17981190Y-13619476D01*
X18219286Y-13686143D02*
X18219286Y-13819476D01*
X18171667Y-13609952D02*
X18124048Y-13752809D01*
X18247857Y-13752809D01*
X18305000Y-13619476D02*
X18438333Y-13619476D01*
X18352619Y-13819476D01*
X18505000Y-13638524D02*
X18514524Y-13629000D01*
X18533571Y-13619476D01*
X18581190Y-13619476D01*
X18600238Y-13629000D01*
X18609762Y-13638524D01*
X18619286Y-13657571D01*
X18619286Y-13676619D01*
X18609762Y-13705190D01*
X18495476Y-13819476D01*
X18619286Y-13819476D01*
X18695476Y-13619476D02*
X18695476Y-13657571D01*
X18771667Y-13619476D02*
X18771667Y-13657571D01*
X19066905Y-13895667D02*
X19057381Y-13886143D01*
X19038333Y-13857571D01*
X19028810Y-13838524D01*
X19019286Y-13809952D01*
X19009762Y-13762333D01*
X19009762Y-13724238D01*
X19019286Y-13676619D01*
X19028810Y-13648048D01*
X19038333Y-13629000D01*
X19057381Y-13600428D01*
X19066905Y-13590905D01*
X19133571Y-13638524D02*
X19143095Y-13629000D01*
X19162143Y-13619476D01*
X19209762Y-13619476D01*
X19228810Y-13629000D01*
X19238333Y-13638524D01*
X19247857Y-13657571D01*
X19247857Y-13676619D01*
X19238333Y-13705190D01*
X19124048Y-13819476D01*
X19247857Y-13819476D01*
X19485952Y-13819476D02*
X19485952Y-13619476D01*
X19571667Y-13819476D02*
X19571667Y-13714714D01*
X19562143Y-13695667D01*
X19543095Y-13686143D01*
X19514524Y-13686143D01*
X19495476Y-13695667D01*
X19485952Y-13705190D01*
X19695476Y-13819476D02*
X19676429Y-13809952D01*
X19666905Y-13800428D01*
X19657381Y-13781381D01*
X19657381Y-13724238D01*
X19666905Y-13705190D01*
X19676429Y-13695667D01*
X19695476Y-13686143D01*
X19724048Y-13686143D01*
X19743095Y-13695667D01*
X19752619Y-13705190D01*
X19762143Y-13724238D01*
X19762143Y-13781381D01*
X19752619Y-13800428D01*
X19743095Y-13809952D01*
X19724048Y-13819476D01*
X19695476Y-13819476D01*
X19876429Y-13819476D02*
X19857381Y-13809952D01*
X19847857Y-13790905D01*
X19847857Y-13619476D01*
X20028810Y-13809952D02*
X20009762Y-13819476D01*
X19971667Y-13819476D01*
X19952619Y-13809952D01*
X19943095Y-13790905D01*
X19943095Y-13714714D01*
X19952619Y-13695667D01*
X19971667Y-13686143D01*
X20009762Y-13686143D01*
X20028810Y-13695667D01*
X20038333Y-13714714D01*
X20038333Y-13733762D01*
X19943095Y-13752809D01*
X20114524Y-13809952D02*
X20133571Y-13819476D01*
X20171667Y-13819476D01*
X20190714Y-13809952D01*
X20200238Y-13790905D01*
X20200238Y-13781381D01*
X20190714Y-13762333D01*
X20171667Y-13752809D01*
X20143095Y-13752809D01*
X20124048Y-13743286D01*
X20114524Y-13724238D01*
X20114524Y-13714714D01*
X20124048Y-13695667D01*
X20143095Y-13686143D01*
X20171667Y-13686143D01*
X20190714Y-13695667D01*
X20266905Y-13895667D02*
X20276429Y-13886143D01*
X20295476Y-13857571D01*
X20305000Y-13838524D01*
X20314524Y-13809952D01*
X20324048Y-13762333D01*
X20324048Y-13724238D01*
X20314524Y-13676619D01*
X20305000Y-13648048D01*
X20295476Y-13629000D01*
X20276429Y-13600428D01*
X20266905Y-13590905D01*
D18*
X15365000Y-13928000D02*
X15495000Y-14058000D01*
X15495000Y-13928000D02*
X15365000Y-14058000D01*
X15475962Y-14038962D02*
X15475962Y-13947038D01*
X15384038Y-13947038D01*
X15384038Y-14038962D01*
X15475962Y-14038962D01*
D11*
X15857381Y-14083476D02*
X15743095Y-14083476D01*
X15800238Y-14083476D02*
X15800238Y-13883476D01*
X15781190Y-13912048D01*
X15762143Y-13931095D01*
X15743095Y-13940619D01*
X15943095Y-14064428D02*
X15952619Y-14073952D01*
X15943095Y-14083476D01*
X15933571Y-14073952D01*
X15943095Y-14064428D01*
X15943095Y-14083476D01*
X16019286Y-13883476D02*
X16143095Y-13883476D01*
X16076428Y-13959667D01*
X16105000Y-13959667D01*
X16124048Y-13969190D01*
X16133571Y-13978714D01*
X16143095Y-13997762D01*
X16143095Y-14045381D01*
X16133571Y-14064428D01*
X16124048Y-14073952D01*
X16105000Y-14083476D01*
X16047857Y-14083476D01*
X16028809Y-14073952D01*
X16019286Y-14064428D01*
X16266905Y-13883476D02*
X16285952Y-13883476D01*
X16305000Y-13893000D01*
X16314524Y-13902524D01*
X16324048Y-13921571D01*
X16333571Y-13959667D01*
X16333571Y-14007286D01*
X16324048Y-14045381D01*
X16314524Y-14064428D01*
X16305000Y-14073952D01*
X16285952Y-14083476D01*
X16266905Y-14083476D01*
X16247857Y-14073952D01*
X16238333Y-14064428D01*
X16228809Y-14045381D01*
X16219286Y-14007286D01*
X16219286Y-13959667D01*
X16228809Y-13921571D01*
X16238333Y-13902524D01*
X16247857Y-13893000D01*
X16266905Y-13883476D01*
X16457381Y-13883476D02*
X16476428Y-13883476D01*
X16495476Y-13893000D01*
X16505000Y-13902524D01*
X16514524Y-13921571D01*
X16524048Y-13959667D01*
X16524048Y-14007286D01*
X16514524Y-14045381D01*
X16505000Y-14064428D01*
X16495476Y-14073952D01*
X16476428Y-14083476D01*
X16457381Y-14083476D01*
X16438333Y-14073952D01*
X16428809Y-14064428D01*
X16419286Y-14045381D01*
X16409762Y-14007286D01*
X16409762Y-13959667D01*
X16419286Y-13921571D01*
X16428809Y-13902524D01*
X16438333Y-13893000D01*
X16457381Y-13883476D01*
X16609762Y-14083476D02*
X16609762Y-13950143D01*
X16609762Y-13969190D02*
X16619286Y-13959667D01*
X16638333Y-13950143D01*
X16666905Y-13950143D01*
X16685952Y-13959667D01*
X16695476Y-13978714D01*
X16695476Y-14083476D01*
X16695476Y-13978714D02*
X16705000Y-13959667D01*
X16724048Y-13950143D01*
X16752619Y-13950143D01*
X16771667Y-13959667D01*
X16781190Y-13978714D01*
X16781190Y-14083476D01*
X16876429Y-14083476D02*
X16876429Y-13950143D01*
X16876429Y-13969190D02*
X16885952Y-13959667D01*
X16905000Y-13950143D01*
X16933571Y-13950143D01*
X16952619Y-13959667D01*
X16962143Y-13978714D01*
X16962143Y-14083476D01*
X16962143Y-13978714D02*
X16971667Y-13959667D01*
X16990714Y-13950143D01*
X17019286Y-13950143D01*
X17038333Y-13959667D01*
X17047857Y-13978714D01*
X17047857Y-14083476D01*
X17438333Y-13873952D02*
X17266905Y-14131095D01*
X17695476Y-13883476D02*
X17714524Y-13883476D01*
X17733571Y-13893000D01*
X17743095Y-13902524D01*
X17752619Y-13921571D01*
X17762143Y-13959667D01*
X17762143Y-14007286D01*
X17752619Y-14045381D01*
X17743095Y-14064428D01*
X17733571Y-14073952D01*
X17714524Y-14083476D01*
X17695476Y-14083476D01*
X17676429Y-14073952D01*
X17666905Y-14064428D01*
X17657381Y-14045381D01*
X17647857Y-14007286D01*
X17647857Y-13959667D01*
X17657381Y-13921571D01*
X17666905Y-13902524D01*
X17676429Y-13893000D01*
X17695476Y-13883476D01*
X17847857Y-14064428D02*
X17857381Y-14073952D01*
X17847857Y-14083476D01*
X17838333Y-14073952D01*
X17847857Y-14064428D01*
X17847857Y-14083476D01*
X17981190Y-13883476D02*
X18000238Y-13883476D01*
X18019286Y-13893000D01*
X18028810Y-13902524D01*
X18038333Y-13921571D01*
X18047857Y-13959667D01*
X18047857Y-14007286D01*
X18038333Y-14045381D01*
X18028810Y-14064428D01*
X18019286Y-14073952D01*
X18000238Y-14083476D01*
X17981190Y-14083476D01*
X17962143Y-14073952D01*
X17952619Y-14064428D01*
X17943095Y-14045381D01*
X17933571Y-14007286D01*
X17933571Y-13959667D01*
X17943095Y-13921571D01*
X17952619Y-13902524D01*
X17962143Y-13893000D01*
X17981190Y-13883476D01*
X18228810Y-13883476D02*
X18133571Y-13883476D01*
X18124048Y-13978714D01*
X18133571Y-13969190D01*
X18152619Y-13959667D01*
X18200238Y-13959667D01*
X18219286Y-13969190D01*
X18228810Y-13978714D01*
X18238333Y-13997762D01*
X18238333Y-14045381D01*
X18228810Y-14064428D01*
X18219286Y-14073952D01*
X18200238Y-14083476D01*
X18152619Y-14083476D01*
X18133571Y-14073952D01*
X18124048Y-14064428D01*
X18428810Y-14083476D02*
X18314524Y-14083476D01*
X18371667Y-14083476D02*
X18371667Y-13883476D01*
X18352619Y-13912048D01*
X18333571Y-13931095D01*
X18314524Y-13940619D01*
X18505000Y-13902524D02*
X18514524Y-13893000D01*
X18533571Y-13883476D01*
X18581190Y-13883476D01*
X18600238Y-13893000D01*
X18609762Y-13902524D01*
X18619286Y-13921571D01*
X18619286Y-13940619D01*
X18609762Y-13969190D01*
X18495476Y-14083476D01*
X18619286Y-14083476D01*
X18695476Y-13883476D02*
X18695476Y-13921571D01*
X18771667Y-13883476D02*
X18771667Y-13921571D01*
X19066905Y-14159667D02*
X19057381Y-14150143D01*
X19038333Y-14121571D01*
X19028810Y-14102524D01*
X19019286Y-14073952D01*
X19009762Y-14026333D01*
X19009762Y-13988238D01*
X19019286Y-13940619D01*
X19028810Y-13912048D01*
X19038333Y-13893000D01*
X19057381Y-13864428D01*
X19066905Y-13854905D01*
X19228810Y-13950143D02*
X19228810Y-14083476D01*
X19181190Y-13873952D02*
X19133571Y-14016809D01*
X19257381Y-14016809D01*
X19485952Y-14083476D02*
X19485952Y-13883476D01*
X19571667Y-14083476D02*
X19571667Y-13978714D01*
X19562143Y-13959667D01*
X19543095Y-13950143D01*
X19514524Y-13950143D01*
X19495476Y-13959667D01*
X19485952Y-13969190D01*
X19695476Y-14083476D02*
X19676429Y-14073952D01*
X19666905Y-14064428D01*
X19657381Y-14045381D01*
X19657381Y-13988238D01*
X19666905Y-13969190D01*
X19676429Y-13959667D01*
X19695476Y-13950143D01*
X19724048Y-13950143D01*
X19743095Y-13959667D01*
X19752619Y-13969190D01*
X19762143Y-13988238D01*
X19762143Y-14045381D01*
X19752619Y-14064428D01*
X19743095Y-14073952D01*
X19724048Y-14083476D01*
X19695476Y-14083476D01*
X19876429Y-14083476D02*
X19857381Y-14073952D01*
X19847857Y-14054905D01*
X19847857Y-13883476D01*
X20028810Y-14073952D02*
X20009762Y-14083476D01*
X19971667Y-14083476D01*
X19952619Y-14073952D01*
X19943095Y-14054905D01*
X19943095Y-13978714D01*
X19952619Y-13959667D01*
X19971667Y-13950143D01*
X20009762Y-13950143D01*
X20028810Y-13959667D01*
X20038333Y-13978714D01*
X20038333Y-13997762D01*
X19943095Y-14016809D01*
X20114524Y-14073952D02*
X20133571Y-14083476D01*
X20171667Y-14083476D01*
X20190714Y-14073952D01*
X20200238Y-14054905D01*
X20200238Y-14045381D01*
X20190714Y-14026333D01*
X20171667Y-14016809D01*
X20143095Y-14016809D01*
X20124048Y-14007286D01*
X20114524Y-13988238D01*
X20114524Y-13978714D01*
X20124048Y-13959667D01*
X20143095Y-13950143D01*
X20171667Y-13950143D01*
X20190714Y-13959667D01*
X20266905Y-14159667D02*
X20276429Y-14150143D01*
X20295476Y-14121571D01*
X20305000Y-14102524D01*
X20314524Y-14073952D01*
X20324048Y-14026333D01*
X20324048Y-13988238D01*
X20314524Y-13940619D01*
X20305000Y-13912048D01*
X20295476Y-13893000D01*
X20276429Y-13864428D01*
X20266905Y-13854905D01*
D19*
X15345000Y-14182000D02*
X15495000Y-14332000D01*
X15495000Y-14182000D02*
X15345000Y-14332000D01*
X15420000Y-14332000D02*
X15495000Y-14257000D01*
X15420000Y-14182000D01*
X15345000Y-14257000D01*
X15420000Y-14332000D01*
D11*
X15857381Y-14347476D02*
X15743095Y-14347476D01*
X15800238Y-14347476D02*
X15800238Y-14147476D01*
X15781190Y-14176048D01*
X15762143Y-14195095D01*
X15743095Y-14204619D01*
X15943095Y-14328428D02*
X15952619Y-14337952D01*
X15943095Y-14347476D01*
X15933571Y-14337952D01*
X15943095Y-14328428D01*
X15943095Y-14347476D01*
X16133571Y-14147476D02*
X16038333Y-14147476D01*
X16028809Y-14242714D01*
X16038333Y-14233190D01*
X16057381Y-14223667D01*
X16105000Y-14223667D01*
X16124048Y-14233190D01*
X16133571Y-14242714D01*
X16143095Y-14261762D01*
X16143095Y-14309381D01*
X16133571Y-14328428D01*
X16124048Y-14337952D01*
X16105000Y-14347476D01*
X16057381Y-14347476D01*
X16038333Y-14337952D01*
X16028809Y-14328428D01*
X16266905Y-14147476D02*
X16285952Y-14147476D01*
X16305000Y-14157000D01*
X16314524Y-14166524D01*
X16324048Y-14185571D01*
X16333571Y-14223667D01*
X16333571Y-14271286D01*
X16324048Y-14309381D01*
X16314524Y-14328428D01*
X16305000Y-14337952D01*
X16285952Y-14347476D01*
X16266905Y-14347476D01*
X16247857Y-14337952D01*
X16238333Y-14328428D01*
X16228809Y-14309381D01*
X16219286Y-14271286D01*
X16219286Y-14223667D01*
X16228809Y-14185571D01*
X16238333Y-14166524D01*
X16247857Y-14157000D01*
X16266905Y-14147476D01*
X16457381Y-14147476D02*
X16476428Y-14147476D01*
X16495476Y-14157000D01*
X16505000Y-14166524D01*
X16514524Y-14185571D01*
X16524048Y-14223667D01*
X16524048Y-14271286D01*
X16514524Y-14309381D01*
X16505000Y-14328428D01*
X16495476Y-14337952D01*
X16476428Y-14347476D01*
X16457381Y-14347476D01*
X16438333Y-14337952D01*
X16428809Y-14328428D01*
X16419286Y-14309381D01*
X16409762Y-14271286D01*
X16409762Y-14223667D01*
X16419286Y-14185571D01*
X16428809Y-14166524D01*
X16438333Y-14157000D01*
X16457381Y-14147476D01*
X16609762Y-14347476D02*
X16609762Y-14214143D01*
X16609762Y-14233190D02*
X16619286Y-14223667D01*
X16638333Y-14214143D01*
X16666905Y-14214143D01*
X16685952Y-14223667D01*
X16695476Y-14242714D01*
X16695476Y-14347476D01*
X16695476Y-14242714D02*
X16705000Y-14223667D01*
X16724048Y-14214143D01*
X16752619Y-14214143D01*
X16771667Y-14223667D01*
X16781190Y-14242714D01*
X16781190Y-14347476D01*
X16876429Y-14347476D02*
X16876429Y-14214143D01*
X16876429Y-14233190D02*
X16885952Y-14223667D01*
X16905000Y-14214143D01*
X16933571Y-14214143D01*
X16952619Y-14223667D01*
X16962143Y-14242714D01*
X16962143Y-14347476D01*
X16962143Y-14242714D02*
X16971667Y-14223667D01*
X16990714Y-14214143D01*
X17019286Y-14214143D01*
X17038333Y-14223667D01*
X17047857Y-14242714D01*
X17047857Y-14347476D01*
X17438333Y-14137952D02*
X17266905Y-14395095D01*
X17695476Y-14147476D02*
X17714524Y-14147476D01*
X17733571Y-14157000D01*
X17743095Y-14166524D01*
X17752619Y-14185571D01*
X17762143Y-14223667D01*
X17762143Y-14271286D01*
X17752619Y-14309381D01*
X17743095Y-14328428D01*
X17733571Y-14337952D01*
X17714524Y-14347476D01*
X17695476Y-14347476D01*
X17676429Y-14337952D01*
X17666905Y-14328428D01*
X17657381Y-14309381D01*
X17647857Y-14271286D01*
X17647857Y-14223667D01*
X17657381Y-14185571D01*
X17666905Y-14166524D01*
X17676429Y-14157000D01*
X17695476Y-14147476D01*
X17847857Y-14328428D02*
X17857381Y-14337952D01*
X17847857Y-14347476D01*
X17838333Y-14337952D01*
X17847857Y-14328428D01*
X17847857Y-14347476D01*
X17981190Y-14147476D02*
X18000238Y-14147476D01*
X18019286Y-14157000D01*
X18028810Y-14166524D01*
X18038333Y-14185571D01*
X18047857Y-14223667D01*
X18047857Y-14271286D01*
X18038333Y-14309381D01*
X18028810Y-14328428D01*
X18019286Y-14337952D01*
X18000238Y-14347476D01*
X17981190Y-14347476D01*
X17962143Y-14337952D01*
X17952619Y-14328428D01*
X17943095Y-14309381D01*
X17933571Y-14271286D01*
X17933571Y-14223667D01*
X17943095Y-14185571D01*
X17952619Y-14166524D01*
X17962143Y-14157000D01*
X17981190Y-14147476D01*
X18228810Y-14147476D02*
X18133571Y-14147476D01*
X18124048Y-14242714D01*
X18133571Y-14233190D01*
X18152619Y-14223667D01*
X18200238Y-14223667D01*
X18219286Y-14233190D01*
X18228810Y-14242714D01*
X18238333Y-14261762D01*
X18238333Y-14309381D01*
X18228810Y-14328428D01*
X18219286Y-14337952D01*
X18200238Y-14347476D01*
X18152619Y-14347476D01*
X18133571Y-14337952D01*
X18124048Y-14328428D01*
X18333571Y-14347476D02*
X18371667Y-14347476D01*
X18390714Y-14337952D01*
X18400238Y-14328428D01*
X18419286Y-14299857D01*
X18428810Y-14261762D01*
X18428810Y-14185571D01*
X18419286Y-14166524D01*
X18409762Y-14157000D01*
X18390714Y-14147476D01*
X18352619Y-14147476D01*
X18333571Y-14157000D01*
X18324048Y-14166524D01*
X18314524Y-14185571D01*
X18314524Y-14233190D01*
X18324048Y-14252238D01*
X18333571Y-14261762D01*
X18352619Y-14271286D01*
X18390714Y-14271286D01*
X18409762Y-14261762D01*
X18419286Y-14252238D01*
X18428810Y-14233190D01*
X18619286Y-14347476D02*
X18505000Y-14347476D01*
X18562143Y-14347476D02*
X18562143Y-14147476D01*
X18543095Y-14176048D01*
X18524048Y-14195095D01*
X18505000Y-14204619D01*
X18695476Y-14147476D02*
X18695476Y-14185571D01*
X18771667Y-14147476D02*
X18771667Y-14185571D01*
X19066905Y-14423667D02*
X19057381Y-14414143D01*
X19038333Y-14385571D01*
X19028810Y-14366524D01*
X19019286Y-14337952D01*
X19009762Y-14290333D01*
X19009762Y-14252238D01*
X19019286Y-14204619D01*
X19028810Y-14176048D01*
X19038333Y-14157000D01*
X19057381Y-14128428D01*
X19066905Y-14118905D01*
X19133571Y-14166524D02*
X19143095Y-14157000D01*
X19162143Y-14147476D01*
X19209762Y-14147476D01*
X19228810Y-14157000D01*
X19238333Y-14166524D01*
X19247857Y-14185571D01*
X19247857Y-14204619D01*
X19238333Y-14233190D01*
X19124048Y-14347476D01*
X19247857Y-14347476D01*
X19485952Y-14347476D02*
X19485952Y-14147476D01*
X19571667Y-14347476D02*
X19571667Y-14242714D01*
X19562143Y-14223667D01*
X19543095Y-14214143D01*
X19514524Y-14214143D01*
X19495476Y-14223667D01*
X19485952Y-14233190D01*
X19695476Y-14347476D02*
X19676429Y-14337952D01*
X19666905Y-14328428D01*
X19657381Y-14309381D01*
X19657381Y-14252238D01*
X19666905Y-14233190D01*
X19676429Y-14223667D01*
X19695476Y-14214143D01*
X19724048Y-14214143D01*
X19743095Y-14223667D01*
X19752619Y-14233190D01*
X19762143Y-14252238D01*
X19762143Y-14309381D01*
X19752619Y-14328428D01*
X19743095Y-14337952D01*
X19724048Y-14347476D01*
X19695476Y-14347476D01*
X19876429Y-14347476D02*
X19857381Y-14337952D01*
X19847857Y-14318905D01*
X19847857Y-14147476D01*
X20028810Y-14337952D02*
X20009762Y-14347476D01*
X19971667Y-14347476D01*
X19952619Y-14337952D01*
X19943095Y-14318905D01*
X19943095Y-14242714D01*
X19952619Y-14223667D01*
X19971667Y-14214143D01*
X20009762Y-14214143D01*
X20028810Y-14223667D01*
X20038333Y-14242714D01*
X20038333Y-14261762D01*
X19943095Y-14280809D01*
X20114524Y-14337952D02*
X20133571Y-14347476D01*
X20171667Y-14347476D01*
X20190714Y-14337952D01*
X20200238Y-14318905D01*
X20200238Y-14309381D01*
X20190714Y-14290333D01*
X20171667Y-14280809D01*
X20143095Y-14280809D01*
X20124048Y-14271286D01*
X20114524Y-14252238D01*
X20114524Y-14242714D01*
X20124048Y-14223667D01*
X20143095Y-14214143D01*
X20171667Y-14214143D01*
X20190714Y-14223667D01*
X20266905Y-14423667D02*
X20276429Y-14414143D01*
X20295476Y-14385571D01*
X20305000Y-14366524D01*
X20314524Y-14337952D01*
X20324048Y-14290333D01*
X20324048Y-14252238D01*
X20314524Y-14204619D01*
X20305000Y-14176048D01*
X20295476Y-14157000D01*
X20276429Y-14128428D01*
X20266905Y-14118905D01*
X15395000Y-14427000D02*
X15395000Y-14627000D01*
X15295000Y-14527000D02*
X15495000Y-14527000D01*
X15495000Y-14527000D02*
G75*
G03*
X15495000Y-14527000I-100000J0D01*
G01*
X15733571Y-14417476D02*
X15857381Y-14417476D01*
X15790714Y-14493667D01*
X15819286Y-14493667D01*
X15838333Y-14503190D01*
X15847857Y-14512714D01*
X15857381Y-14531762D01*
X15857381Y-14579381D01*
X15847857Y-14598428D01*
X15838333Y-14607952D01*
X15819286Y-14617476D01*
X15762143Y-14617476D01*
X15743095Y-14607952D01*
X15733571Y-14598428D01*
X15943095Y-14598428D02*
X15952619Y-14607952D01*
X15943095Y-14617476D01*
X15933571Y-14607952D01*
X15943095Y-14598428D01*
X15943095Y-14617476D01*
X16076428Y-14417476D02*
X16095476Y-14417476D01*
X16114524Y-14427000D01*
X16124048Y-14436524D01*
X16133571Y-14455571D01*
X16143095Y-14493667D01*
X16143095Y-14541286D01*
X16133571Y-14579381D01*
X16124048Y-14598428D01*
X16114524Y-14607952D01*
X16095476Y-14617476D01*
X16076428Y-14617476D01*
X16057381Y-14607952D01*
X16047857Y-14598428D01*
X16038333Y-14579381D01*
X16028809Y-14541286D01*
X16028809Y-14493667D01*
X16038333Y-14455571D01*
X16047857Y-14436524D01*
X16057381Y-14427000D01*
X16076428Y-14417476D01*
X16266905Y-14417476D02*
X16285952Y-14417476D01*
X16305000Y-14427000D01*
X16314524Y-14436524D01*
X16324048Y-14455571D01*
X16333571Y-14493667D01*
X16333571Y-14541286D01*
X16324048Y-14579381D01*
X16314524Y-14598428D01*
X16305000Y-14607952D01*
X16285952Y-14617476D01*
X16266905Y-14617476D01*
X16247857Y-14607952D01*
X16238333Y-14598428D01*
X16228809Y-14579381D01*
X16219286Y-14541286D01*
X16219286Y-14493667D01*
X16228809Y-14455571D01*
X16238333Y-14436524D01*
X16247857Y-14427000D01*
X16266905Y-14417476D01*
X16457381Y-14417476D02*
X16476428Y-14417476D01*
X16495476Y-14427000D01*
X16505000Y-14436524D01*
X16514524Y-14455571D01*
X16524048Y-14493667D01*
X16524048Y-14541286D01*
X16514524Y-14579381D01*
X16505000Y-14598428D01*
X16495476Y-14607952D01*
X16476428Y-14617476D01*
X16457381Y-14617476D01*
X16438333Y-14607952D01*
X16428809Y-14598428D01*
X16419286Y-14579381D01*
X16409762Y-14541286D01*
X16409762Y-14493667D01*
X16419286Y-14455571D01*
X16428809Y-14436524D01*
X16438333Y-14427000D01*
X16457381Y-14417476D01*
X16609762Y-14617476D02*
X16609762Y-14484143D01*
X16609762Y-14503190D02*
X16619286Y-14493667D01*
X16638333Y-14484143D01*
X16666905Y-14484143D01*
X16685952Y-14493667D01*
X16695476Y-14512714D01*
X16695476Y-14617476D01*
X16695476Y-14512714D02*
X16705000Y-14493667D01*
X16724048Y-14484143D01*
X16752619Y-14484143D01*
X16771667Y-14493667D01*
X16781190Y-14512714D01*
X16781190Y-14617476D01*
X16876429Y-14617476D02*
X16876429Y-14484143D01*
X16876429Y-14503190D02*
X16885952Y-14493667D01*
X16905000Y-14484143D01*
X16933571Y-14484143D01*
X16952619Y-14493667D01*
X16962143Y-14512714D01*
X16962143Y-14617476D01*
X16962143Y-14512714D02*
X16971667Y-14493667D01*
X16990714Y-14484143D01*
X17019286Y-14484143D01*
X17038333Y-14493667D01*
X17047857Y-14512714D01*
X17047857Y-14617476D01*
X17438333Y-14407952D02*
X17266905Y-14665095D01*
X17695476Y-14417476D02*
X17714524Y-14417476D01*
X17733571Y-14427000D01*
X17743095Y-14436524D01*
X17752619Y-14455571D01*
X17762143Y-14493667D01*
X17762143Y-14541286D01*
X17752619Y-14579381D01*
X17743095Y-14598428D01*
X17733571Y-14607952D01*
X17714524Y-14617476D01*
X17695476Y-14617476D01*
X17676429Y-14607952D01*
X17666905Y-14598428D01*
X17657381Y-14579381D01*
X17647857Y-14541286D01*
X17647857Y-14493667D01*
X17657381Y-14455571D01*
X17666905Y-14436524D01*
X17676429Y-14427000D01*
X17695476Y-14417476D01*
X17847857Y-14598428D02*
X17857381Y-14607952D01*
X17847857Y-14617476D01*
X17838333Y-14607952D01*
X17847857Y-14598428D01*
X17847857Y-14617476D01*
X18047857Y-14617476D02*
X17933571Y-14617476D01*
X17990714Y-14617476D02*
X17990714Y-14417476D01*
X17971667Y-14446048D01*
X17952619Y-14465095D01*
X17933571Y-14474619D01*
X18238333Y-14617476D02*
X18124048Y-14617476D01*
X18181190Y-14617476D02*
X18181190Y-14417476D01*
X18162143Y-14446048D01*
X18143095Y-14465095D01*
X18124048Y-14474619D01*
X18352619Y-14503190D02*
X18333571Y-14493667D01*
X18324048Y-14484143D01*
X18314524Y-14465095D01*
X18314524Y-14455571D01*
X18324048Y-14436524D01*
X18333571Y-14427000D01*
X18352619Y-14417476D01*
X18390714Y-14417476D01*
X18409762Y-14427000D01*
X18419286Y-14436524D01*
X18428810Y-14455571D01*
X18428810Y-14465095D01*
X18419286Y-14484143D01*
X18409762Y-14493667D01*
X18390714Y-14503190D01*
X18352619Y-14503190D01*
X18333571Y-14512714D01*
X18324048Y-14522238D01*
X18314524Y-14541286D01*
X18314524Y-14579381D01*
X18324048Y-14598428D01*
X18333571Y-14607952D01*
X18352619Y-14617476D01*
X18390714Y-14617476D01*
X18409762Y-14607952D01*
X18419286Y-14598428D01*
X18428810Y-14579381D01*
X18428810Y-14541286D01*
X18419286Y-14522238D01*
X18409762Y-14512714D01*
X18390714Y-14503190D01*
X18619286Y-14617476D02*
X18505000Y-14617476D01*
X18562143Y-14617476D02*
X18562143Y-14417476D01*
X18543095Y-14446048D01*
X18524048Y-14465095D01*
X18505000Y-14474619D01*
X18695476Y-14417476D02*
X18695476Y-14455571D01*
X18771667Y-14417476D02*
X18771667Y-14455571D01*
X19066905Y-14693667D02*
X19057381Y-14684143D01*
X19038333Y-14655571D01*
X19028810Y-14636524D01*
X19019286Y-14607952D01*
X19009762Y-14560333D01*
X19009762Y-14522238D01*
X19019286Y-14474619D01*
X19028810Y-14446048D01*
X19038333Y-14427000D01*
X19057381Y-14398428D01*
X19066905Y-14388905D01*
X19228810Y-14484143D02*
X19228810Y-14617476D01*
X19181190Y-14407952D02*
X19133571Y-14550809D01*
X19257381Y-14550809D01*
X19485952Y-14617476D02*
X19485952Y-14417476D01*
X19571667Y-14617476D02*
X19571667Y-14512714D01*
X19562143Y-14493667D01*
X19543095Y-14484143D01*
X19514524Y-14484143D01*
X19495476Y-14493667D01*
X19485952Y-14503190D01*
X19695476Y-14617476D02*
X19676429Y-14607952D01*
X19666905Y-14598428D01*
X19657381Y-14579381D01*
X19657381Y-14522238D01*
X19666905Y-14503190D01*
X19676429Y-14493667D01*
X19695476Y-14484143D01*
X19724048Y-14484143D01*
X19743095Y-14493667D01*
X19752619Y-14503190D01*
X19762143Y-14522238D01*
X19762143Y-14579381D01*
X19752619Y-14598428D01*
X19743095Y-14607952D01*
X19724048Y-14617476D01*
X19695476Y-14617476D01*
X19876429Y-14617476D02*
X19857381Y-14607952D01*
X19847857Y-14588905D01*
X19847857Y-14417476D01*
X20028810Y-14607952D02*
X20009762Y-14617476D01*
X19971667Y-14617476D01*
X19952619Y-14607952D01*
X19943095Y-14588905D01*
X19943095Y-14512714D01*
X19952619Y-14493667D01*
X19971667Y-14484143D01*
X20009762Y-14484143D01*
X20028810Y-14493667D01*
X20038333Y-14512714D01*
X20038333Y-14531762D01*
X19943095Y-14550809D01*
X20114524Y-14607952D02*
X20133571Y-14617476D01*
X20171667Y-14617476D01*
X20190714Y-14607952D01*
X20200238Y-14588905D01*
X20200238Y-14579381D01*
X20190714Y-14560333D01*
X20171667Y-14550809D01*
X20143095Y-14550809D01*
X20124048Y-14541286D01*
X20114524Y-14522238D01*
X20114524Y-14512714D01*
X20124048Y-14493667D01*
X20143095Y-14484143D01*
X20171667Y-14484143D01*
X20190714Y-14493667D01*
X20266905Y-14693667D02*
X20276429Y-14684143D01*
X20295476Y-14655571D01*
X20305000Y-14636524D01*
X20314524Y-14607952D01*
X20324048Y-14560333D01*
X20324048Y-14522238D01*
X20314524Y-14474619D01*
X20305000Y-14446048D01*
X20295476Y-14427000D01*
X20276429Y-14398428D01*
X20266905Y-14388905D01*
M02*
