M48
; DRILL file {KiCad 6.0.10-86aedd382b~118~ubuntu22.04.1} date Tue 18 Apr 2023 04:50:03 PM EDT
; FORMAT={-:-/ absolute / metric / decimal}
; #@! TF.CreationDate,2023-04-18T16:50:03-04:00
; #@! TF.GenerationSoftware,Kicad,Pcbnew,6.0.10-86aedd382b~118~ubuntu22.04.1
; #@! TF.FileFunction,Plated,1,2,PTH
FMAT,2
METRIC
; #@! TA.AperFunction,Plated,PTH,ViaDrill
T1C0.300
; #@! TA.AperFunction,Plated,PTH,ViaDrill
T2C0.400
; #@! TA.AperFunction,Plated,PTH,ComponentDrill
T3C0.800
; #@! TA.AperFunction,Plated,PTH,ComponentDrill
T4C0.900
; #@! TA.AperFunction,Plated,PTH,ComponentDrill
T5C0.990
; #@! TA.AperFunction,Plated,PTH,ComponentDrill
T6C1.000
; #@! TA.AperFunction,Plated,PTH,ComponentDrill
T7C1.200
; #@! TA.AperFunction,Plated,PTH,ComponentDrill
T8C1.300
; #@! TA.AperFunction,Plated,PTH,ComponentDrill
T9C1.500
; #@! TA.AperFunction,Plated,PTH,ComponentDrill
T10C3.000
%
G90
G05
T1
X157.95Y-75.65
X159.3Y-80.85
X159.481Y-84.369
X159.875Y-78.675
X159.913Y-81.637
X160.65Y-96.0
X161.9Y-85.0
X161.95Y-94.45
X162.5Y-84.25
X162.6Y-81.5
X162.6Y-82.3
X162.705Y-79.695
X163.833Y-80.417
X164.051Y-84.2
X164.5Y-76.312
X164.625Y-78.525
X164.875Y-83.075
X168.175Y-83.45
X168.5Y-88.8
X169.15Y-81.375
X169.85Y-81.375
X171.85Y-81.326
X181.6Y-98.825
X182.1Y-99.5
X182.85Y-97.95
X183.28Y-55.35
X183.29Y-53.51
X183.3Y-98.75
X188.3Y-47.75
X189.1Y-49.025
X195.0Y-42.6
X197.54Y-42.16
X200.08Y-41.31
X209.2Y-93.839
X209.2Y-95.075
X225.35Y-98.3
X225.4Y-89.675
X226.16Y-85.34
X226.225Y-96.85
X226.45Y-61.2
T2
X164.775Y-98.9
X165.975Y-98.9
X168.775Y-98.5
X168.775Y-99.9
X168.775Y-101.3
X168.775Y-102.7
X170.575Y-98.5
X170.575Y-99.9
X170.575Y-101.3
X170.575Y-102.7
X172.375Y-98.5
X172.375Y-99.9
X172.375Y-101.3
X172.375Y-102.7
X174.85Y-98.81
X175.85Y-98.81
X176.09Y-85.14
X177.8Y-85.11
X177.9Y-93.6
X177.9Y-94.8
X177.9Y-96.0
X183.2Y-73.6
X187.05Y-75.6
X195.0Y-75.8
X195.0Y-95.0
X209.87Y-77.92
X209.878Y-76.7
X211.65Y-93.188
X212.275Y-88.4
X212.95Y-67.45
X213.95Y-78.5
X213.95Y-88.35
X214.0Y-77.1
X214.5Y-67.45
X214.8Y-92.6
X216.15Y-67.45
X216.15Y-93.65
X216.15Y-96.35
X217.75Y-67.45
X218.7Y-92.55
X220.387Y-75.25
X220.412Y-76.75
X222.375Y-46.8
X222.4Y-36.475
X222.4Y-41.575
X222.4Y-51.95
X222.5Y-77.55
X222.55Y-56.95
X224.4Y-49.95
X224.78Y-75.545
X225.55Y-50.45
X225.75Y-45.5
X226.15Y-74.183
T3
X187.38Y-38.78
X187.38Y-54.02
X189.92Y-38.78
X189.92Y-54.02
X192.46Y-38.78
X192.46Y-54.02
X195.0Y-38.78
X195.0Y-54.02
X197.54Y-38.78
X197.54Y-54.02
X200.08Y-38.78
X200.08Y-54.02
X202.62Y-38.78
X202.62Y-54.02
T4
X157.85Y-94.75
X157.85Y-96.75
X157.85Y-98.75
T5
X231.887Y-94.275
X231.887Y-98.775
X231.938Y-79.15
X231.938Y-83.65
T6
X230.7Y-49.095
X230.7Y-51.635
X230.7Y-54.175
X230.7Y-56.715
X230.7Y-59.255
X230.7Y-61.795
X230.7Y-64.335
X230.7Y-66.875
T7
X171.28Y-74.3
X171.28Y-87.0
T8
X229.397Y-93.025
X229.397Y-100.035
X229.447Y-77.9
X229.447Y-84.91
T9
X157.85Y-92.65
X157.85Y-100.85
T10
X160.0Y-40.0
X160.0Y-110.0
X230.0Y-40.0
X230.0Y-110.0
T0
M30
